SplineFontDB: 3.2
FontName: honchokomono-light-italic
FullName: honchokomono greater
FamilyName: honchokomono-italic
Weight: light
Copyright: Copyright (c) 2024, honchokomodo
UComments: "2024-6-9: Created with FontForge (http://fontforge.org)"
Version: 001.000
ItalicAngle: -12
UnderlinePosition: 0
UnderlineWidth: 0
Ascent: 800
Descent: 200
InvalidEm: 0
LayerCount: 2
Layer: 0 0 "Back" 1
Layer: 1 0 "Fore" 0
XUID: [1021 669 1385941162 1060273]
FSType: 0
OS2Version: 4
OS2_WeightWidthSlopeOnly: 0
OS2_UseTypoMetrics: 1
CreationTime: 1717993120
ModificationTime: 1734655507
PfmFamily: 49
TTFWeight: 300
TTFWidth: 5
LineGap: 68
VLineGap: 0
OS2TypoAscent: 977
OS2TypoAOffset: 0
OS2TypoDescent: -273
OS2TypoDOffset: 0
OS2TypoLinegap: 0
OS2WinAscent: 977
OS2WinAOffset: 0
OS2WinDescent: 273
OS2WinDOffset: 0
HheadAscent: 977
HheadAOffset: 0
HheadDescent: -205
HheadDOffset: 0
OS2CapHeight: 735
OS2XHeight: 530
OS2Vendor: 'PfEd'
Lookup: 1 0 0 "rightarrowhead" { "rightarrowhead-1"  } ['aalt' ('DFLT' <'dflt' > 'latn' <'dflt' > ) ]
Lookup: 1 0 0 "leftarrowhead" { "leftarrowhead-1"  } ['aalt' ('DFLT' <'dflt' > 'latn' <'dflt' > ) ]
Lookup: 1 0 0 "longequal" { "longequal-1"  } ['aalt' ('DFLT' <'dflt' > 'latn' <'dflt' > ) ]
Lookup: 1 0 0 "rightequal" { "rightequal-1"  } ['aalt' ('DFLT' <'dflt' > 'latn' <'dflt' > ) ]
Lookup: 1 0 0 "leftequal" { "leftequal-1"  } ['aalt' ('DFLT' <'dflt' > 'latn' <'dflt' > ) ]
Lookup: 1 0 0 "longhyphen" { "longhyphen-1"  } ['aalt' ('DFLT' <'dflt' > 'latn' <'dflt' > ) ]
Lookup: 1 0 0 "righthyphen" { "righthyphen-1"  } ['aalt' ('DFLT' <'dflt' > 'latn' <'dflt' > ) ]
Lookup: 1 0 0 "lefthyphen" { "lefthyphen-1"  } ['aalt' ('DFLT' <'dflt' > 'latn' <'dflt' > ) ]
Lookup: 6 0 0 "caltrules" { "rightarrowhead"  "leftarrowhead"  "longequal"  "rightequal"  "leftequal"  "longhyphen"  "righthyphen"  "lefthyphen"  } ['calt' ('DFLT' <'dflt' > 'latn' <'dflt' > ) ]
Lookup: 4 0 1 "ligatures" { "ligatures-1"  } ['liga' ('DFLT' <'dflt' > 'latn' <'dflt' > ) ]
MarkAttachClasses: 1

StartChar: exclam
Encoding: 33 33 1
Width: 500
Flags: HW
LayerCount: 2
Fore
SplineSet
289.188476562 264.694335938 m 0
 288.904087293 263.318975259 288.76794017 261.952616799 288.76794017 260.610190335 c 0
 288.76794017 249.852023901 297.51181583 240.630859375 308.774414062 240.630859375 c 0
 318.420898438 240.630859375 326.48046875 247.474609375 328.360351562 256.567382812 c 0
 349.99609375 361.212890625 407.830078125 549.955078125 431.537109375 677.258789062 c 0
 431.769138644 678.505117706 431.880633057 679.741972387 431.880633057 680.958478166 c 0
 431.880633057 691.748413511 423.109363911 700.9375 411.875 700.9375 c 0
 402.092773438 700.9375 393.942382812 693.899414062 392.212890625 684.616210938 c 0
 369.172851562 560.887695312 310.821289062 369.330078125 289.188476562 264.694335938 c 0
260.834960938 14.521484375 m 0
 287.696289062 14.521484375 303.474609375 40.0869140625 303.474609375 58.98828125 c 0
 303.474609375 81.064453125 285.55078125 98.98828125 263.474609375 98.98828125 c 0
 247.883789062 98.98828125 234.364257812 90.048828125 227.765625 77.0205078125 c 0
 222.976416264 69.9982921821 220.807799358 62.2889790077 220.807799358 54.7551637189 c 0
 220.807799358 33.970440988 237.313781602 14.521484375 260.834960938 14.521484375 c 0
EndSplineSet
EndChar

StartChar: quotedbl
Encoding: 34 34 2
Width: 500
Flags: HW
LayerCount: 2
Fore
SplineSet
506.840820312 701.375 m 0
 507.465611779 703.37320557 507.759644264 705.379820871 507.759644264 707.343613329 c 0
 507.759644264 717.970704147 499.14905402 727.34375 487.748046875 727.34375 c 0
 478.788085938 727.34375 471.196289062 721.439453125 468.655273438 713.3125 c 0
 459.790039062 684.963867188 429.404296875 564.603515625 423.404296875 549.190429688 c 0
 422.470537618 546.791442032 422.035696497 544.351684425 422.035696497 541.967605201 c 0
 422.035696497 531.411121649 430.561352221 521.946289062 442.049804688 521.946289062 c 0
 450.533203125 521.946289062 457.791015625 527.240234375 460.6953125 534.702148438 c 0
 469.040039062 556.140625 497.264648438 670.752929688 506.840820312 701.375 c 0
362.942382812 694.729492188 m 0
 363.567399279 696.727930164 363.861532295 698.734779828 363.861532295 700.698790727 c 0
 363.861532295 711.325599233 355.250371483 720.698242188 343.849609375 720.698242188 c 0
 334.889648438 720.698242188 327.298828125 714.793945312 324.756835938 706.666992188 c 0
 315.891601562 678.318359375 285.504882812 557.959960938 279.504882812 542.545898438 c 0
 278.571123555 540.146910782 278.136282435 537.707153175 278.136282435 535.323073951 c 0
 278.136282435 524.766590399 286.661938158 515.301757812 298.150390625 515.301757812 c 0
 306.633789062 515.301757812 313.891601562 520.595703125 316.795898438 528.057617188 c 0
 325.135742188 549.481445312 353.377929688 664.14453125 362.942382812 694.729492188 c 0
EndSplineSet
EndChar

StartChar: numbersign
Encoding: 35 35 3
Width: 500
Flags: HW
LayerCount: 2
Fore
SplineSet
111.473632812 249.692382812 m 0
 111.473632812 238.649643391 120.440422769 229.692603356 131.472483212 229.692603356 c 0
 131.601493908 229.692603356 131.730787038 229.693828262 131.860351562 229.696289062 c 0
 147.580598916 229.995086039 162.287169918 230.274615926 176.067292541 230.536634032 c 1
 152.035679967 166.460797818 127.406320806 102.693702796 102.734375 41.80859375 c 0
 101.730518762 39.3313774517 101.263979352 36.8042787471 101.263979352 34.3353979378 c 0
 101.263979352 23.791571906 109.773097447 14.3095703125 121.278320312 14.3095703125 c 0
 129.665039062 14.3095703125 136.853515625 19.4833984375 139.822265625 26.810546875 c 0
 166.568694284 92.8138814196 193.220120537 162.061283496 219.093828242 231.355279084 c 1
 276.749347997 232.453286911 314.658700891 233.1809013 342.970690434 233.742349149 c 1
 276.528599771 61.9133865181 276.528599771 61.9133865181 269.990234375 44.6845703125 c 0
 269.098374584 42.334234602 268.682524745 39.9483019032 268.682524745 37.6164813206 c 0
 268.682524745 27.0516802545 277.218810074 17.59765625 288.696289062 17.59765625 c 0
 297.239257812 17.59765625 304.5390625 22.9658203125 307.40234375 30.5107421875 c 0
 307.623862652 31.0944363904 307.623862652 31.0944363904 386.207095594 234.627152547 c 1
 409.350590646 235.120637448 428.073586842 235.559878077 457.19921875 236.243164062 c 0
 468.016601562 236.497070312 476.721679688 245.358398438 476.721679688 256.237304688 c 0
 476.721679688 267.281055881 467.752914151 276.23706142 456.722932926 276.23706142 c 0
 456.563757836 276.23706142 456.404153482 276.235196265 456.244140625 276.231445312 c 0
 434.276977421 275.716305986 418.234015266 275.340091695 401.737601737 274.974468278 c 1
 426.365259738 339.179418593 451.281816004 405.340629158 474.455253084 470.241570613 c 1
 492.939654031 471.024019018 511.556696745 471.788492539 530.220703125 472.48046875 c 0
 540.911132812 472.876953125 549.467773438 481.680664062 549.467773438 492.466796875 c 0
 549.467773438 503.504882812 540.505859375 512.466796875 529.467773438 512.466796875 c 0
 524.427280025 512.466796875 509.60517005 511.834188898 488.795400091 510.904810855 c 1
 510.135191507 572.225545829 529.497540644 631.782367954 545.114257812 686.776367188 c 0
 545.63584535 688.613139748 545.882372306 690.450727604 545.882372306 692.250558831 c 0
 545.882372306 702.908892363 537.237084385 712.243164062 525.872070312 712.243164062 c 0
 516.729492188 712.243164062 509.010742188 706.094726562 506.629882812 697.709960938 c 0
 490.0309539 639.257308883 468.974432391 575.132614278 445.714055056 508.984983923 c 1
 407.074003161 507.295040301 360.616111701 505.404268464 317.934576768 504.338977102 c 1
 318.573150943 506.141418164 370.818830564 654.057805715 381.701171875 684.615234375 c 0
 382.49546572 686.845923956 382.866977458 689.101109185 382.866977458 691.306048502 c 0
 382.866977458 701.891194002 374.305022844 711.318359375 362.853515625 711.318359375 c 0
 354.166015625 711.318359375 346.764648438 705.767578125 344.005859375 698.021484375 c 0
 336.354381412 676.533555485 275.902896501 505.513669381 275.213253721 503.569760332 c 1
 269.589129355 503.516495345 264.13048219 503.48828125 258.873046875 503.48828125 c 0
 212.569335938 503.48828125 184.873046875 505.4921875 184.125 505.4921875 c 0
 173.086914062 505.4921875 164.125 496.530273438 164.125 485.4921875 c 0
 164.125 474.870117188 172.423828125 466.169921875 182.88671875 465.530273438 c 0
 203.388676126 464.275077537 223.239752873 463.375192394 253.49560221 463.375192394 c 0
 255.905137468 463.375192394 258.38066308 463.38089975 260.927763187 463.392589523 c 1
 238.782245553 401.261594075 215.306578738 336.165207349 191.088868857 270.829384297 c 1
 172.897024141 270.483292701 152.974898163 270.104570253 131.086914062 269.688476562 c 0
 120.2265625 269.482421875 111.473632812 260.6015625 111.473632812 249.692382812 c 0
303.620007182 464.014956416 m 1
 335.663076707 464.738269435 376.614176728 466.122273048 431.266635092 468.403074839 c 1
 407.972214664 403.719449897 383.042135881 337.83565693 358.520842792 274.061929315 c 1
 330.970288115 273.504367844 294.136697148 272.793257616 234.052604062 271.647538622 c 1
 258.251817057 337.1904927 281.634385229 402.218904835 303.620007182 464.014956416 c 1
EndSplineSet
EndChar

StartChar: dollar
Encoding: 36 36 4
Width: 500
Flags: HW
LayerCount: 2
Fore
SplineSet
110.485351562 184.271484375 m 0
 110.485351562 164.336355025 158.685540357 136.267524029 187.695892923 125.926566137 c 1
 173.514248065 93.2798129299 160.149261052 61.7575171706 148.014648438 31.95703125 c 0
 147.002406541 29.4707643762 146.532082035 26.9334306445 146.532082035 24.4545718184 c 0
 146.532082035 13.9117988014 155.039616802 4.4267578125 166.546875 4.4267578125 c 0
 174.921875 4.4267578125 182.1015625 9.5859375 185.079101562 16.896484375 c 0
 198.238323679 49.2140038668 212.291978633 82.3969155373 226.910421904 116.067515748 c 1
 238.689485066 114.251519192 250.580200663 113.381725785 262.444691601 113.381725785 c 0
 370.270677948 113.381725785 475.930664062 185.221469235 475.930664062 271.545898438 c 0
 475.930664062 323.397188859 438.580960407 372.312735155 359.828955453 411.049042164 c 1
 390.453276185 478.516415621 419.496199242 543.534950511 444.263428523 603.14809935 c 1
 466.725668067 597.423225311 489.507071127 587.202439833 511.6171875 571.424804688 c 0
 515.209380345 568.861426958 519.193826371 567.703035418 523.08902126 567.703035418 c 0
 533.469338595 567.703035418 543.215820312 575.929595142 543.215820312 587.715820312 c 0
 543.215820312 594.431640625 539.8984375 600.37890625 534.814453125 604.006835938 c 0
 510.316179328 621.488578684 484.866594724 633.351900334 459.482355007 640.478261613 c 1
 468.441525154 662.922338101 476.653422477 684.436460372 483.955078125 704.841796875 c 0
 484.756598898 707.081593697 485.131404491 709.346685792 485.131404491 711.561248121 c 0
 485.131404491 722.144219834 476.571961232 731.573242188 465.118164062 731.573242188 c 0
 456.44140625 731.573242188 449.047851562 726.036132812 446.28125 718.3046875 c 0
 438.586639913 696.801452288 429.473125639 673.204801526 419.246460816 647.956203327 c 1
 412.169836726 648.618830666 405.14160192 648.940181832 398.184737424 648.940181832 c 0
 296.83513613 648.940181832 210.6328125 580.738218013 210.6328125 505.940429688 c 0
 210.6328125 460.170831345 242.950188002 418.449799379 306.66091722 390.799619692 c 1
 272.104656106 314.641315982 236.32482514 236.449416616 203.782347365 162.664908873 c 1
 182.388763595 169.890610286 162.113432763 181.602927759 144.341796875 198.688476562 c 0
 140.329904869 202.545386851 135.462454911 204.270604585 130.684039231 204.270604585 c 0
 120.377596902 204.270604585 110.485351562 196.244706978 110.485351562 184.271484375 c 0
250.6328125 505.940429688 m 1
 250.6328125 555.836310296 317.378946518 608.925736986 398.327644745 608.925736986 c 0
 399.911466387 608.925736986 401.500725033 608.905413377 403.095027124 608.864344591 c 1
 379.684600127 553.183704121 352.12701006 491.322012435 323.166967378 427.242271127 c 1
 267.027225397 451.310615551 250.6328125 481.256264689 250.6328125 505.940429688 c 1
243.637868848 154.270574902 m 1
 267.39032435 208.095664354 271.178892538 216.466503275 343.26764034 374.645613734 c 1
 414.325334217 339.562763732 435.930664062 301.320165036 435.930664062 271.545898438 c 0
 435.930664062 210.817145683 349.799513776 153.408109234 262.058220819 153.408109234 c 0
 255.916329624 153.408109234 249.766548729 153.689413576 243.637868848 154.270574902 c 1
EndSplineSet
EndChar

StartChar: percent
Encoding: 37 37 5
Width: 500
Flags: HW
LayerCount: 2
Fore
SplineSet
375.186523438 113.727539062 m 0
 374.966796875 113.95703125 369.2265625 121.080078125 369.2265625 144.866210938 c 0
 369.2265625 205.707991302 405.036045027 292.644307569 438.795898438 294.848632812 c 1
 443.065358965 289.098884876 445.037857857 278.100088896 445.037857857 264.244915176 c 0
 445.037857857 210.611356044 415.480469858 114.175711979 375.186523438 113.727539062 c 0
374.965820312 73.7265625 m 0
 441.462216143 73.7265625 484.922074928 180.511801285 484.922074928 257.514756487 c 0
 484.922074928 300.932510628 471.105250613 334.881835938 439.810546875 334.881835938 c 0
 375.25974596 334.881835938 329.207552144 225.686864225 329.207552144 148.513132209 c 0
 329.207552144 106.338194545 342.961273364 73.7265625 374.965820312 73.7265625 c 0
548.848632812 658.263671875 m 0
 550.977941692 661.63203218 551.945532885 665.272784777 551.945532885 668.828948944 c 0
 551.945532885 679.241952991 543.649310638 688.9296875 531.930664062 688.9296875 c 0
 524.8125 688.9296875 518.557617188 685.203125 515.012695312 679.595703125 c 0
 511.056019895 673.337148142 175.897909208 160.145277469 112.271484375 58.2685546875 c 0
 110.182302514 54.9234941278 109.232388123 51.3162167578 109.232388123 47.7929763145 c 0
 109.232388123 37.3768920701 117.534887847 27.6953125 129.247070312 27.6953125 c 0
 136.404296875 27.6953125 142.688476562 31.462890625 146.22265625 37.1220703125 c 0
 209.291395359 138.10471653 544.89315227 652.006945071 548.848632812 658.263671875 c 0
177.768554688 465.727539062 m 0
 177.768554688 450.326060342 181.561261868 401.303710938 229.849609375 401.303710938 c 0
 296.646484375 401.303710938 350.111328125 531.22265625 350.111328125 602.865234375 c 0
 350.111328125 619.949619857 346.150968819 674.461914062 295.60546875 674.461914062 c 0
 239.490805955 674.461914062 177.768554688 537.283250986 177.768554688 465.727539062 c 0
295.60546875 634.461914062 m 1
 305.837342895 634.461914062 310.319369163 622.700479932 310.319369163 604.934103408 c 0
 310.319369163 560.429862288 282.195214765 478.245358505 245.875 448.86328125 c 0
 238.660209871 443.020598511 232.985798953 440.401560897 228.671685976 440.401560897 c 0
 220.905233971 440.401560897 217.54733772 448.889534746 217.54733772 462.337982757 c 0
 217.54733772 509.282168483 258.462714752 616.66886208 295.60546875 634.461914062 c 1
EndSplineSet
EndChar

StartChar: ampersand
Encoding: 38 38 6
Width: 500
Flags: HW
LayerCount: 2
Fore
SplineSet
371.889648438 181 m 1
 309.985788819 110.220634427 253.342533669 81.7512793666 212.77139176 81.7512793666 c 0
 183.159530647 81.7512793666 162.109565141 96.9174023524 153.825195312 121.868164062 c 0
 148.339463497 138.389062825 145.827156922 154.507335398 145.827156922 170.231549084 c 0
 145.827156922 245.624195052 203.582574964 311.95782093 268.266601562 370.176757812 c 1
 287.044921875 305.912109375 321.411132812 240.258789062 371.889648438 181 c 1
301.908203125 399.5078125 m 1
 365.0625 453.356445312 483.890625 554.671875 483.890625 629.122070312 c 0
 483.890625 636.766601562 481.299804688 688.837890625 410.697265625 688.837890625 c 0
 373.171875 688.837890625 328.911132812 672.752929688 304.939453125 646.012695312 c 0
 286.669697524 625.633251759 251.024748642 574.388106362 251.024748642 484.737052021 c 0
 251.024748642 463.461383991 253.032239628 440.022730224 257.755859375 414.3203125 c 1
 192.472934953 357.605838606 105.759650822 273.795832796 105.759650822 170.253851537 c 0
 105.759650822 150.618296558 108.878102755 130.27312462 115.852539062 109.268554688 c 0
 128.662203244 70.6902574479 164.115647201 41.7596835149 213.676491506 41.7596835149 c 0
 263.95827232 41.7596835149 328.760865036 71.5380559949 399.169921875 151.231445312 c 1
 412.359375 137.842773438 426.447265625 124.881835938 441.44140625 112.450195312 c 0
 445.273460394 109.273252306 449.697890863 107.846024478 454.0308103 107.846024478 c 0
 464.372752046 107.846024478 474.193359375 115.976880127 474.193359375 127.853515625 c 0
 474.193359375 134.046875 471.372070312 139.586914062 466.9453125 143.256835938 c 0
 451.915039062 155.717773438 437.883789062 168.749023438 424.836914062 182.224609375 c 1
 439.258789062 200.73828125 453.80078125 221.282226562 468.395507812 243.970703125 c 0
 470.583726862 247.372338867 471.577261542 251.061582612 471.577261542 254.665461697 c 0
 471.577261542 265.073492224 463.290597672 274.76953125 451.5625 274.76953125 c 0
 444.500976562 274.76953125 438.2890625 271.1015625 434.729492188 265.568359375 c 0
 422.19921875 246.088867188 409.825195312 228.4765625 397.673828125 212.588867188 c 1
 348.7265625 271.874023438 317.133789062 337.373046875 301.908203125 399.5078125 c 1
293.58984375 444.932617188 m 1
 292.418800313 454.703947723 291.287424392 468.159176854 291.287424392 483.672680559 c 0
 291.287424392 524.51318412 299.128385872 579.618488059 334.728515625 619.329101562 c 0
 351.319199657 637.835375967 385.700782675 648.798043808 411.47213496 648.798043808 c 0
 424.248149339 648.798043808 434.908088222 646.103826485 440.235351562 640.298828125 c 0
 442.080139086 638.288559786 443.643570766 634.59006968 443.643570766 628.846875858 c 0
 443.643570766 606.288504622 419.523007767 552.184524186 293.58984375 444.932617188 c 1
EndSplineSet
EndChar

StartChar: quotesingle
Encoding: 39 39 7
Width: 500
Flags: HW
LayerCount: 2
Fore
SplineSet
422.942382812 694.729492188 m 0
 423.567399279 696.727930164 423.861532295 698.734779828 423.861532295 700.698790727 c 0
 423.861532295 711.325599233 415.250371483 720.698242188 403.849609375 720.698242188 c 0
 394.889648438 720.698242188 387.298828125 714.793945312 384.756835938 706.666992188 c 0
 375.891601562 678.318359375 345.504882812 557.959960938 339.504882812 542.545898438 c 0
 338.571123555 540.146910782 338.136282435 537.707153175 338.136282435 535.323073951 c 0
 338.136282435 524.766590399 346.661938158 515.301757812 358.150390625 515.301757812 c 0
 366.633789062 515.301757812 373.891601562 520.595703125 376.795898438 528.057617188 c 0
 385.135742188 549.481445312 413.377929688 664.14453125 422.942382812 694.729492188 c 0
EndSplineSet
EndChar

StartChar: parenleft
Encoding: 40 40 8
Width: 500
Flags: HW
LayerCount: 2
Fore
SplineSet
218.262695312 212.971679688 m 0
 218.262695312 412.606831055 430.711824505 692.181640625 501.149414062 692.181640625 c 0
 504.94140625 692.181640625 505.673828125 690.989257812 510.173828125 690.989257812 c 0
 521.211914062 690.989257812 530.173828125 699.951171875 530.173828125 710.989257812 c 0
 530.173828125 717.083007812 527.513671875 732.181640625 501.149414062 732.181640625 c 0
 397.474181985 732.181640625 178.262695312 425.810276344 178.262695312 212.971679688 c 0
 178.262695312 141.396484375 203.651367188 42.62109375 334.159179688 7.6845703125 c 0
 335.90192675 7.21798163002 337.642228503 6.99688711867 339.347699203 6.99688711867 c 0
 350.024901534 6.99688711867 359.336914062 15.6626017145 359.336914062 27.0068359375 c 0
 359.336914062 36.2548828125 353.046875 44.044921875 344.514648438 46.3291015625 c 0
 292.786132812 60.1767578125 218.262695312 95.52734375 218.262695312 212.971679688 c 0
EndSplineSet
EndChar

StartChar: parenright
Encoding: 41 41 9
Width: 500
Flags: HW
LayerCount: 2
Fore
SplineSet
382.967773438 727.227539062 m 0
 378.824456615 732.221376195 373.285525647 734.448519159 367.821485081 734.448519159 c 0
 357.563433559 734.448519159 347.569335938 726.598874128 347.569335938 714.469726562 c 0
 347.569335938 709.622070312 349.297851562 705.174804688 352.170898438 701.711914062 c 0
 404.39956131 638.760798332 427.362038948 563.494071865 427.362038948 485.596692357 c 0
 427.362038948 314.430567475 316.493407347 130.562986442 161.633789062 36.744140625 c 0
 155.006649772 32.7293092595 152.039255114 26.3096763045 152.039255114 19.9298766886 c 0
 152.039255114 9.7269877967 159.628656965 -0.3740234375 171.975585938 -0.3740234375 c 0
 175.758789062 -0.3740234375 179.298828125 0.6787109375 182.317382812 2.5078125 c 0
 351.272055985 104.865654189 467.35781866 301.132792271 467.35781866 485.360343635 c 0
 467.35781866 572.393364498 441.449578436 656.739367611 382.967773438 727.227539062 c 0
EndSplineSet
EndChar

StartChar: asterisk
Encoding: 42 42 10
Width: 500
Flags: HW
LayerCount: 2
Fore
SplineSet
234 443.734375 m 0
 234 438.383209784 243.630865336 405.131525768 300.93410996 362.940160603 c 1
 259.090466355 340.994292957 220.386214619 319.814906391 201.743164062 298.58984375 c 0
 191.913216412 287.398283206 188.188846419 277.821947517 188.188846419 270.231687342 c 0
 188.188846419 257.668958643 198.391366435 250.546875 208 250.546875 c 0
 217.177734375 250.546875 224.919921875 256.7421875 227.268554688 265.174804688 c 0
 231.775738648 281.336831293 289.058603666 311.414812328 309.469853345 322.132313636 c 1
 300.18588041 282.902343879 290.596867703 250.267524986 274.75 207.705078125 c 0
 273.888434181 205.390914773 273.486331191 203.044724023 273.486331191 200.751466815 c 0
 273.486331191 190.180553045 282.030244409 180.734375 293.5 180.734375 c 0
 302.087890625 180.734375 309.41796875 186.158203125 312.25 193.764648438 c 0
 330.737110643 243.417928328 341.228325031 281.01762668 351.990538973 328.539309132 c 1
 377.94116238 311.225961138 398.027460171 295.486188929 400.119140625 276.352539062 c 0
 401.212890625 266.345703125 409.703125 258.546875 420 258.546875 c 0
 429.319560597 258.546875 439.99935479 267.061231885 439.99935479 282.271196154 c 0
 439.99935479 299.819754592 425.782962844 326.28116071 378.858887383 358.862146263 c 1
 462.415328543 405.456975527 485.55695766 436.863155145 485.55695766 454.477946528 c 0
 485.55695766 466.116579755 475.454131375 471.734375 466 471.734375 c 0
 441.100013586 471.734375 467.825824062 455.481637009 366.915407767 398.216657356 c 1
 376.898696186 446.148645988 382.576596694 473.409509459 391.633789062 514.997070312 c 0
 391.948147051 516.440444565 392.098349785 517.875401609 392.098349785 519.284485184 c 0
 392.098349785 530.026953798 383.36838449 539.265625 372.090820312 539.265625 c 0
 362.517578125 539.265625 354.505859375 532.525390625 352.547851562 523.53515625 c 0
 344.571791477 486.910492405 344.571791477 486.910492405 325.38248794 395.023575 c 1
 302.954436719 411.307327922 283.011360207 429.325489499 272.069335938 452.3125 c 0
 268.357824531 460.109464564 261.332378359 463.63035802 254.317187531 463.63035802 c 0
 244.147818468 463.63035802 234 456.231547208 234 443.734375 c 0
EndSplineSet
EndChar

StartChar: plus
Encoding: 43 43 11
Width: 500
Flags: HW
LayerCount: 2
Fore
SplineSet
266.62109375 373.6875 m 0
 225.99609375 373.6875 213.791015625 376.84765625 209.948242188 376.84765625 c 0
 198.91015625 376.84765625 189.948242188 367.88671875 189.948242188 356.84765625 c 0
 189.948242188 346.853515625 197.295898438 338.561523438 206.879882812 337.083007812 c 0
 222.853306089 334.618518248 243.771243937 333.677599633 266.840248098 333.677599633 c 0
 278.909418074 333.677599633 291.567365152 333.935142291 304.414065101 334.366791283 c 1
 293.446886648 283.016827177 282.990998537 236.230852111 276.708007812 214.133789062 c 0
 276.185177452 212.294985363 275.938076122 210.455262567 275.938076122 208.653344277 c 0
 275.938076122 197.995471718 284.582696801 188.66015625 295.948242188 188.66015625 c 0
 305.08984375 188.66015625 312.806640625 194.805664062 315.189453125 203.186523438 c 0
 322.476202509 228.815701351 334.015669137 280.861594095 345.761878071 336.245496015 c 0
 346.560692849 336.289734781 445.52579943 342.639786457 446.53515625 342.668945312 c 0
 457.302734375 342.979492188 465.948242188 351.818359375 465.948242188 362.66015625 c 0
 465.948242188 373.706965425 456.977030911 382.660869069 445.952109899 382.660869069 c 0
 445.756144069 382.660869069 445.559529383 382.65804014 445.362304688 382.65234375 c 0
 430.731444259 382.230019074 394.935853707 379.224266039 354.288267738 376.807829505 c 1
 357.222770602 390.874436166 379.271857188 497.526186903 379.526367188 498.745117188 c 0
 379.816421868 500.133641951 379.955229428 501.513250399 379.955229428 502.868547752 c 0
 379.955229428 513.623571917 371.214116755 522.84765625 359.948242188 522.84765625 c 0
 350.31640625 522.84765625 342.265625 516.024414062 340.37109375 506.951171875 c 0
 340.095044899 505.629225497 319.583208197 406.330491021 312.950431068 374.718198701 c 1
 297.142091188 374.087167702 281.410531863 373.6875 266.62109375 373.6875 c 0
EndSplineSet
EndChar

StartChar: comma
Encoding: 44 44 12
Width: 500
Flags: HW
LayerCount: 2
Fore
SplineSet
159.606445312 -70.55078125 m 0
 159.606445312 -79.4638671875 166.185546875 -90.560546875 180.366210938 -90.560546875 c 0
 229.258789062 -90.560546875 308.426757812 -13.6376953125 324.24609375 116.131835938 c 0
 324.346976464 116.959737274 324.39606259 117.780639579 324.39606259 118.591538442 c 0
 324.39606259 129.484459196 315.538503537 138.572265625 304.393554688 138.572265625 c 0
 294.181640625 138.572265625 285.747070312 130.90234375 284.541015625 121.012695312 c 0
 272.850426473 25.1031894269 214.33471009 -50.55078125 179.606445312 -50.55078125 c 0
 168.568359375 -50.55078125 159.606445312 -59.5126953125 159.606445312 -70.55078125 c 0
EndSplineSet
EndChar

StartChar: hyphen
Encoding: 45 45 13
Width: 500
Flags: HW
LayerCount: 2
Fore
SplineSet
345.630859375 348.052734375 m 0
 410.833007812 348.052734375 454.11328125 345.780273438 455.208984375 345.780273438 c 0
 466.247070312 345.780273438 475.208984375 354.7421875 475.208984375 365.780273438 c 0
 475.208984375 376.453125 466.831054688 385.18359375 456.298828125 385.750976562 c 0
 444.040974903 386.410620446 397.034682641 388.082153327 344.102965933 388.082153327 c 0
 291.167383932 388.082153327 232.305512055 386.410376313 196.346679688 380.3828125 c 0
 186.888671875 378.796875 179.671875 370.563476562 179.671875 360.658203125 c 0
 179.671875 349.620117188 188.633789062 340.658203125 199.671875 340.658203125 c 0
 203.1796875 340.658203125 235.077148438 348.052734375 345.630859375 348.052734375 c 0
EndSplineSet
Substitution2: "longhyphen-1" longhyphen
Substitution2: "righthyphen-1" righthyphen
Substitution2: "lefthyphen-1" lefthyphen
EndChar

StartChar: period
Encoding: 46 46 14
Width: 500
Flags: HW
LayerCount: 2
Fore
SplineSet
260.834960938 14.521484375 m 0
 287.696289062 14.521484375 303.474609375 40.0869140625 303.474609375 58.98828125 c 0
 303.474609375 81.064453125 285.55078125 98.98828125 263.474609375 98.98828125 c 0
 247.883789062 98.98828125 234.364257812 90.048828125 227.765625 77.0205078125 c 0
 222.976416264 69.9982921821 220.807799358 62.2889790077 220.807799358 54.7551637189 c 0
 220.807799358 33.970440988 237.313781602 14.521484375 260.834960938 14.521484375 c 0
EndSplineSet
EndChar

StartChar: slash
Encoding: 47 47 15
Width: 500
Flags: HW
LayerCount: 2
Fore
SplineSet
102.551757812 62.3056640625 m 0
 100.328448128 58.8846628324 99.3194739166 55.1668443819 99.3194739166 51.5348336208 c 0
 99.3194739166 41.1296430847 107.600533078 31.4287109375 119.333984375 31.4287109375 c 0
 126.362304688 31.4287109375 132.548828125 35.0625 136.116210938 40.5517578125 c 0
 268.72265625 244.608398438 481.798828125 557.995117188 558.037109375 663.916992188 c 0
 560.63330502 667.524143258 561.806114953 671.533456576 561.806114953 675.453298922 c 0
 561.806114953 685.831236966 553.585343354 695.58203125 541.793945312 695.58203125 c 0
 535.107421875 695.58203125 529.182617188 692.293945312 525.55078125 687.247070312 c 0
 448.462890625 580.143554688 235.6640625 267.141601562 102.551757812 62.3056640625 c 0
EndSplineSet
EndChar

StartChar: zero
Encoding: 48 48 16
Width: 500
Flags: HW
LayerCount: 2
Fore
SplineSet
525.609375 724.529296875 m 0
 511.942889626 724.529296875 510.133698597 719.619246704 501.126726157 695.174792884 c 1
 483.393119778 716.156932027 445.870149271 722.722073624 435.931640625 727.676757812 c 1
 257.670898438 727.676757812 121.079101562 383.28515625 121.079101562 181.084960938 c 0
 121.079101562 141.530388024 128.043971435 108.375792312 140.876613027 81.811656683 c 1
 132.14136987 65.1635732375 124.003973703 48.7680226952 116.586914062 32.6787109375 c 0
 115.326770077 29.9451178726 114.744949863 27.1230331232 114.744949863 24.3673059328 c 0
 114.744949863 13.8632093055 123.198395804 4.3232421875 134.760742188 4.3232421875 c 0
 142.817382812 4.3232421875 149.766601562 9.0966796875 152.934570312 15.9677734375 c 0
 157.286751125 25.4087314609 161.891228371 34.9536039677 166.722965468 44.5925136537 c 1
 189.86861568 21.1379810181 220.006429104 9.3115234375 251.614257812 9.3115234375 c 0
 445.69140625 9.3115234375 540.30078125 378.053710938 540.30078125 562.892578125 c 0
 540.30078125 596.44314183 535.241838068 625.90113679 526.333352383 650.278685413 c 1
 533.248837401 666.570782044 539.376153837 682.564826232 544.588867188 698.2109375 c 0
 545.291889805 700.320805515 545.621756341 702.445936503 545.621756341 704.524668754 c 0
 545.621756341 715.130937431 537.034263253 724.529296875 525.609375 724.529296875 c 0
500.30078125 562.892578125 m 0
 500.30078125 383.169921875 407.322265625 49.3115234375 251.614257812 49.3115234375 c 0
 226.022676982 49.3115234375 203.352351421 59.711475209 186.696415052 82.6988767301 c 1
 275.163799565 244.917348389 416.24597243 429.076940629 498.689038354 591.286335082 c 1
 499.753508079 582.031322183 500.30078125 572.503273792 500.30078125 562.892578125 c 0
482.636224403 650.30216676 m 1
 411.281792906 492.331076067 264.529407999 300.332727917 166.658355134 128.797733579 c 1
 163.114476597 143.766078967 161.079101562 161.146773886 161.079101562 181.084960938 c 1
 161.079101562 373.176757812 292.72265625 687.676757812 435.931640625 687.676757812 c 0
 455.623307809 687.676757812 471.550866974 672.943744366 482.636224403 650.30216676 c 1
EndSplineSet
EndChar

StartChar: one
Encoding: 49 49 17
Width: 500
Flags: HW
LayerCount: 2
Fore
SplineSet
243.862304688 16.455078125 m 0
 312.162109375 16.455078125 405.900390625 12.5400390625 407.538085938 12.5400390625 c 0
 418.576171875 12.5400390625 427.538085938 21.501953125 427.538085938 32.5400390625 c 0
 427.538085938 43.3359375 418.965820312 52.1455078125 408.26171875 52.52734375 c 0
 364.960775198 54.0703738655 318.136551646 55.7078132469 273.461997298 56.2792027215 c 1
 346.679836698 283.501422671 373.668172188 481.540908662 442.411132812 710.399414062 c 0
 443.031230357 712.463783128 443.318028564 714.470150876 443.318028564 716.392101815 c 0
 443.318028564 727.756828741 433.290131957 736.169922713 422.84854924 736.169922713 c 0
 417.741910696 736.169922713 412.536323813 734.157620008 408.356445312 729.494140625 c 0
 359.779296875 675.294921875 311.865234375 635.84375 268.993164062 600.577148438 c 0
 256.809570312 590.5546875 245.032226562 580.869140625 233.765625 571.260742188 c 0
 228.914322023 567.123547784 226.750522197 561.665361589 226.750522197 556.284355054 c 0
 226.750522197 546.020829598 234.622487481 536.038085938 246.732421875 536.038085938 c 0
 253.493811869 536.038085938 253.493811869 536.038085938 294.377929688 569.672851562 c 0
 321.389648438 591.892578125 351.233398438 616.426757812 382.340820312 645.732421875 c 1
 327.366561073 443.40322733 298.389735457 260.503890438 231.452022717 56.4623883632 c 1
 180.171293369 56.1874843883 134.601966583 53.8417666117 104.556640625 47.41796875 c 0
 95.529296875 45.4873046875 88.751953125 37.458984375 88.751953125 27.859375 c 0
 88.751953125 16.5864650037 97.9847122448 7.85241049905 108.733046354 7.85241049905 c 0
 110.118123177 7.85241049905 111.52836766 7.99744833342 112.947265625 8.30078125 c 0
 140.459960938 14.18359375 190.594726562 16.455078125 243.862304688 16.455078125 c 0
EndSplineSet
EndChar

StartChar: two
Encoding: 50 50 18
Width: 500
Flags: HW
LayerCount: 2
Fore
SplineSet
393.764648438 23.4150390625 m 0
 410.262695312 23.4150390625 416.267578125 23.0888671875 417.403320312 23.0888671875 c 0
 428.44140625 23.0888671875 437.403320312 32.05078125 437.403320312 43.0888671875 c 0
 437.403320312 53.8828125 428.833984375 62.69140625 418.131835938 63.076171875 c 0
 412.474863697 63.2792320179 404.64251743 63.3905113186 394.538513337 63.3905113186 c 0
 352.405624898 63.3905113186 270.772621904 61.4555609586 142.658203125 56.171875 c 1
 344.789085898 316.96858431 377.877009092 359.659841423 429.432617188 433.80859375 c 0
 482.669921875 510.375976562 505.5234375 572.216796875 505.5234375 621.321289062 c 0
 505.5234375 692.827641233 457.145140676 728.772860526 397.172011408 728.772860526 c 0
 325.321361042 728.772860526 236.828444484 677.180057377 194.9453125 573.333984375 c 0
 193.949880285 570.866176629 193.487147567 568.349560789 193.487147567 565.890819856 c 0
 193.487147567 555.345755597 201.998589214 545.865234375 213.501953125 545.865234375 c 0
 221.900390625 545.865234375 229.096679688 551.052734375 232.05859375 558.396484375 c 0
 267.548828125 646.390625 342.78515625 689.0703125 397.26953125 689.0703125 c 0
 440.222988263 689.0703125 465.469375772 664.948272241 465.469375772 621.332958961 c 0
 465.469375772 581.504287085 444.416428593 525.420186701 396.569335938 456.60546875 c 0
 351.262186966 391.444285771 351.262186966 391.444285771 84.6328125 46.5517578125 c 0
 81.7516261476 42.8250784778 80.4539124935 38.6069820479 80.4539124935 34.4799382612 c 0
 80.4539124935 24.1206040628 88.630355403 14.3349609375 100.463867188 14.3349609375 c 0
 103.3984375 14.3349609375 301.360351562 23.4150390625 393.764648438 23.4150390625 c 0
EndSplineSet
EndChar

StartChar: three
Encoding: 51 51 19
Width: 500
Flags: HW
LayerCount: 2
Fore
SplineSet
82.5615234375 138.352539062 m 0
 82.5615234375 128.21622644 135.631800817 12.666015625 254.15234375 12.666015625 c 0
 379.391601562 12.666015625 506.95703125 139.705078125 506.95703125 259.229492188 c 0
 506.95703125 327.4375 460.797851562 402.111328125 371.51171875 425.077148438 c 1
 474.73828125 482.7890625 518.438476562 546.446289062 518.438476562 604.931640625 c 0
 518.438476562 674.949551738 455.387901966 723.04057583 385.293144793 723.04057583 c 0
 325.516029063 723.04057583 260.615853297 688.065161585 225.329101562 601.88671875 c 0
 224.306565455 599.389550431 223.831595631 596.839898239 223.831595631 594.349060834 c 0
 223.831595631 583.808566606 232.337043949 574.321289062 243.846679688 574.321289062 c 0
 252.208007812 574.321289062 259.377929688 579.463867188 262.364257812 586.755859375 c 0
 290.979264372 656.640608896 340.549606486 683.453845633 384.998415246 683.453845633 c 0
 434.952880605 683.453845633 478.438476562 649.586776003 478.438476562 604.931640625 c 0
 478.438476562 561.504882812 436.828125 493.75390625 291.493164062 430.16796875 c 0
 283.318108532 426.591407311 279.612749852 419.370966848 279.612749852 412.151413916 c 0
 279.612749852 401.99230872 286.949784319 391.834960938 299.494140625 391.834960938 c 0
 300.798828125 391.834960938 305.411132812 392.185546875 312.90234375 392.185546875 c 0
 418.971679688 392.185546875 466.95703125 319.732421875 466.95703125 259.229492188 c 0
 466.95703125 161.668945312 356.3515625 52.666015625 254.15234375 52.666015625 c 0
 204.79296875 52.666015625 156.220703125 77.037109375 120.396484375 147.40625 c 0
 116.586934602 154.889869216 109.723215043 158.260047102 102.877629435 158.260047102 c 0
 92.6995328995 158.260047102 82.5615234375 150.809901782 82.5615234375 138.352539062 c 0
EndSplineSet
EndChar

StartChar: four
Encoding: 52 52 20
Width: 500
Flags: HW
LayerCount: 2
Fore
SplineSet
491.396616503 469.112686313 m 1
 562.076836049 697.83783035 562.076836049 697.83783035 564.588867188 707.896484375 c 0
 564.997881531 709.533812374 565.192256133 711.165833482 565.192256133 712.766210117 c 0
 565.192256133 723.46582138 556.504030105 732.750976562 545.18359375 732.750976562 c 0
 535.819335938 732.750976562 527.94921875 726.301757812 525.778320312 717.60546875 c 0
 523.793298726 709.658033495 523.793298726 709.658033495 447.088571398 461.233451144 c 1
 346.142209033 442.10267649 293.086709075 434.153313185 239.418945312 433.762695312 c 1
 320.671875 545.739257812 354.018554688 591.694335938 409.717773438 659.005859375 c 0
 412.886616663 662.835550451 414.310313153 667.254661948 414.310313153 671.582189627 c 0
 414.310313153 681.924719894 406.178426683 691.744140625 394.302734375 691.744140625 c 0
 388.102539062 691.744140625 382.557617188 688.916992188 378.887695312 684.482421875 c 0
 326.424284805 621.080010897 326.424284805 621.080010897 184.635742188 426.41796875 c 0
 181.997748557 422.79618533 180.802772312 418.747353845 180.802772312 414.785060417 c 0
 180.802772312 404.745215482 188.474974054 395.260977767 199.784179688 394.6875 c 0
 211.849581795 394.075246813 223.448098388 393.763181865 234.907066706 393.763181865 c 0
 291.468070967 393.763181865 344.629163354 401.366237626 433.755338233 418.000620815 c 1
 393.199646421 286.330047884 348.820328208 140.552136967 321.887695312 44.6611328125 c 0
 321.376892577 42.8423506661 321.13534544 41.0234083439 321.13534544 39.2416413121 c 0
 321.13534544 28.5797688662 329.784367849 19.2490234375 341.145507812 19.2490234375 c 0
 350.30859375 19.2490234375 358.041015625 25.4248046875 360.403320312 33.8369140625 c 0
 388.510962146 133.912285118 436.075274678 289.761958652 478.225189338 426.447142145 c 1
 498.967726024 430.437117137 510.250976562 432.607530918 510.250976562 449.138671875 c 0
 510.250976562 459.989274239 501.682346313 468.528227248 491.396616503 469.112686313 c 1
EndSplineSet
EndChar

StartChar: five
Encoding: 53 53 21
Width: 500
Flags: HW
LayerCount: 2
Fore
SplineSet
317.291015625 709.21875 m 0
 292.83984375 709.21875 281.463867188 711.384765625 278.139648438 711.384765625 c 0
 268.602539062 711.384765625 260.615234375 704.694335938 258.619140625 695.754882812 c 0
 241.259765625 617.989257812 210.314453125 503.870117188 179.282226562 435.131835938 c 0
 178.030710689 432.359990458 177.463995778 429.578744898 177.463995778 426.900240522 c 0
 177.463995778 416.035706251 186.787993253 406.861543127 197.555468404 406.861543127 c 0
 200.54699583 406.861543127 203.649944574 407.56969218 206.6953125 409.146484375 c 0
 257.204110627 435.296351946 297.462787943 445.656784544 329.488900681 445.656784544 c 0
 431.94971141 445.656784544 450.146484375 339.613051113 450.146484375 305.3046875 c 0
 450.146484375 259.212890625 421.443359375 196.000976562 386.875 145.133789062 c 0
 346.895739039 86.3020791626 282.315373434 49.9525018472 230.087255777 49.9525018472 c 0
 191.266596399 49.9525018472 159.27031493 70.0349397573 149.2734375 115.89453125 c 0
 147.313476562 124.8828125 139.303710938 131.62109375 129.731445312 131.62109375 c 0
 116.460486048 131.62109375 110.687603614 122.922694004 110.687603614 110.319066376 c 0
 110.687603614 86.2532073696 131.73528796 47.9490532488 161.8203125 28.775390625 c 0
 181.608948496 16.1641902258 205.145324946 10.1170342875 230.273115245 10.1170342875 c 0
 295.311692271 10.1170342875 371.011727209 50.6291226634 419.982421875 122.690429688 c 0
 446.117845671 161.149556481 490.187099081 236.172173472 490.187099081 304.781289488 c 0
 490.187099081 311.547497759 489.758488618 318.251329353 488.841796875 324.8515625 c 0
 482.747070312 368.719726562 468.907226562 405.249023438 446.678710938 432.747070312 c 0
 422.230634006 462.991289012 384.196568143 485.530199655 330.39559845 485.530199655 c 0
 302.777861708 485.530199655 271.005399011 479.590986856 234.783203125 465.706054688 c 1
 258.34765625 529.75 279.383789062 607.94921875 293.763671875 669.903320312 c 1
 301.1032427 669.453692474 307.887681476 669.038079011 317.252030878 669.038079011 c 0
 335.914492045 669.038079011 364.823730007 670.688794483 428.794921875 677.010742188 c 0
 458.655273438 679.961914062 491.834960938 683.240234375 529.692382812 685.907226562 c 0
 540.067382812 686.638671875 548.268554688 695.297851562 548.268554688 705.857421875 c 0
 548.268554688 716.895507812 539.306640625 725.857421875 528.268554688 725.857421875 c 0
 503.9140625 725.857421875 372.096679688 709.21875 317.291015625 709.21875 c 0
EndSplineSet
EndChar

StartChar: six
Encoding: 54 54 22
Width: 500
Flags: HW
LayerCount: 2
Fore
SplineSet
113.8515625 159.676757812 m 0
 113.8515625 110.42593624 127.769456105 7.08984375 244.581054688 7.08984375 c 0
 394.146667032 7.08984375 485.100941146 155.201225973 485.100941146 275.932463844 c 0
 485.100941146 311.029507737 477.414507493 343.812689363 461.247070312 369.970703125 c 0
 453.544073643 382.434135261 424.398804027 425.87654572 356.388671145 425.87654572 c 0
 319.579716829 425.87654572 271.386186601 413.151081686 209.045898438 375.901367188 c 1
 228.600585938 420.37890625 252.482421875 464.765625 279.250976562 505.678710938 c 0
 338.275390625 595.893554688 410.524414062 667.493164062 475.068359375 689.96875 c 0
 482.8828125 692.689453125 488.497070312 700.125976562 488.497070312 708.862304688 c 0
 488.497070312 720.305163107 479.080022521 728.87528647 468.487980869 728.87528647 c 0
 466.326168781 728.87528647 464.115411267 728.518290269 461.92578125 727.755859375 c 0
 290.411351357 668.030891708 113.8515625 349.060902542 113.8515625 159.676757812 c 0
244.581054688 47.0908203125 m 0
 221.856445312 47.0908203125 153.852539062 48.2470703125 153.852539062 159.676757812 c 0
 153.852539062 203.196289062 164.786132812 256.021484375 183.748046875 311.327148438 c 1
 259.73828125 365.860351562 317.459960938 385.8671875 356.787109375 385.8671875 c 0
 417.458974107 385.8671875 445.240339615 337.105567805 445.240339615 276.581382989 c 0
 445.240339615 177.57407078 370.899025758 47.0908203125 244.581054688 47.0908203125 c 0
EndSplineSet
EndChar

StartChar: seven
Encoding: 55 55 23
Width: 500
Flags: HW
LayerCount: 2
Fore
SplineSet
321.44140625 703.211914062 m 0
 282.643554688 703.211914062 249.120117188 707.384765625 248.388671875 707.384765625 c 0
 237.350585938 707.384765625 228.388671875 698.422851562 228.388671875 687.384765625 c 0
 228.388671875 677.118164062 236.141601562 668.647460938 246.107421875 667.513671875 c 0
 273.152807673 664.436943973 297.717675884 663.183727673 321.123701936 663.183727673 c 0
 363.3318547 663.183727673 401.771567421 667.259063086 444.193359375 672.065429688 c 0
 469.969726562 674.985351562 495.461914062 677.86328125 522.4140625 679.494140625 c 1
 485.576171875 614.64453125 445.366210938 540.709960938 403.025390625 462.862304688 c 0
 327.995117188 324.913085938 246.267578125 174.671875 165.232421875 41.5732421875 c 0
 163.226115695 38.2781747565 162.312767369 34.7413437171 162.312767369 31.28724191 c 0
 162.312767369 20.8641250727 170.629665484 11.1943359375 182.328125 11.1943359375 c 0
 189.567382812 11.1943359375 195.913085938 15.048828125 199.423828125 20.8154296875 c 0
 335.920898438 245.0078125 468.609375 506.860351562 575.000976562 690.814453125 c 0
 576.847735099 694.007713199 577.690600333 697.405182883 577.690600333 700.722617632 c 0
 577.690600333 711.160283494 569.346872265 720.805664062 557.674804688 720.805664062 c 0
 483.45703125 720.805664062 402.84375 703.211914062 321.44140625 703.211914062 c 0
EndSplineSet
EndChar

StartChar: eight
Encoding: 56 56 24
Width: 500
Flags: HW
LayerCount: 2
Fore
SplineSet
416.47265625 218 m 0
 416.47265625 125.238399589 306.562701346 51.3890342858 229.785387421 51.3890342858 c 0
 188.575593253 51.3890342858 156.911132813 72.6646349196 156.911132812 123.7109375 c 0
 156.911132812 166.259765625 179.618164062 252.407226562 311.633789062 393.061523438 c 1
 388.458007812 326.555664062 416.47265625 266.608398438 416.47265625 218 c 0
221.004882812 564.223632812 m 0
 221.004882812 552.269134256 223.601193742 482.454645067 281.78125 419.715820312 c 1
 234.387695312 369.130859375 116.911132812 238.270507812 116.911132812 123.7109375 c 0
 116.911132812 53.0249470983 164.036136181 11.0983772065 230.135912088 11.0983772065 c 0
 265.047196061 11.0983772065 305.25155747 22.7939366958 346.6015625 48.125 c 0
 410.388671875 87.201171875 456.47265625 145.759765625 456.47265625 218 c 0
 456.47265625 282.30859375 420.125 351.541015625 339.392578125 421.922851562 c 1
 427.305664062 511.326171875 520.63671875 589.896484375 570.638671875 656.315429688 c 0
 573.411922701 659.999197824 574.662352707 664.13958101 574.662352707 668.189329601 c 0
 574.662352707 678.555659954 566.469156596 688.328125 554.651367188 688.328125 c 0
 548.119140625 688.328125 542.314453125 685.190429688 538.6640625 680.340820312 c 0
 532.552734375 672.223632812 525.556640625 663.728515625 517.813476562 654.891601562 c 1
 480.881132282 705.297566273 430.212610074 726.122420032 383.004213751 726.122420032 c 0
 349.321494388 726.122420032 317.400214391 715.521153372 293.486328125 697.499023438 c 0
 241.05078125 657.983398438 221.004882812 609.803710938 221.004882812 564.223632812 c 0
309.634765625 448.729492188 m 1
 302.919486169 456.296187531 260.803517897 506.058012648 260.803517897 563.943186723 c 0
 260.803517897 597.282697116 274.774615862 633.316959849 317.52734375 665.536132812 c 0
 333.580653208 677.634523052 357.536400873 686.13457101 383.73484718 686.13457101 c 0
 419.845925276 686.13457101 460.217897626 669.985363602 490.029296875 624.850585938 c 1
 442.70703125 575.84375 367.140625 507.315429688 309.634765625 448.729492188 c 1
EndSplineSet
EndChar

StartChar: nine
Encoding: 57 57 25
Width: 500
Flags: HW
LayerCount: 2
Fore
SplineSet
207.444335938 493.005859375 m 0
 207.444335938 436.729472098 231.903495802 384.378807718 282.102383353 384.378807718 c 0
 323.367169802 384.378807718 382.024975035 419.753544388 458.787109375 517.401367188 c 1
 392.863082654 342.330310734 320.742346557 147.707951919 320.742346557 48.5337043031 c 0
 320.742346557 37.8373905924 321.581285946 28.2513703207 323.357421875 19.919921875 c 0
 325.282226562 10.88671875 333.314453125 4.103515625 342.91796875 4.103515625 c 0
 353.956054688 4.103515625 362.91796875 13.0654296875 362.91796875 24.103515625 c 0
 362.91796875 28.693359375 360.70703125 32.7958984375 360.70703125 48.599609375 c 0
 360.70703125 191.499023438 546.609375 612.767578125 546.609375 649.759765625 c 0
 546.609375 656.258789062 543.502929688 662.038085938 538.6953125 665.692382812 c 0
 484.365285977 706.983767209 435.399330323 723.955962048 392.81516427 723.955962048 c 0
 276.201113326 723.955962048 207.444335938 596.680852423 207.444335938 493.005859375 c 0
499.598632812 644.607421875 m 1
 462.48472613 587.076392732 351.936362073 425.14453125 283.423828125 425.14453125 c 0
 259.645128923 425.14453125 247.677982917 453.830460804 247.677982917 492.09401306 c 0
 247.677982917 568.715109973 295.664225807 683.740863187 392.886046158 683.740863187 c 0
 423.546945203 683.740863187 459.104745083 672.300564605 499.598632812 644.607421875 c 1
EndSplineSet
EndChar

StartChar: colon
Encoding: 58 58 26
Width: 500
Flags: HW
LayerCount: 2
Fore
SplineSet
376.888671875 541.795898438 m 0
 403.747070312 541.795898438 419.528320312 567.357421875 419.528320312 586.26171875 c 0
 419.528320312 608.337890625 401.604492188 626.26171875 379.528320312 626.26171875 c 0
 363.938476562 626.26171875 350.419921875 617.32421875 343.821289062 604.297851562 c 0
 339.030555235 597.274923663 336.861290541 589.564551431 336.861290541 582.029703167 c 0
 336.861290541 561.24500308 353.367640575 541.795898438 376.888671875 541.795898438 c 0
278.471679688 113.73828125 m 0
 305.328125 113.73828125 321.111328125 139.297851562 321.111328125 158.204101562 c 0
 321.111328125 180.280273438 303.1875 198.204101562 281.111328125 198.204101562 c 0
 265.521484375 198.204101562 252.002929688 189.266601562 245.404296875 176.240234375 c 0
 240.613563048 169.217306475 238.444298353 161.506934244 238.444298353 153.97208598 c 0
 238.444298353 133.187385893 254.950648388 113.73828125 278.471679688 113.73828125 c 0
EndSplineSet
EndChar

StartChar: semicolon
Encoding: 59 59 27
Width: 500
Flags: HW
LayerCount: 2
Fore
SplineSet
176.78515625 41.744140625 m 0
 176.78515625 32.833984375 183.360351562 21.7333984375 197.544921875 21.7333984375 c 0
 246.438476562 21.7333984375 325.60546875 98.65625 341.424804688 228.42578125 c 0
 341.525687402 229.253682587 341.574773527 230.074584891 341.574773527 230.885483755 c 0
 341.574773527 241.778404508 332.717214474 250.866210938 321.572265625 250.866210938 c 0
 311.360351562 250.866210938 302.92578125 243.196289062 301.719726562 233.306640625 c 0
 290.028828857 137.396061991 231.513045507 61.744140625 196.78515625 61.744140625 c 0
 185.747070312 61.744140625 176.78515625 52.7822265625 176.78515625 41.744140625 c 0
376.888671875 541.795898438 m 0
 403.747070312 541.795898438 419.528320312 567.357421875 419.528320312 586.26171875 c 0
 419.528320312 608.337890625 401.604492188 626.26171875 379.528320312 626.26171875 c 0
 363.938476562 626.26171875 350.419921875 617.32421875 343.821289062 604.297851562 c 0
 339.030555235 597.274923663 336.861290541 589.564551431 336.861290541 582.029703167 c 0
 336.861290541 561.24500308 353.367640575 541.795898438 376.888671875 541.795898438 c 0
EndSplineSet
EndChar

StartChar: less
Encoding: 60 60 28
Width: 500
Flags: HW
LayerCount: 2
Fore
SplineSet
413.171875 198.161132812 m 0
 413.171875 230.288843684 372.282536883 202.823113073 252.709960938 355.73046875 c 1
 403.596063035 459.830764752 422.915162313 473.159520187 478.930664062 500.06640625 c 0
 486.686040265 503.791708291 490.186843121 510.795719488 490.186843121 517.788412942 c 0
 490.186843121 527.958911707 482.781193214 538.10546875 470.2890625 538.10546875 c 0
 446.205604849 538.10546875 308.056854339 443.134739569 261.049804688 410.272460938 c 0
 243.173828125 397.775390625 226.768554688 386.309570312 212.643554688 376.81640625 c 0
 205.994466969 372.348267412 203.410368871 367.523632208 203.410368871 362.427689079 c 0
 203.410368871 353.880522099 210.67986364 344.570121113 218.231445312 334.8984375 c 0
 250.134765625 294.046875 299.467773438 230.750976562 382.950195312 180.970703125 c 0
 386.204564306 179.030178506 389.684805919 178.145869413 393.083309557 178.145869413 c 0
 403.512464566 178.145869413 413.171875 186.473603646 413.171875 198.161132812 c 0
EndSplineSet
Substitution2: "leftarrowhead-1" leftarrowhead
EndChar

StartChar: equal
Encoding: 61 61 29
Width: 500
Flags: HW
LayerCount: 2
Fore
SplineSet
337.541992188 416.544921875 m 0
 389.1796875 416.544921875 450.865234375 412.345703125 452.010742188 412.345703125 c 0
 463.048828125 412.345703125 472.010742188 421.307617188 472.010742188 432.345703125 c 0
 472.010742188 443.012695312 463.641601562 451.740234375 453.1171875 452.315429688 c 0
 393.770507812 455.557617188 375.715820312 456.544921875 337.541992188 456.544921875 c 0
 300.025390625 456.544921875 260.009765625 454.821289062 224.978515625 448.859375 c 0
 215.544921875 447.25390625 208.352539062 439.032226562 208.352539062 429.143554688 c 0
 208.352539062 418.10546875 217.314453125 409.143554688 228.352539062 409.143554688 c 0
 233.548828125 409.143554688 263.16796875 416.544921875 337.541992188 416.544921875 c 0
306.099609375 275.283203125 m 0
 357.737304688 275.283203125 419.422851562 271.083984375 420.568359375 271.083984375 c 0
 431.606445312 271.083984375 440.568359375 280.045898438 440.568359375 291.083984375 c 0
 440.568359375 301.750976562 432.19921875 310.478515625 421.674804688 311.053710938 c 0
 362.328125 314.295898438 344.2734375 315.283203125 306.099609375 315.283203125 c 0
 268.583007812 315.283203125 228.567382812 313.559570312 193.536132812 307.59765625 c 0
 184.102539062 305.9921875 176.91015625 297.770507812 176.91015625 287.881835938 c 0
 176.91015625 276.84375 185.872070312 267.881835938 196.91015625 267.881835938 c 0
 202.106445312 267.881835938 231.725585938 275.283203125 306.099609375 275.283203125 c 0
EndSplineSet
Substitution2: "longequal-1" longequal
Substitution2: "rightequal-1" rightequal
Substitution2: "leftequal-1" leftequal
EndChar

StartChar: greater
Encoding: 62 62 30
Width: 500
Flags: HW
LayerCount: 2
Fore
SplineSet
174.26171875 203.381835938 m 0
 168.060317885 199.299901191 165.288904411 193.103951157 165.288904411 186.958041617 c 0
 165.288904411 176.741918083 172.946655896 166.6640625 185.237304688 166.6640625 c 0
 193.06353992 166.6640625 205.134078407 174.903815927 333.698242188 262.666015625 c 0
 374.543945312 290.547851562 415.989257812 318.838867188 459.380859375 347.669921875 c 0
 465.329673322 351.622134893 468.317908844 357.980769986 468.317908844 364.344079701 c 0
 468.317908844 370.564099739 465.462736895 376.788586243 459.7265625 380.774414062 c 0
 364.565429688 446.905273438 320.887695312 480.09765625 275.80859375 525.203125 c 0
 271.760429361 529.253493243 266.773687228 531.063637696 261.874301108 531.063637696 c 0
 251.576717719 531.063637696 241.665039063 523.06712679 241.665039062 511.067382812 c 0
 241.665039062 505.549804688 243.903320312 500.551757812 247.521484375 496.931640625 c 0
 290.966796875 453.461914062 333.458007812 420.407226562 412.86328125 364.708007812 c 1
 410.470703125 363.104492188 218.643554688 232.594726562 174.26171875 203.381835938 c 0
EndSplineSet
Substitution2: "rightarrowhead-1" rightarrowhead
EndChar

StartChar: question
Encoding: 63 63 31
Width: 500
Flags: HW
LayerCount: 2
Fore
SplineSet
347.405273438 651.087890625 m 0
 369.366122165 666.476692608 388.183011873 672.879977915 404.099305475 672.879977915 c 0
 454.449502666 672.879977915 475.772460938 608.800152373 475.772460938 562.387695312 c 0
 475.772460938 518.548828125 459.244140625 477.135742188 428.329101562 457.166992188 c 0
 339.224165671 399.611643012 274.041727878 301.336791814 274.041727878 258.107160715 c 0
 274.041727878 244.731849264 280.28159508 236.625976563 293.983398438 236.625976562 c 0
 304.344726562 236.625976562 312.875976562 244.522460938 313.883789062 254.620117188 c 0
 318.836914062 304.2578125 389.87890625 384.713867188 449.991210938 423.541992188 c 0
 495.158415319 452.717225997 515.881485587 507.832588697 515.881485587 562.20303753 c 0
 515.881485587 638.30882718 475.277968292 712.955078125 404.276367188 712.955078125 c 0
 357.6015625 712.955078125 292.728515625 680.151367188 212.443359375 558.732421875 c 0
 210.159833414 555.278674998 209.12435398 551.512015975 209.12435398 547.83191683 c 0
 209.12435398 537.431095477 217.395348117 527.721679687 229.138671875 527.721679688 c 0
 236.110351562 527.721679688 242.252929688 531.295898438 245.833984375 536.7109375 c 0
 284.09375 594.57421875 318.583984375 630.891601562 347.405273438 651.087890625 c 0
256.03515625 49.38671875 m 0
 283.336914062 49.38671875 299.135742188 75.8984375 299.135742188 94.5029296875 c 0
 299.135742188 116.580078125 281.211914062 134.50390625 259.134765625 134.50390625 c 0
 243.559570312 134.50390625 230.051757812 125.58203125 223.446289062 112.576171875 c 0
 218.324491421 105.393988091 216.00986381 97.4285634703 216.00986381 89.6415378911 c 0
 216.00986381 68.8800603226 232.463217885 49.38671875 256.03515625 49.38671875 c 0
EndSplineSet
EndChar

StartChar: at
Encoding: 64 64 32
Width: 500
Flags: HW
LayerCount: 2
Fore
SplineSet
383.89453125 452.54296875 m 1
 356.693714741 338.57847995 313.424282163 283.376953125 298.978515625 283.376953125 c 0
 298.73828125 283.376953125 289.365234375 286.232421875 289.365234375 305.436523438 c 0
 289.365234375 356.533203125 348.400390625 445.495117188 383.89453125 452.54296875 c 1
426.981445312 464.354492188 m 0
 426.682617188 480.522460938 404.752929688 492.840820312 386.528320312 492.840820312 c 0
 324.302734375 492.840820312 249.365234375 374.381835938 249.365234375 305.436523438 c 0
 249.365234375 261.975585938 278.231445312 243.376953125 298.978515625 243.376953125 c 0
 321.259765625 243.376953125 351.965820312 260.830078125 384.990234375 331.452148438 c 1
 385.305664062 282.48828125 388.397460938 231.364257812 424.095703125 231.364257812 c 0
 490.27459832 231.364257812 526.612801128 475.173046206 526.823242188 477.834960938 c 0
 528.404214166 497.836172287 529.968018468 520.387421506 529.968018468 543.057918171 c 0
 529.968018468 613.412738406 514.907218186 684.916015625 438.559570312 684.916015625 c 0
 272.739036582 684.916015625 136.010447862 390.610869954 136.010447862 206.449113163 c 0
 136.010447862 165.639188829 142.724612893 130.237942351 157.32421875 104.646484375 c 0
 175.120952288 73.4513591615 203.946547252 56.7057587001 238.181596913 56.7057587001 c 0
 279.897713836 56.7057587001 329.645749679 81.5695042549 377.258789062 135.451171875 c 0
 380.720648878 139.368782249 382.272635969 143.983643429 382.272635969 148.507407679 c 0
 382.272635969 158.833818178 374.185645213 168.685546875 362.268554688 168.685546875 c 0
 356.302734375 168.685546875 350.944335938 166.068359375 347.278320312 161.919921875 c 0
 315.50091837 125.959162515 272.7927021 96.4898957635 237.932032862 96.4898957635 c 0
 219.554751125 96.4898957635 203.358315563 104.679453261 192.09375 124.424804688 c 0
 183.394175523 139.67309933 176.006717559 164.801823752 176.006717559 204.007014931 c 0
 176.006717559 229.702510021 179.18009588 261.444733858 187.237304688 300.415039062 c 0
 227.740234375 496.315429688 344.145507812 644.916015625 438.559570312 644.916015625 c 0
 458.091796875 644.916015625 489.897460938 642.145507812 489.897460938 543.696289062 c 0
 489.897460938 416.676413944 440.298251181 299.599396996 428.352539062 280.321289062 c 1
 425.781983658 293.922987183 424.9870122 314.513310706 424.9870122 337.747700136 c 0
 424.9870122 375.419413811 427.076884554 420.042018852 427.076884554 453.097344441 c 0
 427.076884554 457.023232003 427.047405565 460.785955669 426.981445312 464.354492188 c 0
EndSplineSet
EndChar

StartChar: A
Encoding: 65 65 33
Width: 500
Flags: HW
LayerCount: 2
Fore
SplineSet
421.364257812 243.1171875 m 1
 421.364257812 108.740234375 414.672851562 36.8212890625 414.672851562 34.736328125 c 0
 414.672851562 23.6982421875 423.634765625 14.736328125 434.672851562 14.736328125 c 0
 445.208984375 14.736328125 453.852539062 22.900390625 454.618164062 33.2431640625 c 0
 459.826171875 103.649414062 461.364257812 172.885742188 461.364257812 243.1171875 c 0
 461.364257812 345.911132812 458.06640625 451.048828125 458.06640625 565.663085938 c 0
 458.06640625 639.805664062 459.497070312 684.708984375 459.497070312 687.51171875 c 0
 459.497070312 699.818257227 449.412420682 707.4572421 439.19994031 707.4572421 c 0
 432.98900812 707.4572421 426.730794955 704.631797764 422.665039062 698.3125 c 0
 320.657971696 539.770412807 258.46748592 430.565876197 193.932432257 303.65319847 c 0
 183.760960981 285.530983524 124.44734958 163.359023842 64.9609375 39.162109375 c 0
 63.6143862876 36.3508738019 62.9938907874 33.4364239908 62.9938907874 30.5907611605 c 0
 62.9938907874 20.0982995411 71.4296957935 10.541015625 83.009765625 10.541015625 c 0
 90.9619140625 10.541015625 97.8359375 15.1923828125 101.05859375 21.919921875 c 0
 148.279338662 120.507748686 186.223925168 199.720858665 222.809804275 272.209576959 c 1
 262.204637637 267.27921036 314.388502981 262.779738977 367.013373449 262.779738977 c 0
 385.232982674 262.779738977 403.505453422 263.319072643 421.318347349 264.566584313 c 1
 421.348208352 257.400125914 421.364257812 250.251116489 421.364257812 243.1171875 c 1
418.30078125 616.965820312 m 1
 418.255393965 612.139354818 418.219648399 608.338185804 418.219648399 602.568342098 c 0
 418.219648399 581.177308867 418.710960662 532.727422529 421.023756739 304.655144052 c 1
 408.651502358 303.730280787 390.684762536 302.782226562 367.078125 302.782226562 c 0
 317.036369638 302.782226562 271.040797625 306.98130512 242.192143567 310.214932989 c 1
 293.419602661 409.563266922 344.737443873 500.013915056 418.30078125 616.965820312 c 1
EndSplineSet
EndChar

StartChar: B
Encoding: 66 66 34
Width: 500
Flags: HW
LayerCount: 2
Fore
SplineSet
278.609375 671.782226562 m 1
 307.814392606 680.385909327 332.522938333 684.168037078 353.262647829 684.168037078 c 0
 423.070583641 684.168037078 447.914261191 641.319060938 447.914261191 595.258082077 c 0
 447.914261191 573.307887899 442.272349416 550.628259202 433.166015625 531.508789062 c 0
 401.5234375 465.075195312 316.024414062 435.294921875 221.172851562 409.045898438 c 1
 252.584960938 559.0625 260.998046875 599.237304688 278.609375 671.782226562 c 1
407.0078125 343.625976562 m 0
 421.756627417 326.130078418 429.595991856 300.435194645 429.595991856 271.488128902 c 0
 429.595991856 179.893851123 351.107055317 55.7382214255 164.669086532 55.7382214255 c 0
 155.292921693 55.7382214255 145.643733061 56.0522348096 135.717773438 56.7001953125 c 1
 167.202148438 162.266601562 190.373046875 263.869140625 211.676757812 364.005859375 c 1
 252.564495123 371.498505339 285.186477184 374.661460302 311.334562676 374.661460302 c 0
 366.239900714 374.661460302 392.601220954 360.715694902 407.0078125 343.625976562 c 0
469.30078125 514.344726562 m 0
 481.348136143 539.639021519 487.815810053 567.623938242 487.815810053 594.689039217 c 0
 487.815810053 662.216679654 447.554123679 724.018407867 353.238813564 724.018407867 c 0
 325.517313128 724.018407867 293.126059948 718.679287751 255.71484375 706.577148438 c 0
 249.174804688 704.4609375 244.103515625 699.064453125 242.447265625 692.331054688 c 0
 222.499023438 611.264648438 205.861328125 531.498046875 189.215820312 451.71484375 c 0
 161.389648438 318.337890625 133.5390625 184.94921875 90.33203125 44.90625 c 0
 89.7244591296 42.9367895251 89.4376476974 40.9557435951 89.4376476974 39.0140011488 c 0
 89.4376476974 29.1708459164 96.8078919022 20.337679268 107.125976562 19.1435546875 c 0
 126.886995143 16.8555698076 145.825676689 15.7693091061 163.945365002 15.7693091061 c 0
 369.131732342 15.7693091061 469.297166491 155.062416767 469.297166491 265.985347267 c 0
 469.297166491 270.129756238 469.157336472 274.234560704 468.877929688 278.291015625 c 0
 464.71875 338.669921875 442.385742188 398.346679688 352.96875 411.782226562 c 1
 399.131835938 432.920898438 445.172851562 463.688476562 469.30078125 514.344726562 c 0
EndSplineSet
EndChar

StartChar: C
Encoding: 67 67 35
Width: 500
Flags: HW
LayerCount: 2
Fore
SplineSet
124.42578125 299.489257812 m 0
 117.296854602 270.738922318 113.879860281 241.521624595 113.879860281 213.202147617 c 0
 113.879860281 101.491910056 167.049014414 3.751953125 255.284179688 3.751953125 c 0
 322.8515625 3.751953125 399.223632812 59.84765625 482.454101562 188.7578125 c 0
 484.655189101 192.16667886 485.654384166 195.866431359 485.654384166 199.480610448 c 0
 485.654384166 209.887546187 477.36968604 219.584960938 465.639648438 219.584960938 c 0
 458.58984375 219.584960938 452.387695312 215.9296875 448.825195312 210.412109375 c 0
 367.416992188 84.326171875 299.390625 43.751953125 255.284179688 43.751953125 c 0
 192.818415421 43.751953125 154.01961658 123.23494986 154.01961658 213.685604577 c 0
 154.01961658 238.716069155 156.990821954 264.586435103 163.25390625 289.844726562 c 0
 238.381197061 592.821572039 365.762594235 679.892476172 443.961047466 679.892476172 c 0
 477.231228513 679.892476172 501.598570479 664.13135685 509.250976562 642.53125 c 0
 512.000976562 634.76953125 519.41015625 629.204101562 528.109375 629.204101562 c 0
 539.147460938 629.204101562 548.109375 638.166015625 548.109375 649.204101562 c 0
 548.109375 665.974609375 517.305664062 719.979492188 443.45703125 719.979492188 c 0
 340.090820312 719.979492188 202.305664062 613.564453125 124.42578125 299.489257812 c 0
EndSplineSet
EndChar

StartChar: D
Encoding: 68 68 36
Width: 500
Flags: HW
LayerCount: 2
Fore
SplineSet
439.591796875 634.927734375 m 0
 457.438912762 604.821550361 466.719422193 558.828714032 466.719422193 505.628034302 c 0
 466.719422193 330.235856498 365.850380374 76.5022618982 138.53125 55.412109375 c 1
 197.521449817 254.693019649 239.2792119 498.743118361 279.713867188 665.405273438 c 1
 306.55802876 676.217279764 332.355172097 682.625391001 355.79471559 682.625391001 c 0
 390.179728002 682.625391001 419.491211183 668.835205298 439.591796875 634.927734375 c 0
92.0537109375 39.884765625 m 0
 91.4464050939 37.9123678778 91.1604628209 35.9334173014 91.1604628209 33.9967309225 c 0
 91.1604628209 23.3603427595 99.7852447893 13.9987555682 111.167092456 13.9987555682 c 0
 111.242784031 13.9987555682 111.318597538 13.999169586 111.39453125 14 c 0
 382.370492733 16.9673908337 506.878782231 301.094961983 506.878782231 504.30484593 c 0
 506.878782231 565.108398439 495.731563592 618.66739595 474.025390625 655.282226562 c 0
 457.615978944 682.964142636 422.473418977 722.480315239 355.572697507 722.480315239 c 0
 327.747509197 722.480315239 294.428557197 715.644512915 254.678710938 698.278320312 c 0
 249.033203125 695.811523438 244.7421875 690.8125 243.24609375 684.720703125 c 0
 223.418945312 603.977539062 206.881835938 524.530273438 190.337890625 445.067382812 c 0
 162.6796875 312.221679688 134.998046875 179.3671875 92.0537109375 39.884765625 c 0
EndSplineSet
EndChar

StartChar: E
Encoding: 69 69 37
Width: 500
Flags: HW
LayerCount: 2
Fore
SplineSet
156.016601562 55.2001953125 m 1
 169.119331632 134.632003706 203.145435812 361.837519921 203.626206764 364.934137142 c 1
 219.701103109 363.283664646 238.800479173 362.641108685 258.437334612 362.641108685 c 0
 299.88233326 362.641108685 343.721541559 365.503383509 366.573242188 367.79296875 c 0
 376.66796875 368.803710938 384.559570312 377.333984375 384.559570312 387.692382812 c 0
 384.559570312 398.73046875 375.59765625 407.692382812 364.559570312 407.692382812 c 0
 363.385346268 407.692382812 306.856263075 402.59436246 255.206361582 402.59436246 c 0
 238.9814495 402.59436246 223.238011264 403.097431133 209.843202694 404.419628908 c 1
 223.958834337 492.714025387 239.713223007 581.460870578 260.510742188 675.068359375 c 1
 280.580078125 681.186523438 313.017578125 682.623046875 359.560546875 682.623046875 c 0
 360.219726562 682.623046875 423.749023438 682.337890625 425.52734375 682.337890625 c 0
 459.159179688 682.337890625 492.666015625 682.9453125 522.129882812 686.311523438 c 0
 532.090820312 687.44921875 539.838867188 695.91796875 539.838867188 706.181640625 c 0
 539.838867188 717.219726562 530.876953125 726.181640625 519.838867188 726.181640625 c 0
 518.89453125 726.181640625 493.877929688 722.337890625 425.52734375 722.337890625 c 0
 424.123046875 722.337890625 360.219726562 722.623046875 359.560546875 722.623046875 c 0
 286.302873223 722.623046875 229.36132553 718.916291052 223.728515625 693.90234375 c 0
 203.603487586 604.543720446 187.064673241 525.913371449 147.087890625 258.84375 c 0
 120.168945312 79.0166015625 112.173828125 36.1142578125 112.173828125 33.8369140625 c 0
 112.173828125 22.798828125 121.135742188 13.8369140625 132.173828125 13.8369140625 c 0
 132.486328125 13.8369140625 146.275390625 15.2646484375 163.350585938 15.2646484375 c 0
 199.0390625 15.2646484375 238.09765625 10.431640625 282.874023438 10.431640625 c 0
 323.188476562 10.431640625 368.415039062 14.4052734375 419.783203125 29.291015625 c 0
 428.115234375 31.705078125 434.213867188 39.3984375 434.213867188 48.50390625 c 0
 434.213867188 59.5419921875 425.251953125 68.50390625 414.213867188 68.50390625 c 0
 404.634765625 68.50390625 364.3828125 50.431640625 282.874023438 50.431640625 c 0
 239.012079505 50.431640625 201.419841117 55.2660605965 163.521336079 55.2660605965 c 0
 161.021719125 55.2660605965 158.520769869 55.2450302155 156.016601562 55.2001953125 c 1
EndSplineSet
EndChar

StartChar: F
Encoding: 70 70 38
Width: 500
Flags: HW
LayerCount: 2
Fore
SplineSet
364.559570312 407.692382812 m 0
 363.385346268 407.692382812 306.856263075 402.59436246 255.206361582 402.59436246 c 0
 238.979000613 402.59436246 223.233258841 403.097583005 209.837137667 404.420227657 c 1
 223.90904643 492.500837033 239.630295069 581.086837513 260.510742188 675.068359375 c 1
 280.580078125 681.186523438 313.017578125 682.623046875 359.560546875 682.623046875 c 0
 360.219726562 682.623046875 423.749023438 682.337890625 425.52734375 682.337890625 c 0
 459.159179688 682.337890625 492.666015625 682.9453125 522.129882812 686.311523438 c 0
 532.090820312 687.44921875 539.838867188 695.91796875 539.838867188 706.181640625 c 0
 539.838867188 717.219726562 530.876953125 726.181640625 519.838867188 726.181640625 c 0
 518.89453125 726.181640625 493.877929688 722.337890625 425.52734375 722.337890625 c 0
 424.123046875 722.337890625 360.219726562 722.623046875 359.560546875 722.623046875 c 0
 286.302873223 722.623046875 229.36132553 718.916291052 223.728515625 693.90234375 c 0
 203.603487586 604.543720446 187.064673241 525.913371449 147.087890625 258.84375 c 0
 120.168945312 79.0166015625 112.173828125 36.1142578125 112.173828125 33.8369140625 c 0
 112.173828125 22.798828125 121.135742188 13.8369140625 132.173828125 13.8369140625 c 0
 142.072265625 13.8369140625 150.30078125 21.04296875 151.89453125 30.4912109375 c 0
 171.775962935 148.35126767 186.852296501 256.812956859 203.624849953 364.934276454 c 1
 219.700028375 363.283700803 238.799926684 362.641108685 258.437334612 362.641108685 c 0
 299.88233326 362.641108685 343.721541559 365.503383509 366.573242188 367.79296875 c 0
 376.66796875 368.803710938 384.559570312 377.333984375 384.559570312 387.692382812 c 0
 384.559570312 398.73046875 375.59765625 407.692382812 364.559570312 407.692382812 c 0
EndSplineSet
EndChar

StartChar: G
Encoding: 71 71 39
Width: 500
Flags: HW
LayerCount: 2
Fore
SplineSet
125.149414062 193.747070312 m 0
 125.149414062 97.9641422987 175.724159781 8.33669320457 249.718243465 8.33669320457 c 0
 252.204999908 8.33669320457 254.718207659 8.43792420929 257.256835938 8.6435546875 c 0
 322.610351562 13.9384765625 473.409179688 60.275390625 500.46484375 371.184570312 c 0
 500.517086578 371.784565907 500.542657815 372.379210322 500.542657815 372.967526145 c 0
 500.542657815 384.086136573 491.409273922 392.944337552 480.570166052 392.944337552 c 0
 479.332264453 392.944337552 478.072114703 392.828797994 476.80078125 392.587890625 c 0
 447.129882812 386.96484375 368.423828125 384.740234375 321.512695312 379.104492188 c 0
 311.607421875 377.915039062 303.918945312 369.471679688 303.918945312 359.248046875 c 0
 303.918945312 348.105249701 313.003681555 339.245713973 323.898905634 339.245713973 c 0
 324.698868341 339.245713973 325.508591338 339.29347549 326.325195312 339.391601562 c 0
 359.716796875 343.403320312 426.522460938 346.57421875 458.103515625 349.750976562 c 1
 447.150712622 254.537386383 406.192229526 60.8406618687 253.989257812 48.5126953125 c 0
 252.597075684 48.3999005513 251.217355393 48.3443497263 249.850386824 48.3443497263 c 0
 198.504097769 48.3443497263 165.149414062 126.721880706 165.149414062 193.747070312 c 0
 165.149414062 365.314356384 311.761146047 678.853688166 471.525390625 683.611328125 c 0
 472.15096385 683.629959586 472.840130875 683.641592046 473.58583246 683.641592046 c 0
 486.950078717 683.641592046 518.472526027 679.905389708 527.518554688 645.76171875 c 0
 529.78515625 637.205078125 537.587890625 630.890625 546.853515625 630.890625 c 0
 559.882802862 630.890625 566.087201394 639.298442314 566.087201394 651.051220066 c 0
 566.087201394 678.333797529 532.653117092 723.641601562 473.546875 723.641601562 c 0
 284.405273438 723.641601562 125.149414062 383.999023438 125.149414062 193.747070312 c 0
EndSplineSet
EndChar

StartChar: H
Encoding: 72 72 40
Width: 500
Flags: HW
LayerCount: 2
Fore
SplineSet
540.465820312 699.3046875 m 0
 540.643446416 700.398513432 540.729181355 701.483215642 540.729181355 702.551608211 c 0
 540.729181355 713.377796422 531.925845477 722.529296875 520.724609375 722.529296875 c 0
 510.784179688 722.529296875 502.52734375 715.26171875 500.983398438 705.75390625 c 0
 483.701531011 599.329037461 466.792883105 502.035155076 449.352705662 411.118145617 c 1
 432.056910083 411.574774535 417.637915987 411.829350009 399.396004393 411.829350009 c 0
 365.498791315 411.829350009 318.401326336 410.950319689 215.11657093 408.855264824 c 1
 236.661354881 509.304125561 259.339358169 602.361767507 285.03125 703.540039062 c 0
 285.453150346 705.20175462 285.653515501 706.858765696 285.653515501 708.483413725 c 0
 285.653515501 719.178273098 276.970835852 728.470703125 265.64453125 728.470703125 c 0
 256.307617188 728.470703125 248.456054688 722.05859375 246.2578125 713.401367188 c 0
 188.734897714 486.864860629 149.940537289 312.90198873 107.522460938 45.0537109375 c 0
 107.353273837 43.9857388163 107.271550539 42.926758794 107.271550539 41.8834338003 c 0
 107.271550539 31.0510560455 116.081111375 21.90625 127.275390625 21.90625 c 0
 137.243164062 21.90625 145.516601562 29.2138671875 147.028320312 38.7587890625 c 0
 167.173596374 165.963673018 186.517903522 271.571761788 206.655185055 368.729974954 c 1
 243.097477753 369.592122352 332.397122788 371.609375 391.560546875 371.609375 c 0
 412.248576513 371.609375 429.155423647 371.41619309 441.579703496 371.203062861 c 1
 418.433129091 254.148359047 394.138097234 147.398843621 366.642578125 44.7080078125 c 0
 366.175958423 42.9651448902 365.954847007 41.2247090742 365.954847007 39.5190976733 c 0
 365.954847007 28.8418377026 374.619887941 19.529296875 385.96484375 19.529296875 c 0
 395.211914062 19.529296875 403.001953125 25.8193359375 405.287109375 34.3505859375 c 0
 457.311523438 228.65234375 497.821289062 436.692382812 540.465820312 699.3046875 c 0
EndSplineSet
EndChar

StartChar: I
Encoding: 73 73 41
Width: 500
Flags: HW
LayerCount: 2
Fore
SplineSet
179.596679688 57.1552734375 m 0
 112.313853237 57.1552734375 101.729492188 46.6496376339 101.729492188 31.3466796875 c 0
 101.729492188 20.30859375 110.69140625 11.3466796875 121.729492188 11.3466796875 c 0
 128.418945312 11.3466796875 135.456054688 17.1552734375 179.596679688 17.1552734375 c 0
 229.657200289 17.1552734375 298.05071526 10.5572876751 366.722708142 10.5572876751 c 0
 389.551351045 10.5572876751 412.410768492 11.2864299209 434.637695312 13.2294921875 c 0
 444.8515625 14.123046875 452.875976562 22.708984375 452.875976562 33.1533203125 c 0
 452.875976562 44.19140625 443.9140625 53.1533203125 432.875976562 53.1533203125 c 0
 432.21484375 53.1533203125 406.21484375 50.560546875 366.783203125 50.560546875 c 0
 342.838227378 50.560546875 318.786235412 51.393128128 295.413521392 52.4666315445 c 1
 325.312431083 176.433818722 375.205360096 536.174567593 401.364558993 684.377335568 c 1
 417.757667176 684.911613623 433.9899526 685.249023438 449.484375 685.249023438 c 0
 501.490234375 685.249023438 525.500976562 680.6796875 526.270507812 680.6796875 c 0
 537.30859375 680.6796875 546.270507812 689.641601562 546.270507812 700.6796875 c 0
 546.270507812 710.595703125 539.038085938 718.836914062 529.564453125 720.409179688 c 0
 508.110928552 723.9703968 479.830512811 725.238913805 449.031348845 725.238913805 c 0
 372.737836215 725.238913805 280.98885691 717.455078125 239.268554688 717.455078125 c 0
 231.19921875 717.455078125 225.334960938 717.887695312 225.194335938 717.887695312 c 0
 214.15625 717.887695312 205.194335938 708.92578125 205.194335938 697.887695312 c 0
 205.194335938 687.392578125 213.295898438 678.774414062 223.581054688 677.952148438 c 0
 227.768299679 677.617234971 233.008725565 677.47002842 239.136044598 677.47002842 c 0
 266.686217122 677.47002842 312.166334662 680.446041215 360.46092424 682.716603804 c 1
 334.173304233 531.154535152 282.30092868 162.955151317 254.692637189 54.5082816146 c 1
 227.475042378 55.9138740666 201.96586676 57.1552734375 179.596679688 57.1552734375 c 0
EndSplineSet
EndChar

StartChar: J
Encoding: 74 74 42
Width: 500
Flags: HW
LayerCount: 2
Fore
SplineSet
167.892578125 202.25 m 0
 167.892578125 225.435546875 171.880859375 238.771484375 171.880859375 243.421875 c 0
 171.880859375 254.459960938 162.918945312 263.421875 151.880859375 263.421875 c 0
 142.150390625 263.421875 134.034179688 256.458007812 132.247070312 247.247070312 c 0
 129.276967574 231.937155354 127.873670777 216.830589641 127.873670777 202.121130113 c 0
 127.873670777 100.606238483 194.710465368 18.0048828125 274.638671875 18.0048828125 c 0
 346.866210938 18.0048828125 416.936523438 83.3486328125 460.313476562 228.159179688 c 0
 487.560546875 319.120117188 533.944335938 518.747070312 550.19921875 699.774414062 c 0
 550.254239932 700.387237946 550.281192735 700.995474572 550.281192735 701.597934744 c 0
 550.281192735 712.543885461 541.383974507 721.583007812 530.280273438 721.583007812 c 0
 519.8515625 721.583007812 511.276367188 713.583984375 510.361328125 703.391601562 c 0
 494.477539062 526.508789062 448.341796875 327.618164062 421.989257812 239.639648438 c 0
 380.1171875 99.8583984375 319.072265625 58.0048828125 274.638671875 58.0048828125 c 0
 217.45703125 58.0048828125 167.892578125 123.44140625 167.892578125 202.25 c 0
EndSplineSet
EndChar

StartChar: K
Encoding: 75 75 43
Width: 500
Flags: HW
LayerCount: 2
Fore
SplineSet
549.619140625 712.444335938 m 0
 550.968099346 715.257759272 551.589668034 718.1747648 551.589668034 721.022883211 c 0
 551.589668034 731.515006712 543.154381604 741.072265625 531.57421875 741.072265625 c 0
 523.625 741.072265625 516.752929688 736.424804688 513.529296875 729.700195312 c 0
 435.784591133 567.548770475 373.147126368 503.307119923 244.794920671 411.789442948 c 1
 270.31897357 521.170261039 297.017039982 626.88613267 327.484375 713.123046875 c 0
 328.267537151 715.339467736 328.633980317 717.579183091 328.633980317 719.769097551 c 0
 328.633980317 730.35617292 320.069434576 739.779296875 308.62109375 739.779296875 c 0
 299.916015625 739.779296875 292.502929688 734.206054688 289.7578125 726.435546875 c 0
 222.15625 535.095703125 171.438476562 243.9765625 114.8984375 40.04296875 c 0
 114.399803114 38.2445358217 114.163879935 36.4467501103 114.163879935 34.6855467055 c 0
 114.163879935 24.019026161 122.81748614 14.6943359375 134.173828125 14.6943359375 c 0
 143.360351562 14.6943359375 151.108398438 20.9013671875 153.44921875 29.345703125 c 0
 180.382607748 126.490843741 205.301935594 239.527175749 230.948652957 351.749855702 c 1
 254.719518316 362.683267557 276.815873185 368.238329353 296.478630695 368.238329353 c 0
 351.714001605 368.238329353 387.745251751 324.40195801 387.745251751 232.811941327 c 0
 387.745251751 183.441693633 377.276047648 120.19619438 353.702148438 42.4619140625 c 0
 353.112004453 40.5158811917 352.833891283 38.5642112556 352.833891283 36.6537340407 c 0
 352.833891283 26.0164854337 361.455661614 16.65625 372.844726562 16.65625 c 0
 381.864257812 16.65625 389.498046875 22.6396484375 391.987304688 30.8505859375 c 0
 411.976534917 96.7631661149 427.741230725 169.053203266 427.741230725 233.115977998 c 0
 427.741230725 279.392557399 419.515081099 321.37608272 398.712890625 353.561523438 c 0
 376.672851562 387.663085938 343.231445312 404.9296875 306.85546875 407.634765625 c 1
 415.01171875 489.224609375 476.908203125 560.7890625 549.619140625 712.444335938 c 0
EndSplineSet
EndChar

StartChar: L
Encoding: 76 76 44
Width: 500
Flags: HW
LayerCount: 2
Fore
SplineSet
422.958007812 43.798828125 m 0
 422.958007812 54.9097173563 413.909699071 63.8005851673 402.973062995 63.8005851673 c 0
 402.333401746 63.8005851673 401.687280834 63.7701709451 401.036132812 63.7080078125 c 0
 321.807617188 56.140625 211.055664062 60.853515625 138.890625 52.32421875 c 1
 194.803710938 254.083007812 257.158203125 577.943359375 294.064453125 681.77734375 c 0
 294.855910534 684.004452449 295.226133191 686.255754075 295.226133191 688.456922412 c 0
 295.226133191 699.042563892 286.663825286 708.46875 275.212890625 708.46875 c 0
 266.521484375 708.46875 259.1171875 702.912109375 256.361328125 695.16015625 c 0
 214.936523438 578.611328125 151.676757812 237.647460938 91.841796875 33.1484375 c 0
 91.2834870202 31.240291517 91.0216614183 29.3431588151 91.0216614183 27.49446253 c 0
 91.0216614183 16.6751752053 99.989303831 7.51485652891 110.977370899 7.51485652891 c 0
 112.420479514 7.51485652891 113.898437752 7.67285977799 115.395507812 8.005859375 c 0
 178.092773438 21.951171875 314.942382812 15.30078125 404.879882812 23.8896484375 c 0
 415.017578125 24.8583984375 422.958007812 33.408203125 422.958007812 43.798828125 c 0
EndSplineSet
EndChar

StartChar: M
Encoding: 77 77 45
Width: 500
Flags: HW
LayerCount: 2
Fore
SplineSet
104.778320312 46.984375 m 0
 104.487095618 45.5931749284 104.34773956 44.2108613752 104.34773956 42.8529274794 c 0
 104.34773956 32.0984082059 113.088527825 22.873046875 124.354492188 22.873046875 c 0
 133.983398438 22.873046875 142.032226562 29.6923828125 143.930664062 38.76171875 c 0
 157.592773438 104.033203125 169.569335938 163.580078125 180.98046875 220.31640625 c 0
 206.109375 345.2578125 228.477539062 456.470703125 260.138671875 585.693359375 c 1
 261.175406953 562.781186795 261.175406953 562.781186795 269.5234375 185.49609375 c 0
 269.793876067 173.280412742 279.780831655 166.034345901 289.814537275 166.034345901 c 0
 296.62872966 166.034345901 303.464483993 169.376360999 307.29296875 176.7734375 c 0
 337.62323825 235.376787408 337.62323825 235.376787408 466.315429688 537.165039062 c 1
 436.538085938 379.149414062 406.369140625 201.102539062 382.877929688 49.7314453125 c 0
 382.715436009 48.6842919052 382.636896216 47.6460105505 382.636896216 46.622862118 c 0
 382.636896216 35.7846517625 391.449974194 26.64453125 402.640625 26.64453125 c 0
 412.62890625 26.64453125 420.91796875 33.982421875 422.403320312 43.5576171875 c 0
 487.001953125 459.802734375 539.65234375 697.016601562 539.65234375 703.721679688 c 0
 539.65234375 716.168088891 529.517526951 723.632222296 519.336978147 723.632222296 c 0
 512.537861434 723.632222296 505.718346945 720.303006051 501.883789062 712.905273438 c 0
 460.156146615 632.404049894 361.67530443 387.963591968 307.90625 270.270507812 c 1
 304.252929688 484.452148438 302.435546875 590.96484375 292.145507812 714.822265625 c 0
 291.161763991 726.66385925 281.59244653 732.972146759 272.044943081 732.972146759 c 0
 263.793125444 732.972146759 255.557602836 728.259866909 252.895507812 718.334960938 c 0
 202.70703125 531.236328125 174.435546875 390.66796875 141.765625 228.234375 c 0
 130.353515625 171.497070312 118.401367188 112.071289062 104.778320312 46.984375 c 0
EndSplineSet
EndChar

StartChar: N
Encoding: 78 78 46
Width: 500
Flags: HW
LayerCount: 2
Fore
SplineSet
108.411132812 39.7353515625 m 0
 108.120106322 38.3444660263 107.980843647 36.962498393 107.980843647 35.6049207667 c 0
 107.980843647 24.8495314905 116.72177391 15.625 127.987304688 15.625 c 0
 137.6171875 15.625 145.666015625 22.4453125 147.563476562 31.5146484375 c 0
 165.859144646 118.960749478 223.125648683 425.16198864 266.297851562 599.439453125 c 1
 272.534179688 564.208984375 279.471679688 526.805664062 286.606445312 488.32421875 c 0
 316.29296875 328.22265625 349.283203125 148.78515625 349.55078125 35.55859375 c 0
 349.580456901 23.0406053322 359.721137398 15.7245251404 369.86463292 15.7245251404 c 0
 377.078781464 15.7245251404 384.2943539 19.4251352803 387.875 27.5869140625 c 0
 460.521509849 193.169652804 536.012695312 697.449792452 536.012695312 704.377929688 c 0
 536.012695312 715.416015625 527.05078125 724.377929688 516.012695312 724.377929688 c 0
 506.108398438 724.377929688 497.875 717.162109375 496.2890625 707.705078125 c 0
 444.769772046 400.72874477 424.862907978 282.114220263 383.479492188 137.499023438 c 1
 365.926757812 309.44140625 311.89453125 553.475585938 290.390625 699.137695312 c 0
 288.748448704 710.258451797 279.622464503 716.039105996 270.504160819 716.039105996 c 0
 262.216449678 716.039105996 253.935083536 711.263614263 251.28515625 701.381835938 c 0
 204.764648438 527.876953125 178.951171875 395.64453125 150.1171875 247.946289062 c 0
 137.473632812 183.180664062 124.243164062 115.41015625 108.411132812 39.7353515625 c 0
EndSplineSet
EndChar

StartChar: O
Encoding: 79 79 47
Width: 500
Flags: HW
LayerCount: 2
Fore
SplineSet
430.822265625 727.670898438 m 0
 253.20703125 727.670898438 117.143554688 384.75390625 117.143554688 183.42578125 c 0
 117.143554688 134.841796875 127.700195312 95.9462890625 146.76953125 67.099609375 c 0
 170.821289062 30.7138671875 207.890625 12.3291015625 247.239257812 12.3291015625 c 0
 440.609375 12.3291015625 534.856445312 379.487304688 534.856445312 563.532226562 c 0
 534.856445312 664.060546875 489.232421875 727.670898438 430.822265625 727.670898438 c 0
247.239257812 52.3291015625 m 0
 229.30654098 52.3291015625 157.143554688 59.9975312246 157.143554688 183.42578125 c 0
 157.143554688 374.62109375 288.243164062 687.670898438 430.822265625 687.670898438 c 0
 470.538085938 687.670898438 494.856445312 627.415039062 494.856445312 563.532226562 c 0
 494.856445312 384.623046875 402.252929688 52.3291015625 247.239257812 52.3291015625 c 0
EndSplineSet
EndChar

StartChar: P
Encoding: 80 80 48
Width: 500
Flags: HW
LayerCount: 2
Fore
SplineSet
224.780273438 357.405273438 m 1
 242.368910016 355.065196197 259.762689534 353.902084783 276.787314503 353.902084783 c 0
 412.806173665 353.902084783 525.260904832 428.146615427 525.260904832 569.570014959 c 0
 525.260904832 575.55292637 525.059643506 581.656068456 524.650390625 587.87890625 c 0
 519.191831745 670.879245941 452.072934414 721.827893252 361.208134921 721.827893252 c 0
 335.890225375 721.827893252 308.728773911 717.872433219 280.543945312 709.552734375 c 0
 273.860351562 707.579101562 268.62890625 702.206054688 266.857421875 695.439453125 c 0
 243.146484375 604.858398438 224.477539062 527.084960938 206.487304688 452.142578125 c 0
 175.610351562 323.515625 146.755859375 203.307617188 97.630859375 39.841796875 c 0
 97.0507431957 37.911323747 96.7772429757 35.9759419077 96.7772429757 34.0812424116 c 0
 96.7772429757 23.4411261373 105.402454382 14.083984375 116.788085938 14.083984375 c 0
 125.825195312 14.083984375 133.470703125 20.0908203125 135.9453125 28.326171875 c 0
 174.375 156.203125 200.536132812 258.008789062 224.780273438 357.405273438 c 1
302.64453125 674.131835938 m 1
 322.5219144 679.150400495 342.351326511 681.711270038 361.219530331 681.711270038 c 0
 426.584344742 681.711270038 480.413445824 650.977601592 484.73828125 585.220703125 c 0
 485.09498114 579.796469694 485.269816523 574.502425658 485.269816523 569.33674695 c 0
 485.269816523 443.68113874 381.817956994 393.980590144 276.087238831 393.980590144 c 0
 262.107940385 393.980590144 248.088805018 394.849409669 234.263671875 396.526367188 c 1
 283.15234375 599.23046875 283.15234375 599.23046875 302.64453125 674.131835938 c 1
EndSplineSet
EndChar

StartChar: Q
Encoding: 81 81 49
Width: 500
Flags: HW
LayerCount: 2
Fore
SplineSet
423.01171875 -17.6357421875 m 0
 423.01171875 -21.0683583993 431.721082274 -52.3924402663 431.721082274 -80.8952423407 c 0
 431.721082274 -94.3884726704 429.769246958 -107.249432511 424.017578125 -116.219726562 c 0
 419.3125 -123.557617188 413.557617188 -126.594726562 403.42578125 -126.594726562 c 0
 367.038998802 -126.594726562 295.875289641 -74.3534488508 265.66474756 11.5012717406 c 1
 443.790130545 38.38507553 530.788085938 382.753057072 530.788085938 559.012695312 c 0
 530.788085938 659.172851562 485.177734375 722.604492188 426.78515625 722.604492188 c 0
 249.272460938 722.604492188 113.211914062 380.990234375 113.211914062 180.3515625 c 0
 113.211914062 147.240150616 120.445374446 28.0812428792 223.550310253 11.4007343126 c 1
 252.219353373 -85.6172997535 336.814720866 -166.594726562 403.42578125 -166.594726562 c 0
 423.103968006 -166.594726562 471.755364871 -157.141511134 471.755364871 -80.1290730138 c 0
 471.755364871 -61.7973361099 468.998720135 -39.6376150663 462.438476562 -12.8662109375 c 0
 460.296875 -4.1279296875 452.40625 2.3642578125 443.01171875 2.3642578125 c 0
 431.973632812 2.3642578125 423.01171875 -6.59765625 423.01171875 -17.6357421875 c 0
214.571510351 54.811502859 m 1
 195.717395469 61.8784959098 153.211914062 88.0459344475 153.211914062 180.3515625 c 0
 153.211914062 370.736328125 284.215820312 682.604492188 426.78515625 682.604492188 c 0
 466.52734375 682.604492188 490.788085938 622.571289062 490.788085938 559.012695312 c 0
 490.788085938 385.690341663 403.181177648 67.487572101 255.611111812 50.534957981 c 1
 253.771597033 61.7236813549 252.783203125 73.1602303041 252.783203125 84.7568359375 c 0
 252.783203125 118.359375 260.903320312 153.689453125 280.920898438 189.3984375 c 0
 282.676183917 192.529493517 283.47855482 195.844291963 283.47855482 199.08073513 c 0
 283.47855482 209.527146591 275.119186584 219.157226563 263.462890625 219.157226562 c 0
 255.966796875 219.157226562 249.428710938 215.024414062 246.004882812 208.916015625 c 0
 222.6796875 167.307617188 212.783203125 125.013671875 212.783203125 84.7568359375 c 0
 212.783203125 74.6107745303 213.400483589 64.6186616511 214.571510351 54.811502859 c 1
EndSplineSet
EndChar

StartChar: R
Encoding: 82 82 50
Width: 500
Flags: HW
LayerCount: 2
Fore
SplineSet
514.028320312 589.940429688 m 0
 514.028320312 668.723576997 455.430709327 724.744845951 366.490580873 724.744845951 c 0
 344.711338914 724.744845951 321.112640671 721.385591071 296.109375 714.178710938 c 0
 289.372070312 712.237304688 284.090820312 706.845703125 282.3046875 700.044921875 c 0
 258.27734375 608.540039062 239.359375 529.973632812 221.12890625 454.265625 c 0
 189.83984375 324.331054688 160.599609375 202.896484375 110.819335938 37.763671875 c 0
 110.235675629 35.8278553207 109.960548426 33.8868808499 109.960548426 31.9867656863 c 0
 109.960548426 21.348059539 118.585393703 11.990234375 129.971679688 11.990234375 c 0
 139.002929688 11.990234375 146.64453125 17.9892578125 149.124023438 26.216796875 c 0
 188.603515625 157.1796875 215.3046875 261.072265625 240.159179688 362.805664062 c 0
 241.919921875 362.86328125 243.654296875 362.892578125 245.362304688 362.892578125 c 0
 349.908621616 362.892578125 379.022423168 251.838626452 379.022423168 160.344826131 c 0
 379.022423168 105.01424185 368.374961235 56.8371708804 357.32421875 44.701171875 c 0
 353.72508961 40.7478321884 352.112935689 36.0437372752 352.112935689 31.430139914 c 0
 352.112935689 21.1107621337 360.178488654 11.244140625 372.115234375 11.244140625 c 0
 403.45703125 11.244140625 419.254882812 93.5615234375 419.254882812 159.681640625 c 0
 419.254882812 210.009765625 409.961914062 336.784179688 320.016601562 385.115234375 c 1
 380.600585938 405.88671875 514.028320312 465.731445312 514.028320312 589.940429688 c 0
318.049804688 678.61328125 m 1
 335.074068966 682.720574619 351.329635461 684.707402422 366.480505045 684.707402422 c 0
 429.946592901 684.707402422 474.028320312 649.84409656 474.028320312 589.940429688 c 0
 474.028320312 555.82421875 460.583007812 526.640625 437.159179688 500.96875 c 0
 395.806640625 455.6484375 322.958007812 423.567382812 250.958007812 407.291015625 c 1
 290.766601562 572.102539062 297.21484375 598.801757812 318.049804688 678.61328125 c 1
EndSplineSet
EndChar

StartChar: S
Encoding: 83 83 51
Width: 500
Flags: HW
LayerCount: 2
Fore
SplineSet
529.379882812 656.458984375 m 0
 529.379882812 670.743057392 488.458475823 724.30078125 421.198242188 724.30078125 c 0
 320.62541781 724.30078125 216.914982252 615.056676206 216.914982252 517.652534904 c 0
 216.914982252 468.924485616 242.870259107 423.15958594 308.158203125 395.517578125 c 0
 405.130859375 354.4609375 435.365234375 300.682617188 435.365234375 250.450195312 c 0
 435.365234375 155.408339227 319.968157547 51.7705793582 233.405533038 51.7705793582 c 0
 185.341407534 51.7705793582 146.167102 83.722669762 140.573242188 166.83984375 c 0
 139.873046875 177.245117188 131.200195312 185.479492188 120.619140625 185.479492188 c 0
 109.540110859 185.479492188 100.618807098 176.47035573 100.618807098 165.490666034 c 0
 100.618807098 165.036693794 100.634058395 164.57935282 100.665039062 164.119140625 c 0
 107.991779026 55.2473015956 163.737297771 12.6658760897 230.090713376 12.6658760897 c 0
 338.555381164 12.6658760897 475.365234375 126.446997584 475.365234375 250.450195312 c 0
 475.365234375 320.45703125 429.676757812 387.512695312 323.724609375 432.37109375 c 0
 275.619271542 452.737427478 256.708486496 485.044899573 256.708486496 519.820218744 c 0
 256.708486496 596.120359964 347.745497942 684.30078125 421.198242188 684.30078125 c 0
 447.854492188 684.30078125 472.483398438 673.790039062 493.079101562 644.875 c 0
 497.20354447 639.083815456 503.180587799 636.499004272 509.098338988 636.499004272 c 0
 519.327693867 636.499004272 529.379882812 644.222464464 529.379882812 656.458984375 c 0
EndSplineSet
EndChar

StartChar: T
Encoding: 84 84 52
Width: 500
Flags: HW
LayerCount: 2
Fore
SplineSet
449.484375 685.249023438 m 0
 501.490234375 685.249023438 525.500976562 680.6796875 526.270507812 680.6796875 c 0
 537.30859375 680.6796875 546.270507812 689.641601562 546.270507812 700.6796875 c 0
 546.270507812 710.595703125 539.038085938 718.836914062 529.564453125 720.409179688 c 0
 508.110928552 723.9703968 479.830512811 725.238913805 449.031348845 725.238913805 c 0
 372.737836215 725.238913805 280.98885691 717.455078125 239.268554688 717.455078125 c 0
 231.19921875 717.455078125 225.334960938 717.887695312 225.194335938 717.887695312 c 0
 214.15625 717.887695312 205.194335938 708.92578125 205.194335938 697.887695312 c 0
 205.194335938 687.392578125 213.295898438 678.774414062 223.581054688 677.952148438 c 0
 227.768299679 677.617234971 233.008725565 677.47002842 239.136044598 677.47002842 c 0
 266.686217122 677.47002842 312.166334662 680.446041215 360.46092424 682.716603804 c 1
 359.347043496 676.294490665 272.779493441 110.943102394 250.71484375 40.22265625 c 0
 250.092702607 38.2283685239 249.799888463 36.2259144918 249.799888463 34.266175563 c 0
 249.799888463 23.6382556132 258.411653266 14.2666015625 269.811523438 14.2666015625 c 0
 278.775390625 14.2666015625 286.370117188 20.1767578125 288.908203125 28.310546875 c 0
 317.521596844 120.022319857 373.199547458 524.810802739 401.364558993 684.377335568 c 1
 417.757667176 684.911613623 433.9899526 685.249023438 449.484375 685.249023438 c 0
EndSplineSet
EndChar

StartChar: U
Encoding: 85 85 53
Width: 500
Flags: HW
LayerCount: 2
Fore
SplineSet
263.173828125 59.208984375 m 0
 189.809570312 59.208984375 180.807617188 179.6796875 180.807617188 238.831054688 c 0
 180.807617188 346.42578125 207.515625 502.432617188 271.1796875 706.833984375 c 0
 271.799975051 708.82543388 272.091937422 710.824910896 272.091937422 712.781771815 c 0
 272.091937422 723.410078371 263.479320954 732.78125 252.080078125 732.78125 c 0
 243.112304688 732.78125 235.515625 726.866210938 232.98046875 718.728515625 c 0
 192.824869086 589.802520134 140.585639539 392.470341219 140.585639539 238.387338737 c 0
 140.585639539 183.675498225 147.17206752 134.416601569 163.224609375 95.609375 c 0
 176.224221746 64.1834252832 204.978279032 19.2073369351 263.076899271 19.2073369351 c 0
 264.195946161 19.2073369351 265.325879658 19.2240227189 266.466796875 19.2578125 c 0
 422.23828125 23.8720703125 488.235351562 218.752929688 576.89453125 703.04296875 c 0
 577.119082732 704.269470309 577.227045713 705.486509274 577.227045713 706.683748434 c 0
 577.227045713 717.477607753 568.451653302 726.662109375 557.221679688 726.662109375 c 0
 547.418945312 726.662109375 539.25390625 719.594726562 537.548828125 710.28125 c 0
 448.48828125 223.796875 384.073242188 59.208984375 263.173828125 59.208984375 c 0
EndSplineSet
EndChar

StartChar: V
Encoding: 86 86 54
Width: 500
Flags: HW
LayerCount: 2
Fore
SplineSet
267.04296875 695.06640625 m 0
 267.04296875 710.280273438 254.939453125 715.874023438 247.05859375 715.874023438 c 0
 236.291015625 715.874023438 227.499023438 707.345703125 227.07421875 696.681640625 c 0
 222.6953125 586.646484375 211.348632812 296.22265625 203.188476562 30.90234375 c 0
 203.181333769 30.6701359852 203.17779512 30.439521687 203.17779512 30.210520648 c 0
 203.17779512 17.9704811734 213.287259856 10.339316046 223.504895372 10.339316046 c 0
 229.823053317 10.339316046 236.182572175 13.2572200186 240.21875 19.8076171875 c 0
 403.651367188 285.053710938 447.986328125 457.72265625 568.624023438 692.59375 c 0
 570.140996659 695.547143396 570.83751184 698.635173308 570.83751184 701.650064729 c 0
 570.83751184 712.122196883 562.434064878 721.711914062 550.821289062 721.711914062 c 0
 543.06640625 721.711914062 536.3359375 717.2890625 533.018554688 710.830078125 c 0
 421.53515625 493.779296875 375.905273438 333.010742188 245.615234375 106.944335938 c 1
 251.171875 278.2890625 258.49609375 480.319335938 267.04296875 695.06640625 c 0
EndSplineSet
EndChar

StartChar: W
Encoding: 87 87 55
Width: 500
Flags: HW
LayerCount: 2
Fore
SplineSet
256.048828125 710.364257812 m 0
 256.108967697 711.004754885 256.138401794 711.640347289 256.138401794 712.269673079 c 0
 256.138401794 723.208437419 247.245649851 732.25390625 236.13671875 732.25390625 c 0
 225.735351562 732.25390625 217.178710938 724.296875 216.224609375 714.143554688 c 0
 207.895323313 625.443228727 126.308281922 344.974644327 126.308281922 70.1710717077 c 0
 126.308281922 57.031728614 126.494801207 43.9053365223 126.884765625 30.8134765625 c 0
 127.247134381 18.6465141754 137.189919785 11.5155464648 147.165121103 11.5155464648 c 0
 154.125945974 11.5155464648 161.102555546 14.987920868 164.850585938 22.64453125 c 0
 215.981024855 127.09431835 215.981024855 127.09431835 319.678710938 395.38671875 c 1
 304.469555086 273.078581391 292.88226981 161.755637276 292.88226981 40.9402527522 c 0
 292.88226981 36.3181939733 292.899229119 31.6822419292 292.93359375 27.03125 c 0
 293.02414464 14.7359880894 303.085970097 7.25156270977 313.234328864 7.25156270977 c 0
 319.721886223 7.25156270977 326.244806989 10.3102090206 330.220703125 17.1259765625 c 0
 426.587890625 182.325195312 550.143554688 579.196289062 586.922851562 707.284179688 c 0
 587.455339738 709.138992149 587.706899793 710.995339851 587.706899793 712.813370881 c 0
 587.706899793 723.468573985 579.065928515 732.807617188 567.696289062 732.807617188 c 0
 558.573242188 732.807617188 550.869140625 726.686523438 548.469726562 718.331054688 c 0
 517.18359375 609.373046875 419.276367188 296.634765625 334.247070312 112.725585938 c 1
 338.498046875 225.893554688 346.979492188 292.561523438 377.840820312 535.154296875 c 0
 377.964269268 536.12450134 378.023727032 537.069737676 378.023727032 537.988679953 c 0
 378.023727032 550.053071119 367.775637128 557.585440642 357.537824068 557.585440642 c 0
 350.597991805 557.585440642 343.66288173 554.124332457 339.927734375 546.267578125 c 0
 280.521484375 421.303710938 244.0234375 293.158203125 167.264648438 122.024414062 c 1
 176.4296875 375.518554688 247.763671875 622.141601562 256.048828125 710.364257812 c 0
EndSplineSet
EndChar

StartChar: X
Encoding: 88 88 56
Width: 500
Flags: HW
LayerCount: 2
Fore
SplineSet
99.1484375 38.24609375 m 0
 98.3558254114 36.0176292021 97.9850770171 33.7648263641 97.9850770171 31.5621872082 c 0
 97.9850770171 20.9772574054 106.546945108 11.55078125 117.998046875 11.55078125 c 0
 126.688476562 11.55078125 134.091796875 17.10546875 136.84765625 24.85546875 c 0
 187.972584457 168.601881379 249.808092926 253.676144988 314.616532448 332.029503818 c 1
 345.080287758 246.120752529 373.654202534 154.65682599 378.2265625 33.1669921875 c 0
 378.627929688 22.4814453125 387.4296875 13.9306640625 398.211914062 13.9306640625 c 0
 409.264558926 13.9306640625 418.211744596 22.9094167112 418.211744596 33.9258154418 c 0
 418.211744596 34.1809249678 418.206946593 34.4371271986 418.197265625 34.6943359375 c 0
 412.98157129 173.291026637 378.279083735 273.080568179 344.310096336 367.430327884 c 1
 417.050259158 453.465063369 492.006038712 540.935950029 558.595703125 700.889648438 c 0
 559.648870156 703.419516218 560.137666412 706.006135347 560.137666412 708.532881707 c 0
 560.137666412 719.068124198 551.640118041 728.5625 540.123046875 728.5625 c 0
 531.802734375 728.5625 524.662109375 723.470703125 521.650390625 716.235351562 c 0
 462.391822493 573.892497524 395.376016011 489.767009305 328.819659811 410.63964663 c 1
 299.665808942 493.135145393 274.699258872 575.385323715 274.699258872 680.333335539 c 0
 274.699258872 687.809988187 274.825972847 695.401840281 275.086914062 703.1171875 c 0
 275.086914062 717.561523438 263.65234375 723.803710938 255.098632812 723.803710938 c 0
 244.290039062 723.803710938 235.47265625 715.2109375 235.110351562 704.490234375 c 0
 234.829945524 696.199747984 234.693920738 688.050940918 234.693920738 680.034565191 c 0
 234.693920738 558.86458233 265.771845849 467.95152047 299.069204974 375.358081889 c 1
 226.880456991 289.453199404 156.694509896 200.047870303 99.1484375 38.24609375 c 0
EndSplineSet
EndChar

StartChar: Y
Encoding: 89 89 57
Width: 500
Flags: HW
LayerCount: 2
Fore
SplineSet
227.434570312 38.794921875 m 0
 227.009252509 37.1268644806 226.807299382 35.463356474 226.807299382 33.832407149 c 0
 226.807299382 23.1392673299 235.488506912 13.845703125 246.81640625 13.845703125 c 0
 256.146484375 13.845703125 263.993164062 20.2490234375 266.198242188 28.896484375 c 0
 275.879882812 66.869140625 285.99609375 103.962890625 296.045898438 140.809570312 c 0
 316.37240455 215.337542309 336.444137402 288.87545792 351.925777394 366.470487683 c 1
 436.153319933 469.642760509 459.837645928 511.310117106 565.388671875 697.00390625 c 0
 567.184574227 700.162988667 568.004929912 703.514733905 568.004929912 706.787328879 c 0
 568.004929912 717.229706437 559.652430436 726.866210938 547.989257812 726.866210938 c 0
 536.140631343 726.866210938 536.140631343 726.866210938 506.79296875 674.434570312 c 0
 462.405273438 595.1328125 417.084960938 514.149414062 342.106445312 418.244140625 c 1
 316.791015625 513.41796875 291.755859375 634.825195312 280.828125 704.166992188 c 0
 279.322265625 713.719726562 271.044921875 721.034179688 261.072265625 721.034179688 c 0
 249.877551433 721.034179688 241.068013412 711.890326679 241.068013412 701.056275555 c 0
 241.068013412 700.017976364 241.148926058 698.964153271 241.31640625 697.901367188 c 0
 253.8910581 618.111268613 283.785460946 475.164430592 312.70709811 374.374490974 c 1
 297.572768024 298.513318708 277.78369304 225.901227886 257.450195312 151.345703125 c 0
 247.400390625 114.5 237.22265625 77.1845703125 227.434570312 38.794921875 c 0
EndSplineSet
EndChar

StartChar: Z
Encoding: 90 90 58
Width: 500
Flags: HW
LayerCount: 2
Fore
SplineSet
176.153320312 22.5166015625 m 0
 225.638958075 22.5166015625 293.314394673 15.9861827192 361.260347377 15.9861827192 c 0
 383.850817208 15.9861827192 406.471190156 16.7080616699 428.462890625 18.6318359375 c 0
 438.676757812 19.525390625 446.700195312 28.1103515625 446.700195312 38.5546875 c 0
 446.700195312 49.5927734375 437.73828125 58.5546875 426.700195312 58.5546875 c 0
 426.045898438 58.5546875 400.305664062 55.98828125 361.321289062 55.98828125 c 0
 295.152005597 55.98828125 227.079005893 62.517646114 175.424885041 62.517646114 c 0
 169.254008448 62.517646114 163.317461521 62.4244592467 157.646484375 62.2158203125 c 1
 536.219726562 688.981445312 l 2
 538.190654284 692.244161806 539.096864354 695.769493445 539.096864354 699.222706118 c 0
 539.096864354 708.550741784 532.484410902 717.352538198 522.383789062 719.030273438 c 0
 501.149326271 722.556897602 473.162576798 723.81301861 442.686111592 723.81301861 c 0
 367.207401187 723.81301861 276.457619013 716.108398438 235.188476562 716.108398438 c 0
 227.221679688 716.108398438 221.399414062 716.537109375 221.259765625 716.537109375 c 0
 210.221679688 716.537109375 201.259765625 707.575195312 201.259765625 696.537109375 c 0
 201.259765625 686.041992188 209.360351562 677.424804688 219.64453125 676.6015625 c 0
 223.811372134 676.267950744 229.020429251 676.121371817 235.106627952 676.121371817 c 0
 279.211569396 676.121371817 369.379481865 683.818944253 442.789523342 683.818944253 c 0
 457.994859467 683.818944253 472.481243496 683.488700283 485.690429688 682.69140625 c 1
 101.778320312 47.0859375 l 2
 99.7973449685 43.8061641804 98.8951703659 40.2908320253 98.8951703659 36.8578948035 c 0
 98.8951703659 26.432284808 107.215907904 16.7666015625 118.91015625 16.7666015625 c 0
 125.580078125 16.7666015625 132.509765625 22.5166015625 176.153320312 22.5166015625 c 0
EndSplineSet
EndChar

StartChar: bracketleft
Encoding: 91 91 59
Width: 500
Flags: HW
LayerCount: 2
Fore
SplineSet
317.571289062 687.80859375 m 1
 370.295284438 685.430031514 408.500675844 684.178653364 436.160698045 684.178653364 c 0
 501.620377569 684.178653364 508.018554688 691.187253267 508.018554688 706.850585938 c 0
 508.018554688 717.888671875 499.056640625 726.850585938 488.018554688 726.850585938 c 0
 487.446289062 726.850585938 468.729492188 724.311523438 430.833984375 724.311523438 c 0
 380.361328125 724.311523438 309.607421875 728.44140625 303.827148438 728.44140625 c 0
 295.248046875 728.44140625 287.923828125 723.028320312 285.0859375 715.434570312 c 0
 199.7734375 487.163085938 201.323242188 271.267578125 128.4296875 36.5595703125 c 0
 127.812796517 34.5731571091 127.522392643 32.5789883093 127.522392643 30.6272749147 c 0
 127.522392643 19.9979804584 136.135883515 10.6279296875 147.534179688 10.6279296875 c 0
 147.862304688 10.6279296875 162.383789062 11.9453125 180.295898438 11.9453125 c 0
 210.35546875 11.9453125 240.71875 8.9970703125 279.65234375 8.9970703125 c 0
 307.8984375 8.9970703125 340.62890625 10.564453125 380.752929688 15.8623046875 c 0
 390.545898438 17.1552734375 398.114257812 25.5458984375 398.114257812 35.689453125 c 0
 398.114257812 46.7275390625 389.15234375 55.689453125 378.114257812 55.689453125 c 0
 373.134765625 55.689453125 335.521484375 48.9970703125 279.65234375 48.9970703125 c 0
 242.934164086 48.9970703125 210.948935057 51.9436883879 180.057130365 51.9436883879 c 0
 178.301705855 51.9436883879 176.549812091 51.9341735454 174.80078125 51.9140625 c 1
 239.2890625 274.698242188 242.029296875 477.453125 317.571289062 687.80859375 c 1
EndSplineSet
EndChar

StartChar: backslash
Encoding: 92 92 60
Width: 500
Flags: HW
LayerCount: 2
Fore
SplineSet
419.995117188 24.6513671875 m 0
 431.412587903 24.6513671875 440.007451951 34.0424248057 440.007451951 44.6555773319 c 0
 440.007451951 46.6967012116 439.689553122 48.7830267998 439.012695312 50.8564453125 c 0
 425.096679688 93.4775390625 408.387695312 140.725585938 390.786132812 190.506835938 c 0
 331.366210938 358.556640625 262.09375 556.319335938 255.7734375 694.649414062 c 0
 255.2890625 705.2578125 246.522460938 713.72265625 235.794921875 713.72265625 c 0
 224.736678514 713.72265625 215.795051484 704.737892472 215.795051484 693.729067074 c 0
 215.795051484 693.419559172 215.802119183 693.108451399 215.81640625 692.795898438 c 0
 222.600585938 544.30078125 293.57421875 345.42578125 353.061523438 177.184570312 c 0
 370.661132812 127.409179688 387.284179688 80.388671875 400.977539062 38.4462890625 c 0
 403.591796875 30.44140625 411.122070312 24.6513671875 419.995117188 24.6513671875 c 0
EndSplineSet
EndChar

StartChar: bracketright
Encoding: 93 93 61
Width: 500
Flags: HW
LayerCount: 2
Fore
SplineSet
349.030273438 49.44921875 m 1
 334.557647838 48.1066610942 320.366271617 47.6074729867 306.231116832 47.6074729867 c 0
 265.228899223 47.6074729867 224.699740802 51.8077485692 179.151309521 51.8077485692 c 0
 164.74430022 51.8077485692 149.83513148 51.3875267385 134.25 50.28125 c 0
 123.879882812 49.544921875 115.68359375 40.888671875 115.68359375 30.33203125 c 0
 115.68359375 19.2939453125 124.645507812 10.33203125 135.68359375 10.33203125 c 0
 136.116210938 10.33203125 154.751953125 11.7939453125 178.94140625 11.7939453125 c 0
 222.999941748 11.7939453125 264.027829645 7.62304489644 306.4004856 7.62304489644 c 0
 325.581716743 7.62304489644 345.038516004 8.47774037176 365.176757812 10.9609375 c 0
 372.100585938 11.814453125 377.93359375 16.2119140625 380.801757812 22.2802734375 c 0
 436.259765625 139.607421875 518.396484375 618.150390625 544.864257812 698.97265625 c 0
 545.542898467 701.045018707 545.862539687 703.136207749 545.862539687 705.185411899 c 0
 545.862539687 714.94320511 538.61491747 723.749022739 528.369140625 725.037109375 c 0
 503.772983826 728.130310134 480.724674381 729.294642567 457.048394352 729.294642567 c 0
 428.587244929 729.294642567 399.218656934 727.61214312 365.163085938 725.575195312 c 0
 336.815429688 723.879882812 306.278320312 722.055664062 271.501953125 721.119140625 c 0
 260.715820312 720.829101562 252.048828125 711.982421875 252.048828125 701.126953125 c 0
 252.048828125 690.088867188 261.010742188 681.126953125 272.048828125 681.126953125 c 0
 315.088627339 681.126953125 391.190761774 689.16675073 456.981519065 689.16675073 c 0
 472.079823832 689.16675073 486.635074275 688.743330386 500.123046875 687.702148438 c 1
 471.969726562 578.056640625 396.182617188 165.186523438 349.030273438 49.44921875 c 1
EndSplineSet
EndChar

StartChar: asciicircum
Encoding: 94 94 62
Width: 500
Flags: HW
LayerCount: 2
Fore
SplineSet
465.064453125 523.282226562 m 0
 476.167448341 523.282226562 485.065770322 532.321211294 485.065770322 543.267054336 c 0
 485.065770322 543.867354525 485.039006592 544.473390024 484.984375 545.083984375 c 0
 477.166015625 632.466796875 447.4296875 657.08203125 439.309570312 723.180664062 c 0
 437.985543223 733.960285484 428.785450266 740.713087389 419.292367934 740.713087389 c 0
 414.340712963 740.713087389 409.309343345 738.875828886 405.274414062 734.814453125 c 0
 347.56640625 676.727539062 299.51953125 605.370117188 259.52734375 557.09375 c 0
 256.353898173 553.262556666 254.928174924 548.840282007 254.928174924 544.509592194 c 0
 254.928174924 534.167468895 263.059110069 524.34765625 274.935546875 524.34765625 c 0
 281.131835938 524.34765625 286.673828125 527.171875 290.34375 531.6015625 c 0
 324.331054688 572.629882812 362.561523438 627.9609375 407.424804688 678.5859375 c 1
 420.3359375 631.439453125 439.258789062 607.275390625 445.14453125 541.48046875 c 0
 446.056640625 531.28515625 454.633789062 523.282226562 465.064453125 523.282226562 c 0
EndSplineSet
EndChar

StartChar: underscore
Encoding: 95 95 63
Width: 500
Flags: HW
LayerCount: 2
Fore
SplineSet
425.404296875 25.3955078125 m 0
 425.404296875 39.9302176148 421.771601713 48.9093591806 339.659634345 48.9093591806 c 0
 303.364422356 48.9093591806 251.735730547 47.1549916625 178.309570312 43.3505859375 c 0
 146.880859375 41.72265625 118.676757812 40.2685546875 98.033203125 39.892578125 c 0
 87.166015625 39.693359375 78.404296875 30.8095703125 78.404296875 19.8955078125 c 0
 78.404296875 8.857421875 87.3662109375 -0.1044921875 98.404296875 -0.1044921875 c 0
 132.69140625 -0.1044921875 250.203125 8.7294921875 331.430664062 8.7294921875 c 0
 379.966796875 8.7294921875 404.6640625 5.3955078125 405.404296875 5.3955078125 c 0
 416.442382812 5.3955078125 425.404296875 14.357421875 425.404296875 25.3955078125 c 0
EndSplineSet
EndChar

StartChar: grave
Encoding: 96 96 64
Width: 500
Flags: HW
LayerCount: 2
Fore
SplineSet
332.134765625 716.967773438 m 0
 328.227153383 724.090333928 321.549909958 727.289199472 314.900094867 727.289199472 c 0
 304.711800353 727.289199472 294.587890625 719.780238813 294.587890625 707.369140625 c 0
 294.587890625 692.133146918 368.077493642 577.490139962 454.224609375 556.41796875 c 0
 455.831116611 556.024989483 457.431651881 555.838074989 459.001474386 555.838074989 c 0
 469.708240376 555.838074989 478.986328125 564.532852985 478.986328125 575.846679688 c 0
 478.986328125 585.244140625 472.490234375 593.13671875 463.748046875 595.275390625 c 0
 409.071289062 608.649414062 353.823242188 677.436523438 332.134765625 716.967773438 c 0
EndSplineSet
EndChar

StartChar: a
Encoding: 97 97 65
Width: 500
Flags: HW
LayerCount: 2
Fore
SplineSet
405.65234375 138.893554688 m 0
 405.65234375 226.571746211 447.866210938 345.346034035 447.866210938 368.8203125 c 0
 447.866210938 381.325761049 437.716316598 388.713701651 427.54873322 388.713701651 c 0
 420.496917514 388.713701651 413.436592963 385.159927552 409.748046875 377.294921875 c 1
 384.698888055 387.974331668 360.860398311 392.777729195 338.441861596 392.777729195 c 0
 213.106072344 392.777729195 132.152567754 242.641948726 132.152567754 129.803913359 c 0
 132.152567754 109.415901875 134.795428994 90.2455370572 140.296875 73.3984375 c 0
 151.8359375 38.0615234375 179.518554688 8.0439453125 224.755859375 8.0439453125 c 0
 294.834960938 8.0439453125 342.244140625 82.00390625 365.887695312 126.250976562 c 1
 367.149414062 92.662109375 373.5 59.4052734375 385.76171875 22.0234375 c 0
 388.3828125 14.03125 395.907226562 8.25390625 404.770507812 8.25390625 c 0
 415.80859375 8.25390625 424.770507812 17.2158203125 424.770507812 28.25390625 c 0
 424.770507812 37.9912109375 405.65234375 76.748046875 405.65234375 138.893554688 c 0
220.274414062 48.2158203125 m 0
 187.354473281 50.7267276569 172.224335388 84.4605075561 172.224335388 128.620890493 c 0
 172.224335388 218.815061776 235.339565477 352.50371106 338.909819169 352.50371106 c 0
 357.886649851 352.50371106 378.221636808 348.015514994 399.775390625 337.94921875 c 1
 381.375622984 262.274943906 341.96074832 131.69352229 278.439453125 72.97265625 c 0
 258.574489234 54.6087197296 240.723816054 48.045101662 224.745095492 48.045101662 c 0
 223.238260907 48.045101662 221.748073554 48.1034717647 220.274414062 48.2158203125 c 0
EndSplineSet
EndChar

StartChar: b
Encoding: 98 98 66
Width: 500
Flags: HW
LayerCount: 2
Fore
SplineSet
112.389648438 8.541015625 m 0
 136.660529757 4.75457450568 159.523546216 2.96653643082 181.022832535 2.96653643082 c 0
 380.415300713 2.96653643082 462.5078125 156.762937966 462.5078125 296.541992188 c 0
 462.5078125 360.025390625 411.616210938 404.463867188 362.27734375 404.463867188 c 0
 304.033203125 404.463867188 261.802734375 381.91796875 229.333984375 346.267578125 c 1
 269.369140625 512.040039062 305.7109375 681.775390625 310.19140625 707.370117188 c 0
 310.397188017 708.545463891 310.496274248 709.711414547 310.496274248 710.858941153 c 0
 310.496274248 721.664786645 301.709989194 730.836914063 290.491210938 730.836914062 c 0
 280.634765625 730.836914062 272.434570312 723.692382812 270.791015625 714.303710938 c 0
 266.61328125 690.44140625 203.998046875 396.002929688 149.478515625 194.108398438 c 0
 148.924721665 192.526769538 103.77813867 54.8187441433 96.66796875 35.0693359375 c 0
 95.8607960018 32.8275600173 95.4817747853 30.5506937442 95.4817747853 28.3196179998 c 0
 95.4817747853 18.792631949 102.392855265 10.100591321 112.389648438 8.541015625 c 0
362.27734375 364.463867188 m 0
 388.559570312 364.463867188 422.5078125 338.03125 422.5078125 296.541992188 c 0
 422.5078125 273.588760897 416.685723984 42.8694298185 182.596978959 42.8694298185 c 0
 170.799433894 42.8694298185 158.422106866 43.4554414108 145.436523438 44.68359375 c 1
 159.120117188 79.1201171875 177.1640625 143.340820312 186.916992188 179.28125 c 0
 225.260742188 287.979492188 267.889648438 364.463867188 362.27734375 364.463867188 c 0
EndSplineSet
EndChar

StartChar: c
Encoding: 99 99 67
Width: 500
Flags: HW
LayerCount: 2
Fore
SplineSet
171.267578125 126.002929688 m 0
 171.267578125 199.354492188 244.251953125 358.46875 368.07421875 358.46875 c 0
 388.557617188 358.46875 423.276367188 340.359375 426.9296875 314.471679688 c 0
 428.298828125 304.763671875 436.649414062 297.286132812 446.732421875 297.286132812 c 0
 457.903414471 297.286132812 466.735306113 306.403244536 466.735306113 317.264079219 c 0
 466.735306113 318.198245148 466.669966678 319.145311358 466.53515625 320.100585938 c 0
 460.052734375 366.04296875 409.598632812 398.46875 368.07421875 398.46875 c 0
 219.151367188 398.46875 131.267578125 220.008789062 131.267578125 126.002929688 c 0
 131.267578125 56.8013135809 181.69179074 1.71918625624 255.290321488 1.71918625624 c 0
 285.325442829 1.71918625624 319.220032283 10.8926045532 355.122070312 32.0234375 c 0
 380.625 47.0341796875 403.848632812 66.943359375 418.155273438 91.5654296875 c 0
 420.016098171 94.7681362838 420.865173444 98.178174677 420.865173444 101.507880191 c 0
 420.865173444 111.944447592 412.523562945 121.591796875 400.849609375 121.591796875 c 0
 393.463867188 121.591796875 387.0078125 117.580078125 383.543945312 111.618164062 c 0
 360.512695312 71.98046875 296.0078125 41.53125 255.02734375 41.53125 c 0
 204.28515625 41.53125 171.267578125 77.322265625 171.267578125 126.002929688 c 0
EndSplineSet
EndChar

StartChar: d
Encoding: 100 100 68
Width: 500
Flags: HW
LayerCount: 2
Fore
SplineSet
115.87109375 138.068359375 m 0
 115.87109375 109.670130454 123.447473666 2.2607421875 238.068359375 2.2607421875 c 0
 363.567382812 2.2607421875 520.333007812 279.303710938 546.09375 714.541015625 c 0
 546.09375 728.864852997 536.322608129 735.571886286 526.44243757 735.571886286 c 0
 516.715322754 735.571886286 506.882531057 729.071043508 506.1640625 716.9375 c 0
 498.0078125 579.134765625 476.540039062 459.250976562 447.90625 360.303710938 c 1
 426.184570312 391.319335938 390.56640625 415.37109375 344.91015625 415.37109375 c 0
 221.825195312 415.37109375 115.87109375 252.725585938 115.87109375 138.068359375 c 0
155.87109375 138.068359375 m 0
 155.87109375 231.958984375 247.267578125 375.37109375 344.91015625 375.37109375 c 0
 389.842773438 375.37109375 422.432617188 338.8203125 430.10546875 304.025390625 c 1
 410.438476562 247.009765625 362.291015625 125.240234375 292.912109375 67.3896484375 c 0
 271.55078125 49.578125 252.616210938 42.2607421875 238.068359375 42.2607421875 c 0
 203.182617188 42.2607421875 155.87109375 57.1728515625 155.87109375 138.068359375 c 0
EndSplineSet
EndChar

StartChar: e
Encoding: 101 101 69
Width: 500
Flags: HW
LayerCount: 2
Fore
SplineSet
435.40234375 350.163085938 m 0
 435.40234375 386.426613342 406.389259074 411.86835998 363.413590581 411.86835998 c 0
 324.734700709 411.86835998 274.745656975 391.259705253 224.418945312 339.383789062 c 0
 172.428710938 285.79296875 131.16015625 208.104492188 131.16015625 126.565429688 c 0
 131.16015625 53.78125 191.044921875 8.64453125 251.665039062 8.64453125 c 0
 330.564453125 8.64453125 387.918945312 58.5048828125 419.184570312 111.333984375 c 0
 421.101525282 114.573504487 421.975425363 118.033301054 421.975425363 121.411723487 c 0
 421.975425363 131.843279619 413.643755093 141.499023438 401.959960938 141.499023438 c 0
 394.631835938 141.499023438 388.21875 137.548828125 384.735351562 131.6640625 c 0
 358.252929688 86.9150390625 312.302734375 48.64453125 251.665039062 48.64453125 c 0
 209.57421875 48.64453125 171.16015625 78.61328125 171.16015625 126.565429688 c 0
 171.16015625 153.368164062 176.729492188 180.41015625 186.315429688 206.258789062 c 1
 200.783203125 196.376953125 224.641601562 185.095703125 258.16015625 185.095703125 c 0
 338.639648438 185.095703125 435.40234375 283.166015625 435.40234375 350.163085938 c 0
203.361328125 243.67578125 m 1
 251.765595561 332.885702995 325.488339792 372.094049293 366.067521462 372.094049293 c 0
 383.954952654 372.094049293 395.40234375 364.475576723 395.40234375 350.163085938 c 0
 395.40234375 306.734375 317.208984375 225.095703125 258.16015625 225.095703125 c 0
 248.8984375 225.095703125 222.1875 226.672851562 203.361328125 243.67578125 c 1
EndSplineSet
EndChar

StartChar: f
Encoding: 102 102 70
Width: 500
Flags: HW
LayerCount: 2
Fore
SplineSet
331.113246727 375.292066856 m 1
 345.010297204 462.027686664 382.195459278 694.111328125 442.780273438 694.111328125 c 0
 475.4921875 694.111328125 500.103515625 637.970703125 500.103515625 571.995117188 c 0
 500.103515625 562.134765625 499.608398438 555.895507812 499.608398438 554.436523438 c 0
 499.608398438 543.3984375 508.5703125 534.436523438 519.608398438 534.436523438 c 0
 530.266601562 534.436523438 538.989257812 542.791992188 539.577148438 553.3046875 c 0
 539.942947921 559.850544522 540.121970108 566.27564556 540.121970108 572.570052983 c 0
 540.121970108 668.52778138 498.515863957 734.111328125 442.780273438 734.111328125 c 0
 358.555029283 734.111328125 322.964405852 579.346192768 290.866511002 377.041773217 c 1
 273.386890179 377.836319942 256.042182863 378.53515625 240.852539062 378.53515625 c 0
 229.814453125 378.53515625 220.852539062 369.573242188 220.852539062 358.53515625 c 0
 220.852539062 347.5390625 229.74609375 338.603515625 240.725585938 338.53515625 c 0
 256.63108134 338.43626703 271.025372635 337.930773023 284.685499335 337.321203032 c 1
 243.144920675 65.9191079699 228.831481959 -27.5966152143 193.711914062 -86.513671875 c 0
 182.247070312 -105.74609375 172.9921875 -110.111328125 167.026367188 -110.111328125 c 0
 145.165039062 -110.111328125 118.1640625 -58.4873046875 118.1640625 -12.193359375 c 0
 118.1640625 -4.2470703125 119.544921875 6.712890625 119.544921875 6.904296875 c 0
 119.544921875 17.9423828125 110.583007812 26.904296875 99.544921875 26.904296875 c 0
 89.533203125 26.904296875 81.2294921875 19.53125 79.771484375 9.923828125 c 0
 78.6727689402 2.68067285002 78.1425077535 -4.84124332136 78.1425077535 -12.4997065327 c 0
 78.1425077535 -76.5326824927 115.211770702 -150.111328125 167.026367188 -150.111328125 c 0
 251.25390625 -150.111328125 279.212890625 30.8984375 314.931640625 269.630859375 c 0
 318.182665869 291.359687367 321.481917111 313.41086092 324.870983653 335.457903792 c 1
 335.096667066 335.056867363 345.356826395 334.782226562 356.032226562 334.782226562 c 0
 426.546032953 334.782226562 430.990234375 342.180812422 430.990234375 357.51953125 c 0
 430.990234375 368.557617188 422.028320312 377.51953125 410.990234375 377.51953125 c 0
 410.440429688 377.51953125 385.395507812 374.782226562 356.032226562 374.782226562 c 0
 348.34851765 374.782226562 339.938362751 374.983171782 331.113246727 375.292066856 c 1
EndSplineSet
EndChar

StartChar: g
Encoding: 103 103 71
Width: 500
Flags: HW
LayerCount: 2
Fore
SplineSet
110.864257812 173.263671875 m 0
 110.864257812 143.291992188 120.625976562 72.2119140625 213.231445312 72.2119140625 c 0
 256.618927162 72.2119140625 329.980813612 85.2493007246 387.125976562 161.715820312 c 1
 375.841796875 109.926757812 361.805664062 66.8076171875 346.1875 31.025390625 c 1
 63.8651020911 5.02162078023 43.66796875 -59.3767011164 43.66796875 -91.4287109375 c 0
 43.66796875 -135.8921354 82.1980615846 -172.339014603 165.108269441 -172.339014603 c 0
 167.399887629 -172.339014603 169.725410286 -172.311170781 172.084960938 -172.254882812 c 0
 232.200195312 -170.821289062 312.642578125 -128.888671875 372.424804688 -6.8994140625 c 1
 391.8671875 -5.3232421875 411.60546875 -4.01171875 431.409179688 -2.958984375 c 0
 441.947265625 -2.3984375 450.33203125 6.3359375 450.33203125 17.0126953125 c 0
 450.33203125 28.0779793915 441.338404802 37.0132181474 430.339023194 37.0132181474 c 0
 429.979702321 37.0132181474 429.618240992 37.0036828441 429.254882812 36.984375 c 0
 416.352539062 36.2978515625 403.477539062 35.5107421875 390.681640625 34.6162109375 c 1
 419.610351562 108.006835938 441.608398438 204.750976562 450.6953125 330.620117188 c 0
 450.718292724 330.937628812 450.729743777 331.263589789 450.729743777 331.597661502 c 0
 450.729743777 352.79569098 404.623791976 406.650390625 332.370117188 406.650390625 c 0
 223.982421875 406.650390625 110.864257812 295.791015625 110.864257812 173.263671875 c 0
325.161132812 -11.3349609375 m 1
 289.688476562 -74.15625 233.48046875 -132.336914062 165.241210938 -132.336914062 c 0
 147.534179688 -132.336914062 83.66796875 -129.685546875 83.66796875 -91.4287109375 c 0
 83.66796875 -68.80078125 138.239257812 -31.4111328125 325.161132812 -11.3349609375 c 1
410.088867188 328.732421875 m 1
 404.266669671 288.880838223 369.6357764 112.211914062 213.231445312 112.211914062 c 0
 158.033203125 112.211914062 150.864257812 145.46484375 150.864257812 173.263671875 c 0
 150.864257812 275.849376837 249.015467635 366.795661589 332.165738151 366.795661589 c 0
 361.732592299 366.795661589 389.402734592 355.296455238 410.088867188 328.732421875 c 1
EndSplineSet
EndChar

StartChar: h
Encoding: 104 104 72
Width: 500
Flags: HW
LayerCount: 2
Fore
SplineSet
224.651367188 297.129882812 m 1
 324.174998416 682.901605734 324.174998416 682.901605734 328.607421875 709.372070312 c 0
 328.796104215 710.498755398 328.887087108 711.616169855 328.887087108 712.716424057 c 0
 328.887087108 723.534929283 320.090621876 732.694335938 308.8828125 732.694335938 c 0
 298.975585938 732.694335938 290.7421875 725.475585938 289.158203125 716.016601562 c 0
 276.39453125 639.798828125 174.046875 277.759765625 117.862304688 31.55078125 c 0
 117.518448849 30.043776199 117.354445044 28.5444159608 117.354445044 27.072784214 c 0
 117.354445044 16.3444987538 126.070425938 7.08984375 137.362304688 7.08984375 c 0
 146.658203125 7.08984375 154.482421875 13.4462890625 156.719726562 22.0458984375 c 0
 224.967358721 284.327219971 322.640620701 369.815220278 369.536424992 369.815220278 c 0
 376.682833936 369.815220278 382.650066681 367.829980767 387.154296875 364.182617188 c 0
 393.653320312 358.918945312 404.375 343.614257812 404.375 299.860351562 c 0
 404.375 228.45703125 375.134765625 119.4765625 350.024414062 38.2255859375 c 0
 349.413019104 36.2474191335 349.125140051 34.261951646 349.125140051 32.3186879166 c 0
 349.125140051 21.6879886503 357.740436786 12.3203125 369.13671875 12.3203125 c 0
 378.120117188 12.3203125 385.727539062 18.2548828125 388.249023438 26.4150390625 c 0
 421.445995717 133.829124803 444.435138634 229.732069776 444.435138634 298.896358173 c 0
 444.435138634 343.516203549 434.867272816 377.007670664 412.299804688 395.282226562 c 0
 401.416592263 404.094683311 386.805219329 409.73058606 369.513109668 409.73058606 c 0
 330.759940585 409.73058606 278.542816589 381.424359732 224.651367188 297.129882812 c 1
EndSplineSet
EndChar

StartChar: i
Encoding: 105 105 73
Width: 500
Flags: HW
LayerCount: 2
Fore
SplineSet
400.362304688 495.654296875 m 0
 427.540039062 495.654296875 443.359375 521.91796875 443.359375 540.610351562 c 0
 443.359375 562.686523438 425.435546875 580.610351562 403.359375 580.610351562 c 0
 387.805664062 580.610351562 374.313476562 571.713867188 367.698242188 558.735351562 c 0
 362.628534565 551.577258753 360.336784589 543.651597051 360.336784589 535.90403695 c 0
 360.336784589 515.139502299 376.798751821 495.654296875 400.362304688 495.654296875 c 0
160.255859375 306.57421875 m 0
 160.255859375 293.971861604 172.41616188 284.921723786 192.375933518 284.921723786 c 0
 211.799104042 284.921723786 238.608016917 293.49179247 268.784179688 315.698242188 c 1
 234.815545216 229.834514186 210.617435436 147.642553136 210.617435436 87.7952675019 c 0
 210.617435436 63.7108541641 214.536339852 43.2451799743 223.314453125 27.615234375 c 0
 235.0390625 6.73828125 255.850585938 -4.35546875 278.846679688 -4.35546875 c 0
 336.184570312 -4.35546875 400.454101562 80.4853515625 421.151367188 110.111328125 c 0
 423.634707266 113.665954252 424.757971587 117.589431333 424.757971587 121.424337572 c 0
 424.757971587 131.810436318 416.518917405 141.546875 404.745117188 141.546875 c 0
 397.95703125 141.546875 391.955078125 138.158203125 388.338867188 132.982421875 c 0
 352.260434812 81.3415106303 305.548954617 35.6700548882 277.106845287 35.6700548882 c 0
 269.183938694 35.6700548882 262.678682227 39.2140272253 258.215820312 47.16015625 c 0
 253.406192485 55.7241317617 250.653407391 68.8252696927 250.653407391 86.8087182403 c 0
 250.653407391 139.370664852 274.169720621 233.640896637 338.579101562 378.237304688 c 0
 339.830186746 381.04577425 340.393396391 383.820046665 340.393396391 386.468688788 c 0
 340.393396391 397.542141887 330.548987106 406.419687983 319.97034985 406.419687983 c 0
 315.516928026 406.419687983 310.933381681 404.846353173 306.899414062 401.201171875 c 0
 251.0546875 350.741210938 223.229492188 325.599609375 192.364257812 325.599609375 c 0
 185.975585938 325.599609375 183.556640625 326.57421875 180.255859375 326.57421875 c 0
 169.217773438 326.57421875 160.255859375 317.612304688 160.255859375 306.57421875 c 0
EndSplineSet
EndChar

StartChar: j
Encoding: 106 106 74
Width: 500
Flags: HW
LayerCount: 2
Fore
SplineSet
38.2568359375 -100.526367188 m 0
 38.2568359375 -132.29296875 63.8916015625 -161.244140625 111.219726562 -161.244140625 c 0
 171.935546875 -161.244140625 252.021484375 -113.415039062 294.884765625 -2.35546875 c 0
 304.02734375 21.3330078125 312.827148438 45.0498046875 321.35546875 69.701171875 c 1
 351.333984375 81.2529296875 384.568359375 92.888671875 421.305664062 104.478515625 c 0
 429.408203125 107.03515625 435.2890625 114.614257812 435.2890625 123.556640625 c 0
 435.2890625 134.96052255 425.911942171 143.568547316 415.287482649 143.568547316 c 0
 413.308243492 143.568547316 411.285716344 143.269812139 409.272460938 142.634765625 c 0
 383.75 134.58203125 359.82421875 126.501953125 337.413085938 118.418945312 c 1
 359.430664062 188.745117188 379.819335938 269.96875 399.948242188 379.575195312 c 0
 400.191520939 380.900112995 400.307144818 382.189984844 400.307144818 383.43916764 c 0
 400.307144818 395.085268354 390.257363055 403.194763033 379.906912707 403.194763033 c 0
 374.5039176 403.194763033 369.018993295 400.985006386 364.838867188 395.915039062 c 0
 333.448242188 357.837890625 276.524414062 313.056640625 236.025390625 292.96875 c 0
 228.418708437 289.196025259 224.989614672 282.268814543 224.989614672 275.356680472 c 0
 224.989614672 265.182025872 232.419710316 255.040039063 244.892578125 255.040039062 c 0
 257.330696809 255.040039062 307.751582477 286.908980227 348.036132812 322.13671875 c 1
 329.27734375 231.029296875 310.234375 162.168945312 289.518554688 100.243164062 c 1
 208.873550177 67.9951553288 38.2568359375 -10.8299636688 38.2568359375 -100.526367188 c 0
111.219726562 -121.244140625 m 0
 90.4666687717 -121.244140625 78.7315717859 -112.965675572 78.7315717859 -98.8785910903 c 0
 78.7315717859 -68.3564993876 133.821604552 -10.5660318885 271.638671875 49.37109375 c 1
 267.040039062 36.853515625 262.348632812 24.4541015625 257.552734375 12.02734375 c 0
 219.196289062 -87.3525390625 151.30078125 -121.244140625 111.219726562 -121.244140625 c 0
405.56640625 485.801757812 m 0
 432.735351562 485.801757812 448.483398438 511.993164062 448.483398438 530.680664062 c 0
 448.483398438 552.756835938 430.559570312 570.680664062 408.483398438 570.680664062 c 0
 392.876953125 570.680664062 379.345703125 561.723632812 372.754882812 548.673828125 c 0
 367.787293072 541.564291223 365.54034525 533.7167256 365.54034525 526.046282199 c 0
 365.54034525 505.274568424 382.018049638 485.801757812 405.56640625 485.801757812 c 0
EndSplineSet
EndChar

StartChar: k
Encoding: 107 107 75
Width: 500
Flags: HW
LayerCount: 2
Fore
SplineSet
459.103515625 393.387695312 m 0
 459.103515625 422.574185069 435.192172683 439.28275908 399.794444632 439.28275908 c 0
 346.097549423 439.28275908 265.96859816 400.833589857 202.780273438 309.166992188 c 1
 283.83808027 618.724966025 283.83808027 618.724966025 301.9140625 700.676757812 c 0
 302.236170163 702.137231044 302.390002407 703.589466267 302.390002407 705.015329308 c 0
 302.390002407 715.754151929 293.664205722 724.997070312 282.3828125 724.997070312 c 0
 272.828125 724.997070312 264.829101562 718.282226562 262.8515625 709.317382812 c 0
 239.026367188 601.30078125 212.772460938 502.672851562 186.791992188 405.092773438 c 0
 154.905273438 285.327148438 123.422851562 167.116210938 97.5986328125 35.4765625 c 0
 97.3417182026 34.1671367675 97.2184917699 32.8670554817 97.2184917699 31.5890601974 c 0
 97.2184917699 20.8148297539 105.976752988 11.6103515625 117.224609375 11.6103515625 c 0
 126.915039062 11.6103515625 135.004882812 18.5166015625 136.8359375 27.671875 c 0
 150.948242188 98.224609375 169.045898438 155.573242188 189.245117188 202.141601562 c 1
 189.741160154 202.151708483 190.234062858 202.156736722 190.723859865 202.156736722 c 0
 288.368682702 202.156736722 262.582180152 2.31691070253 387.222620638 2.31691070253 c 0
 395.57999813 2.31691070253 404.613688595 3.21538184119 414.40625 5.1328125 c 0
 423.600585938 6.9326171875 430.546875 15.041015625 430.546875 24.759765625 c 0
 430.546875 35.7978515625 421.584960938 44.759765625 410.546875 44.759765625 c 0
 406.283203125 44.759765625 399.8828125 42.4921875 388.631835938 42.4921875 c 0
 313.606445312 42.4921875 319.04296875 169.249023438 252.913085938 221.48828125 c 1
 307.234375 239.552734375 359.452148438 264.430664062 395.047851562 292.74609375 c 0
 424.268554688 315.989257812 459.103515625 357.387695312 459.103515625 393.387695312 c 0
213.44921875 251.358398438 m 1
 283.254295452 376.493920552 368.214973258 399.003642934 403.044042126 399.003642934 c 0
 410.756095114 399.003642934 416.010227075 397.900005506 418.09765625 396.5625 c 0
 418.848632812 396.081054688 419.103515625 396.729492188 419.103515625 393.387695312 c 0
 419.103515625 372.241670632 382.834246907 300.517192225 213.44921875 251.358398438 c 1
EndSplineSet
EndChar

StartChar: l
Encoding: 108 108 76
Width: 500
Flags: HW
LayerCount: 2
Fore
SplineSet
197.608398438 583.155273438 m 2
 184.947912911 583.155273438 177.715345039 572.850143775 177.715345039 562.69365406 c 0
 177.715345039 552.825990321 184.542408424 543.098632812 199.8515625 543.098632812 c 0
 235.642578125 543.098632812 275.604492188 571.958984375 326.87109375 627.908203125 c 1
 304.145507812 552.796875 283.262695312 485.92578125 264.734375 426.590820312 c 0
 205.208369065 235.970477636 176.572157937 142.417845661 176.572157937 87.6014294471 c 0
 176.572157937 63.9495424214 181.903368917 47.5091869021 192.384765625 33.5947265625 c 0
 206.069727437 15.4274013831 226.186225425 7.16262618066 249.458845979 7.16262618066 c 0
 315.997403764 7.16262618066 408.335387903 74.7222518973 449.921875 171.564453125 c 0
 451.034733856 174.155780316 451.55041481 176.812501428 451.55041481 179.407392685 c 0
 451.55041481 189.933061491 443.065603915 199.44140625 431.53515625 199.44140625 c 0
 423.29296875 199.44140625 416.208984375 194.4453125 413.1484375 187.318359375 c 0
 376.385742188 101.7109375 295.694335938 47.138671875 249.836914062 47.138671875 c 0
 227.448557253 47.138671875 216.702901046 58.423355366 216.702901046 87.5392524316 c 0
 216.702901046 136.305965905 246.848198089 235.095425264 302.923828125 414.66796875 c 0
 328.6015625 496.895507812 358.875976562 593.842773438 392.3359375 707.22265625 c 0
 392.939175816 709.266684511 393.218340964 711.249684514 393.218340964 713.147496317 c 0
 393.218340964 724.558246281 383.126200423 732.889345024 372.703205619 732.889345024 c 0
 367.353688713 732.889345024 361.917019112 730.694790537 357.712890625 725.595703125 c 0
 311.513671875 669.563476562 240.22265625 583.098632812 199.8515625 583.098632812 c 0
 199.72265625 583.098632812 197.608398438 583.155273438 197.608398438 583.155273438 c 2
EndSplineSet
EndChar

StartChar: m
Encoding: 109 109 77
Width: 500
Flags: HW
LayerCount: 2
Fore
SplineSet
337.939453125 296.653320312 m 1
 338.60110503 303.854053839 339.732669897 316.16883298 339.732669897 329.904067649 c 0
 339.732669897 362.194660456 333.478649064 402.3359375 300.162109375 402.3359375 c 0
 285.701171875 402.3359375 259.466796875 396.30078125 212.19921875 309.473632812 c 1
 214.932617188 326.405273438 216.513671875 341.952148438 216.513671875 355.657226562 c 0
 216.513671875 372.580078125 213.677734375 407.220703125 190.462890625 407.220703125 c 0
 179.424804688 407.220703125 170.462890625 398.258789062 170.462890625 387.220703125 c 0
 170.462890625 377.658203125 176.513671875 377.870117188 176.513671875 355.657226562 c 0
 176.513671875 290.81640625 124.931640625 138.807617188 101.342773438 34.82421875 c 0
 101.002676853 33.3250270485 100.840429923 31.8336181165 100.840429923 30.369728936 c 0
 100.840429923 19.6394072046 109.557801817 10.3876953125 120.84765625 10.3876953125 c 0
 129.739257812 10.3876953125 137.283203125 16.2021484375 139.881835938 24.2333984375 c 0
 147.455453909 47.6453040759 233.878159452 311.54516075 296.80078125 359.818359375 c 1
 298.664147286 353.33010472 299.690271447 343.978144331 299.690271447 331.669740098 c 0
 299.690271447 282.671146912 283.428657984 186.819990587 238.989257812 38.265625 c 0
 238.4142622 36.3431396682 238.143118005 34.4161146133 238.143118005 32.5295122647 c 0
 238.143118005 21.8878003041 246.77017302 12.5322265625 258.154296875 12.5322265625 c 0
 267.096679688 12.5322265625 274.676757812 18.4140625 277.232421875 26.5166015625 c 0
 291.408368173 71.4614437422 367.664125163 306.99131319 424.272460938 357.131835938 c 1
 425.23046875 353.484375 427.029296875 344.431640625 427.029296875 327.5234375 c 0
 427.029296875 275.315429688 410.151367188 176.068359375 369.443359375 34.302734375 c 0
 368.910871199 32.4479219132 368.659311145 30.5915742116 368.659311145 28.7735431814 c 0
 368.659311145 18.1183400771 377.300282423 8.779296875 388.669921875 8.779296875 c 0
 397.79296875 8.779296875 405.497070312 14.900390625 407.896484375 23.255859375 c 0
 439.179546448 132.201914948 466.815943579 249.49781453 466.815943579 323.881171867 c 0
 466.815943579 370.726620383 455.854577697 400.551757812 427.939453125 400.551757812 c 0
 412.754882812 400.551757812 386.192382812 393.766601562 337.939453125 296.653320312 c 1
EndSplineSet
EndChar

StartChar: n
Encoding: 110 110 78
Width: 500
Flags: HW
LayerCount: 2
Fore
SplineSet
367.06640625 357.991210938 m 0
 381.373046875 357.991210938 396.100585938 320.413085938 396.100585938 253.055664062 c 0
 396.100585938 178.614257812 377.456054688 85.9599609375 350.325195312 37.908203125 c 0
 348.549347422 34.7629987865 347.737880242 31.4295486562 347.737880242 28.1748358829 c 0
 347.737880242 17.7303423586 356.094302795 8.0966796875 367.75390625 8.0966796875 c 0
 375.227539062 8.0966796875 381.75 12.205078125 385.182617188 18.28515625 c 0
 416.70344953 74.1117305015 436.21726171 170.438286082 436.21726171 251.576954645 c 0
 436.21726171 302.168802309 428.630657147 346.855884062 411.637695312 372.138671875 c 0
 406.572992595 379.673912388 391.678099779 398.060910877 366.920160813 398.060910877 c 0
 355.497773449 398.060910877 341.975982872 394.147137877 326.3515625 383.448242188 c 0
 288.7265625 357.68359375 247.497070312 297.857421875 206.536132812 223.296875 c 1
 219.21875 272.041992188 228.69921875 316.510742188 228.69921875 349.96484375 c 0
 228.69921875 366.728515625 225.887695312 401.340820312 202.671875 401.340820312 c 0
 191.633789062 401.340820312 182.671875 392.37890625 182.671875 381.340820312 c 0
 182.671875 371.774414062 188.69921875 372.026367188 188.69921875 349.96484375 c 0
 188.69921875 285.545898438 137.321289062 134.447265625 113.821289062 31.0703125 c 0
 113.479737715 29.5680973241 113.316811265 28.0736232667 113.316811265 26.6067580375 c 0
 113.316811265 15.8773075834 122.033792768 6.625 133.32421875 6.625 c 0
 141.498046875 6.625 148.533203125 11.5390625 151.634765625 18.572265625 c 0
 202.274414062 133.428710938 286.610351562 307.758789062 348.912109375 350.420898438 c 0
 357.913085938 356.584960938 364.036132812 357.991210938 367.06640625 357.991210938 c 0
EndSplineSet
EndChar

StartChar: o
Encoding: 111 111 79
Width: 500
Flags: HW
LayerCount: 2
Fore
SplineSet
463.784179688 254.051757812 m 0
 463.784179688 282.855971861 456.997233988 403.357421875 343.426757812 403.357421875 c 0
 240.2265625 403.357421875 124.215820312 277.389648438 124.215820312 135.977539062 c 0
 124.215820312 51.2421875 170.53125 0.634765625 241.439453125 0.634765625 c 0
 355.274414062 0.634765625 463.784179688 142.775390625 463.784179688 254.051757812 c 0
241.439453125 40.634765625 m 0
 211.984746062 40.634765625 164.215820312 53.369000764 164.215820312 135.977539062 c 0
 164.215820312 262.171097663 269.420581244 363.819582106 345.925795052 363.819582106 c 0
 377.898863044 363.819582106 404.859347772 346.065939875 417.033203125 304.930664062 c 0
 421.89453125 288.50390625 423.784179688 270.293945312 423.784179688 254.051757812 c 0
 423.784179688 164.44921875 331.168945312 40.634765625 241.439453125 40.634765625 c 0
EndSplineSet
EndChar

StartChar: p
Encoding: 112 112 80
Width: 500
Flags: HW
LayerCount: 2
Fore
SplineSet
192.9296875 275.901367188 m 1
 193.078125 276.701171875 205.474609375 344.420898438 205.474609375 356.275390625 c 0
 205.474609375 367.313476562 196.512695312 376.275390625 185.474609375 376.275390625 c 0
 175.163085938 376.275390625 166.663085938 368.454101562 165.588867188 358.42578125 c 0
 156.208984375 270.852539062 87.03515625 -24.0654296875 72.326171875 -157.92578125 c 0
 72.244011443 -158.673650272 72.2039355075 -159.415384956 72.2039355075 -160.148792129 c 0
 72.2039355075 -171.0617109 81.0770320816 -180.130859375 92.2060546875 -180.130859375 c 0
 102.41796875 -180.130859375 110.852539062 -172.4609375 112.05859375 -162.573242188 c 0
 114.79296875 -140.14453125 123.5234375 -69.90234375 148.116210938 28.6337890625 c 1
 166.28811101 26.1040762636 183.66784819 24.9065141562 200.263038598 24.9065141562 c 0
 385.852812183 24.9065141562 473.32147758 174.682314944 473.32147758 285.988837678 c 0
 473.32147758 331.964134206 458.398332977 371.376136364 429.302734375 390.958984375 c 0
 409.181698861 404.50163365 383.209354717 416.327235035 353.860938657 416.327235035 c 0
 305.667435791 416.327235035 248.370203493 384.438970206 192.9296875 275.901367188 c 1
158.348632812 67.6298828125 m 1
 192.134347389 190.171550532 259.07722702 375.489091852 354.950386754 375.489091852 c 0
 371.452894341 375.489091852 388.812555104 369.998459938 407.0078125 357.751953125 c 0
 421.592773438 347.935546875 433.298828125 322.5234375 433.298828125 286.354492188 c 0
 433.298828125 195.787905924 363.166581021 64.9151619134 200.175140649 64.9151619134 c 0
 186.857083335 64.9151619134 172.919046891 65.7889404491 158.348632812 67.6298828125 c 1
EndSplineSet
EndChar

StartChar: q
Encoding: 113 113 81
Width: 500
Flags: HW
LayerCount: 2
Fore
SplineSet
341.595703125 81.462890625 m 1
 305.590981021 -19.4196242452 283.587733996 -81.0690056774 283.587733996 -119.068846414 c 0
 283.587733996 -130.767193832 285.673051802 -140.22419895 290.077148438 -147.89453125 c 0
 297.201171875 -160.302734375 310.870117188 -166.61328125 324.166015625 -166.61328125 c 0
 375.281176416 -166.61328125 458.776791786 -97.6447005371 470.588867188 -37.884765625 c 0
 470.849533559 -36.5662169383 470.974526249 -35.2569563982 470.974526249 -33.9700203469 c 0
 470.974526249 -23.1986671952 462.218416223 -13.9912109375 450.96875 -13.9912109375 c 0
 441.262695312 -13.9912109375 433.162109375 -20.919921875 431.348632812 -30.09765625 c 0
 423.352785944 -70.5412542102 356.676810983 -125.925833992 324.3671875 -126.611328125 c 1
 323.795338132 -124.256681579 323.519991873 -121.46093265 323.519991873 -118.244677288 c 0
 323.519991873 -60.6041930562 411.956864132 132.09632032 467.048828125 341.303710938 c 0
 467.494712819 342.996723311 467.709805616 344.706822055 467.709805616 346.396644141 c 0
 467.709805616 353.511488409 463.896736298 360.266877113 457.442382812 363.874023438 c 0
 420.408185868 384.573496524 386.04688301 393.570687181 354.662060471 393.570687181 c 0
 219.070899315 393.570687181 139.03515625 225.639898087 139.03515625 107.909179688 c 0
 139.03515625 82.1237293061 144.113837324 14.7015008785 197.01953125 11.8896484375 c 0
 199.771787074 11.7434896956 202.516585235 11.670314893 205.253625166 11.670314893 c 0
 253.685250769 11.670314893 299.687703057 34.5820186285 341.595703125 81.462890625 c 1
423.948242188 336.196289062 m 1
 406.844961844 278.521295837 334.95331131 51.6743468591 205.132579732 51.6743468591 c 0
 203.159068964 51.6743468591 201.172171065 51.7267700967 199.171875 51.8330078125 c 0
 183.895507812 52.64453125 179.03515625 86.78125 179.03515625 107.909179688 c 0
 179.03515625 191.444308705 237.314113499 353.361139733 354.734769749 353.361139733 c 0
 375.885358196 353.361139733 398.954834963 348.107649874 423.948242188 336.196289062 c 1
EndSplineSet
EndChar

StartChar: r
Encoding: 114 114 82
Width: 500
Flags: HW
LayerCount: 2
Fore
SplineSet
450.803710938 306.857421875 m 0
 450.803710938 349.814453125 425.032226562 404.572265625 370.197265625 404.572265625 c 0
 349.69140625 404.572265625 296.32421875 397.63671875 233.274414062 288.779296875 c 1
 241.75390625 327.026367188 249.514648438 360.790039062 256.391601562 386.666992188 c 0
 256.851836141 388.398554592 257.069986371 390.127315899 257.069986371 391.821581198 c 0
 257.069986371 402.501400471 248.401951511 411.810546875 237.060546875 411.810546875 c 0
 227.799804688 411.810546875 220.000976562 405.502929688 217.729492188 396.954101562 c 0
 198.20703125 323.493164062 164.485351562 153.022460938 133.752929688 32.900390625 c 0
 133.324876288 31.2273148198 133.121652739 29.5586417104 133.121652739 27.9226669467 c 0
 133.121652739 17.2307938278 141.801826607 7.935546875 153.130859375 7.935546875 c 0
 162.303710938 7.935546875 170.04296875 14.125 172.396484375 22.5517578125 c 0
 214.3359375 172.727539062 258.9453125 263.809570312 297.63671875 313.412109375 c 0
 328.877929688 353.463867188 354.684570312 364.572265625 370.197265625 364.572265625 c 0
 390.900390625 364.572265625 410.379882812 343.110351562 410.8046875 306.620117188 c 0
 410.932617188 295.69140625 419.844726562 286.857421875 430.803710938 286.857421875 c 0
 441.841796875 286.857421875 450.803710938 295.819335938 450.803710938 306.857421875 c 0
EndSplineSet
EndChar

StartChar: s
Encoding: 115 115 83
Width: 500
Flags: HW
LayerCount: 2
Fore
SplineSet
428.413085938 331.639648438 m 0
 406.618680968 376.733232822 367.623772654 394.961108762 327.763134253 394.961108762 c 0
 263.347455496 394.961108762 196.670898438 347.35850166 196.670898438 288.607421875 c 0
 196.670898438 183.318554783 333.428350898 232.018176108 358.262695312 182.30078125 c 0
 362.74106799 173.336192861 364.794489853 163.327537032 364.794489853 152.88780482 c 0
 364.794489853 101.842079086 315.701641602 40.4902551194 260.947235506 40.4902551194 c 0
 235.083071469 40.4902551194 207.955641757 54.1797122272 184.142578125 89.111328125 c 0
 180.038832576 95.1308565489 173.939400942 97.8192965613 167.894262955 97.8192965613 c 0
 157.672244735 97.8192965613 147.60546875 90.1322198536 147.60546875 77.865234375 c 0
 147.60546875 73.697265625 148.883789062 69.8251953125 151.068359375 66.619140625 c 0
 183.216655378 19.4609410025 222.10610671 0.892164974468 259.617710479 0.892164974468 c 0
 329.534252084 0.892164974468 394.66416451 65.3999142218 402.436523438 129.53125 c 0
 403.453736969 137.924588434 403.93631738 145.703696232 403.93631738 152.917130364 c 0
 403.93631738 277.088646669 260.938464357 233.640181286 240.454101562 270.251953125 c 0
 238.409179688 273.907226562 236.670898438 279.475585938 236.670898438 288.607421875 c 0
 236.670898438 323.606445312 286.60546875 355.147460938 328.0703125 355.147460938 c 0
 354.299804688 355.147460938 377.76953125 344.4921875 392.375976562 314.270507812 c 0
 396.110521659 306.543547657 403.099838727 303.056537062 410.07715799 303.056537062 c 0
 420.248593119 303.056537062 430.39453125 310.466918159 430.39453125 322.955078125 c 0
 430.39453125 326.06640625 429.682617188 329.012695312 428.413085938 331.639648438 c 0
EndSplineSet
EndChar

StartChar: t
Encoding: 116 116 84
Width: 500
Flags: HW
LayerCount: 2
Fore
SplineSet
213.470703125 13.61328125 m 0
 225.628548484 7.19551815997 238.724840196 4.22257845137 252.205476399 4.22257845137 c 0
 326.686143501 4.22257845137 412.899214351 94.9737917426 417.392578125 196.890625 c 0
 417.392578125 212.706054688 404.733398438 217.78515625 397.412109375 217.78515625 c 0
 386.673828125 217.78515625 377.900390625 209.303710938 377.431640625 198.6796875 c 0
 373.79021945 116.084820653 302.409865533 44.269021364 252.326145274 44.269021364 c 0
 245.043771212 44.269021364 238.211657562 45.7873745387 232.103515625 49.01171875 c 0
 223.028320312 53.8017578125 214.3125 69.9833984375 214.3125 105.065429688 c 0
 214.3125 164.87079495 238.709488573 256.590763745 266.508019571 346.393935702 c 1
 318.692433235 346.375097288 329.125596326 346.255627759 329.125596326 346.163098196 c 0
 329.125596326 346.101448453 324.494140625 346.051757812 324.494140625 346.051757812 c 1
 352.453125 346.051757812 381.471679688 347.16796875 409.880859375 353.333984375 c 0
 418.877929688 355.287109375 425.625 363.301757812 425.625 372.879882812 c 0
 425.625 383.91796875 416.663085938 392.879882812 405.625 392.879882812 c 0
 397.883789062 392.879882812 384.880859375 386.051757812 324.494140625 386.051757812 c 0
 324.017885989 386.051757812 300.331932856 386.380795234 279.15322184 386.490386776 c 1
 302.925596158 460.685131001 326.879336582 529.969072725 338.630859375 574.387695312 c 0
 339.087131458 576.112203957 339.303447264 577.833714058 339.303447264 579.520952067 c 0
 339.303447264 590.202101258 330.634397106 599.509765625 319.293945312 599.509765625 c 0
 310.025390625 599.509765625 302.221679688 593.192382812 299.95703125 584.631835938 c 0
 291.829101562 553.909179688 277.736328125 511.018554688 261.911132812 462.947265625 c 0
 219.049564564 332.753737078 174.245810873 196.085387485 174.245810873 106.312808564 c 0
 174.245810873 61.5438606141 185.38826297 28.4376381105 213.470703125 13.61328125 c 0
EndSplineSet
EndChar

StartChar: u
Encoding: 117 117 85
Width: 500
Flags: HW
LayerCount: 2
Fore
SplineSet
475.485351562 380.71484375 m 0
 475.855609699 382.276303711 476.031938404 383.830956737 476.031938404 385.356258863 c 0
 476.031938404 396.072981692 467.327610084 405.340820312 456.0234375 405.340820312 c 0
 439.594004746 405.340820312 438.226524426 398.905979274 428.944335938 355.227539062 c 0
 408.483625883 258.943562193 364.117383314 50.6587803514 263.357784946 50.6587803514 c 0
 263.01521724 50.6587803514 262.671997683 50.6611879137 262.328125 50.666015625 c 0
 244.82421875 50.912109375 198.077148438 52.7890625 198.077148438 152.830078125 c 0
 198.077148438 231.329101562 228.291992188 333.377929688 244.5234375 377.435546875 c 0
 245.368786179 379.72994134 245.763519117 382.054460363 245.763519117 384.326665866 c 0
 245.763519117 394.900691657 237.215039459 404.341796875 225.75 404.341796875 c 0
 217.138671875 404.341796875 209.791015625 398.887695312 206.9765625 391.248046875 c 0
 200.80518907 374.497533503 158.019067954 254.721333652 158.019067954 153.761780463 c 0
 158.019067954 97.0710423177 171.50970009 46.3132668132 212.548828125 23.060546875 c 0
 223.930664062 16.611328125 240.61328125 10.658203125 263.395507812 10.658203125 c 0
 396.623046875 10.658203125 443.704101562 232.213867188 468.072265625 346.885742188 c 0
 470.90234375 360.204101562 473.361328125 371.760742188 475.485351562 380.71484375 c 0
EndSplineSet
EndChar

StartChar: v
Encoding: 118 118 86
Width: 500
Flags: HW
LayerCount: 2
Fore
SplineSet
187.776367188 383.584960938 m 0
 187.776367188 370.574606531 204.331054688 364.73534908 204.331054688 298.348632812 c 0
 204.331054688 251.518554688 196.715820312 195.01953125 196.715820312 139.52734375 c 0
 196.715820312 94.169921875 201.60546875 48.2490234375 221.534179688 7.6220703125 c 0
 225.164303312 0.221675614385 232.337436672 -3.55650054469 239.528196209 -3.55650054469 c 0
 246.166688692 -3.55650054469 252.820203858 -0.33638387549 256.71484375 6.2265625 c 0
 314.895507812 104.276367188 391.974609375 198.916992188 436.024414062 280.463867188 c 0
 454.739257812 315.107421875 468.095703125 347.903320312 470.1796875 379.462890625 c 0
 470.209486956 379.914221078 470.224160968 380.362776506 470.224160968 380.808087733 c 0
 470.224160968 391.789379007 461.300800798 400.797851562 450.223632812 400.797851562 c 0
 439.633789062 400.797851562 430.956054688 392.549804688 430.267578125 382.1328125 c 0
 426.66015625 327.517578125 370.927734375 247.3359375 313.190429688 164.270507812 c 0
 290.38671875 131.463867188 266.65625 97.3408203125 244.40234375 62.4560546875 c 1
 238.770507812 86.1474609375 236.715820312 112.250976562 236.715820312 139.52734375 c 0
 236.715820312 193.118164062 244.331054688 249.255859375 244.331054688 298.348632812 c 0
 244.331054688 333.311523438 240.913085938 366.443359375 225.069335938 393.6328125 c 0
 221.093458809 400.45608745 214.571467192 403.514668012 208.08437044 403.514668012 c 0
 197.887258104 403.514668012 187.776367188 395.957247624 187.776367188 383.584960938 c 0
EndSplineSet
EndChar

StartChar: w
Encoding: 119 119 87
Width: 500
Flags: HW
LayerCount: 2
Fore
SplineSet
216.30078125 424.703125 m 0
 174.385972791 424.703125 140.052734375 235.202091414 140.052734375 121.2265625 c 0
 140.052734375 79.8115234375 143.020507812 4.7939453125 187.286132812 4.7939453125 c 0
 213.176757812 4.7939453125 238.750976562 32.1572265625 276.559570312 129.291015625 c 1
 279.342324329 47.8202317144 293.797000493 2.3203125 328.932617188 2.3203125 c 0
 421.59375 2.3203125 487.966796875 340.375 487.966796875 395.250976562 c 0
 487.966796875 406.2890625 479.004882812 415.250976562 467.966796875 415.250976562 c 0
 457.3125 415.250976562 448.592773438 406.90234375 447.999023438 396.395507812 c 0
 443.35403874 314.222069934 386.042247094 77.3856611718 330.6796875 43.642578125 c 1
 317.174804688 67.1767578125 316.072265625 137.224609375 316.072265625 159.62109375 c 0
 316.072265625 222.500976562 322.07421875 265.040039062 322.07421875 266.106445312 c 0
 322.07421875 278.808402156 311.906738899 285.932116948 301.783135333 285.932116948 c 0
 293.858012513 285.932116948 285.959778504 281.566473466 282.987304688 272.09375 c 0
 265.784179688 217.270507812 222.7265625 80.0537109375 189.080078125 47.537109375 c 1
 182.739871457 62.334760509 179.95900748 88.4197496999 179.95900748 119.980927628 c 0
 179.95900748 213.033263928 204.131859999 353.6877497 232.526367188 393.013671875 c 0
 235.13480848 396.626226287 236.312971896 400.644611643 236.312971896 404.573458627 c 0
 236.312971896 414.950616122 228.093723234 424.703125 216.30078125 424.703125 c 0
EndSplineSet
EndChar

StartChar: x
Encoding: 120 120 88
Width: 500
Flags: HW
LayerCount: 2
Fore
SplineSet
276.771173705 174.40436092 m 1
 308.239187206 67.6472524114 332.120377592 -1.3046875 375.291015625 -1.3046875 c 0
 408.97265625 -1.3046875 431.49609375 41.119140625 452.215820312 102.616210938 c 0
 452.933469468 104.746076121 453.27002188 106.892616287 453.27002188 108.99213053 c 0
 453.27002188 119.594734462 444.687001699 128.998046875 433.2578125 128.998046875 c 0
 424.450195312 128.998046875 416.965820312 123.29296875 414.299804688 115.379882812 c 0
 407.485351562 95.1552734375 390.375 48.2861328125 375.272460938 38.91796875 c 1
 354.904187757 50.7529790719 328.923196268 139.18947535 310.695080095 201.236019215 c 1
 377.616261467 254.27512792 440.192009454 307.517108405 453.388671875 378.735351562 c 0
 453.618547232 379.975870525 453.72902424 381.206935046 453.72902424 382.417824273 c 0
 453.72902424 393.208193311 444.956275899 402.396484375 433.723632812 402.396484375 c 0
 423.935546875 402.396484375 415.780273438 395.349609375 414.05859375 386.057617188 c 0
 404.036677084 331.972411188 355.28587796 288.181347982 298.317679126 242.815578296 c 1
 280.01623913 302.852726639 260.356375086 358.308933781 236.078125 382.975585938 c 0
 228.998886352 390.168337448 216.765893142 399.662622891 201.514582626 399.662622891 c 0
 182.287750772 399.662622891 158.263959731 384.573520197 133.721679688 330.76171875 c 0
 132.484657461 328.049537446 131.913200922 325.252690102 131.913200922 322.521545555 c 0
 131.913200922 312.014287105 140.371297991 302.479492188 151.928710938 302.479492188 c 0
 173.913577125 302.479492188 173.363527769 333.38404901 194.791992188 354.52734375 c 0
 198.375575211 358.062402502 200.020931394 359.029156583 201.324880883 359.029156583 c 0
 201.962861111 359.029156583 202.519114455 358.797732306 203.180664062 358.522460938 c 0
 225.970080828 345.332844901 253.936628031 251.484539772 264.464928054 216.154360971 c 1
 195.827831722 162.155808286 124.079510166 102.912048405 97.23828125 19.744140625 c 0
 96.5757484116 17.6911318226 96.2644125039 15.6264938174 96.2644125039 13.6064078331 c 0
 96.2644125039 2.98967190541 104.863879462 -6.396484375 116.276367188 -6.396484375 c 0
 125.172851562 -6.396484375 132.720703125 -0.5751953125 135.314453125 7.462890625 c 0
 156.932887352 74.4476936848 215.5062926 125.587269538 276.771173705 174.40436092 c 1
EndSplineSet
EndChar

StartChar: y
Encoding: 121 121 89
Width: 500
Flags: HW
LayerCount: 2
Fore
SplineSet
381.125976562 52.3056640625 m 1
 447.943575626 191.360884379 464.587890625 361.004392359 464.587890625 364.233398438 c 0
 464.587890625 375.271484375 455.625976562 384.233398438 444.587890625 384.233398438 c 0
 427.282982626 384.233398438 425.842091112 373.76857706 422.251953125 347.694335938 c 0
 401.448242188 231.467773438 283.224609375 124.495117188 223.448242188 124.495117188 c 0
 215.154296875 124.495117188 192.737304688 124.495117188 192.737304688 173.287109375 c 0
 192.737304688 211.139648438 207.6796875 273.803710938 246.961914062 364.268554688 c 0
 248.096810374 366.882125508 248.622408073 369.564379205 248.622408073 372.18408302 c 0
 248.622408073 382.706474318 240.142757308 392.219726563 228.607421875 392.219726562 c 0
 220.393554688 392.219726562 213.330078125 387.2578125 210.252929688 380.170898438 c 0
 181.524481891 314.011723607 152.706477728 234.169760722 152.706477728 173.507699936 c 0
 152.706477728 150.131843044 156.985698171 129.604033112 167.198242188 113.8046875 c 0
 180.130346358 93.7987579741 199.663384352 84.634132072 222.819886323 84.634132072 c 0
 271.878580331 84.634132072 337.200624128 125.768118127 390.473632812 192.092773438 c 1
 373.805664062 133.119140625 353.775390625 84.41015625 332.158203125 44.5322265625 c 1
 154.290039062 14.3671875 107.245117188 -17.3359375 86.939453125 -41.2421875 c 0
 70.445571047 -60.6605645917 63.1565122622 -79.4630861765 63.1565122622 -96.00537524 c 0
 63.1565122622 -130.450437788 94.759940582 -155.095730767 140.671173041 -155.095730767 c 0
 201.324864269 -155.095730767 286.950338703 -112.081659053 357.66796875 8.1767578125 c 1
 381.63671875 12.0400390625 407.263671875 15.791015625 434.51171875 19.4375 c 0
 444.288085938 20.7451171875 451.838867188 29.1279296875 451.838867188 39.259765625 c 0
 451.838867188 50.4208927215 442.732953547 59.26234487 431.860151372 59.26234487 c 0
 430.972550247 59.26234487 430.073174095 59.2034230277 429.166015625 59.08203125 c 0
 412.573242188 56.8623046875 396.560546875 54.60546875 381.125976562 52.3056640625 c 1
304.2109375 -1.1474609375 m 1
 289.777915621 -22.0032954594 220.409639599 -115.763671875 139.794921875 -115.763671875 c 0
 134.782226562 -115.763671875 103.852539062 -114.967773438 103.852539062 -95.3232421875 c 0
 103.852539062 -43.5621732632 228.180258945 -15.5497558957 304.2109375 -1.1474609375 c 1
EndSplineSet
EndChar

StartChar: z
Encoding: 122 122 90
Width: 500
Flags: HW
LayerCount: 2
Fore
SplineSet
389.983398438 82.451171875 m 0
 370.549406007 82.451171875 358.501200321 45.177734375 307.6328125 45.177734375 c 0
 276.17619766 45.177734375 241.771288383 60.4742644367 200.389398783 60.4742644367 c 0
 196.077431021 60.4742644367 191.689710603 60.3081821563 187.221679688 59.94140625 c 1
 280.877929688 173.965820312 423.53515625 259.375976562 467.180664062 369.331054688 c 0
 468.133630765 371.731327339 468.588139603 374.219577558 468.588139603 376.674623271 c 0
 468.588139603 384.021264974 464.518078905 391.070565133 457.555664062 394.575195312 c 0
 445.508576356 400.6385009 430.440385579 402.778913096 413.471537547 402.778913096 c 0
 372.718984996 402.778913096 321.003954832 390.43359375 273.846679688 390.43359375 c 0
 239.471679688 390.43359375 230.703125 397.291992188 223.162109375 397.291992188 c 0
 210.48599583 397.291992188 203.325958824 387.124091939 203.325958824 376.994502022 c 0
 203.325958824 369.190193363 207.576071206 361.408625259 216.828125 358.317382812 c 0
 234.229995024 352.503437205 253.867197625 350.440908162 274.20390539 350.440908162 c 0
 323.875715895 350.440908162 377.72053817 362.745260449 413.359899624 362.745260449 c 0
 415.539552389 362.745260449 417.651109958 362.699237594 419.689453125 362.6015625 c 1
 362.369140625 260.090820312 201.838867188 165.071289062 120.482421875 36.1064453125 c 0
 118.359882271 32.7421157512 117.395271494 29.1071187485 117.395271494 25.5566091945 c 0
 117.395271494 15.1434531386 125.692546652 5.45703125 137.41015625 5.45703125 c 0
 148.528320312 5.45703125 163.126953125 20.4736328125 200.278320312 20.4736328125 c 0
 236.3671875 20.4736328125 269.547851562 5.177734375 307.6328125 5.177734375 c 0
 338.305664062 5.177734375 370.72265625 16.1572265625 403.848632812 48.04296875 c 0
 408.084539062 52.120496452 409.976359571 57.2196895373 409.976359571 62.233377437 c 0
 409.976359571 72.5223232038 402.009134358 82.451171875 389.983398438 82.451171875 c 0
EndSplineSet
EndChar

StartChar: braceleft
Encoding: 123 123 91
Width: 500
Flags: HW
LayerCount: 2
Fore
SplineSet
178.928710938 63.279296875 m 0
 178.928710938 30.310546875 193.655273438 -12.4560546875 270.071289062 -12.4560546875 c 0
 285.788085938 -12.4560546875 303.604492188 -10.7548828125 324.098632812 -7.29296875 c 0
 333.544921875 -5.6982421875 340.749023438 2.529296875 340.749023438 12.4267578125 c 0
 340.749023438 23.46484375 331.787109375 32.4267578125 320.749023438 32.4267578125 c 0
 316.560546875 32.4267578125 294.359375 27.5439453125 270.071289062 27.5439453125 c 0
 219.876953125 27.5439453125 218.928710938 48.54296875 218.928710938 63.279296875 c 0
 218.928710938 120.618396725 280.186862353 222.746290232 280.186862353 300.805670081 c 0
 280.186862353 328.743890534 272.339726461 353.598947473 251.028320312 372.213867188 c 1
 377.721679688 423.830078125 337.6015625 574.543945312 376.354492188 649.81640625 c 0
 401.517578125 698.692382812 453.626953125 698.692382812 491.328125 698.692382812 c 0
 502.366210938 698.692382812 511.328125 707.654296875 511.328125 718.692382812 c 0
 511.328125 729.524414062 502.698242188 738.356445312 491.944335938 738.682617188 c 0
 488.284382101 738.793705288 484.705409552 738.84855188 481.205470314 738.84855188 c 0
 244.590460982 738.84855188 369.197085869 488.172285101 253.119140625 417.8359375 c 0
 237.6484375 408.4609375 216.951171875 401.1640625 188.717773438 397.602539062 c 0
 177.284306711 396.160624833 171.434820977 386.921396673 171.434820977 377.692283045 c 0
 171.434820977 368.957217726 176.674805616 360.231213032 187.379882812 358.133789062 c 0
 226.643554688 350.440429688 240.265625 332.150390625 240.265625 300.604492188 c 0
 240.265625 234.073242188 178.928710938 131.948242188 178.928710938 63.279296875 c 0
EndSplineSet
EndChar

StartChar: bar
Encoding: 124 124 92
Width: 500
Flags: HW
LayerCount: 2
Fore
SplineSet
431.012695312 734.038085938 m 0
 431.012695312 748.325309487 421.233184365 755.029247182 411.348491113 755.029247182 c 0
 401.614623583 755.029247182 391.778759111 748.528332902 391.079101562 736.366210938 c 0
 379.791992188 540.145507812 214.537109375 46.267578125 214.537109375 6.6611328125 c 0
 214.537109375 -4.376953125 223.499023438 -13.3388671875 234.537109375 -13.3388671875 c 0
 244.715820312 -13.3388671875 253.129882812 -5.7177734375 254.377929688 4.125 c 0
 261.611328125 61.177734375 419.458007812 533.166992188 431.012695312 734.038085938 c 0
EndSplineSet
EndChar

StartChar: braceright
Encoding: 125 125 93
Width: 500
Flags: HW
LayerCount: 2
Fore
SplineSet
477.563476562 394.963867188 m 0
 477.563476562 426.409045113 433.983541795 406.393746394 406.639648438 427.7578125 c 0
 395.483073949 436.474624006 391.266820667 450.618786722 391.266820667 468.032619709 c 0
 391.266820667 521.938126175 431.668945312 607.175153056 431.668945312 659.740234375 c 0
 431.668945312 702.421691219 409.855927037 738.106504915 358.614326859 738.106504915 c 0
 339.674437964 738.106504915 316.71406059 733.231299482 289.348632812 722.032226562 c 0
 280.888000347 718.569900717 277.041009481 711.201609597 277.041009481 703.827392354 c 0
 277.041009481 693.676147085 284.331016423 683.513671875 296.911132812 683.513671875 c 0
 305.56640625 683.513671875 331.212890625 698.206054688 358.360351562 698.206054688 c 0
 370.356445312 698.206054688 391.668945312 696.97265625 391.668945312 659.740234375 c 0
 391.668945312 613.385742188 351.453125 534.467773438 351.453125 468.328125 c 0
 351.453125 441.79296875 358.629882812 408.517578125 392.047851562 389.538085938 c 1
 314.776367188 340.267578125 292.991210938 241.12109375 289.014648438 159.375976562 c 0
 285.250976562 81.9833984375 241.905273438 28.8779296875 185.80078125 28.8779296875 c 0
 164.973632812 28.8779296875 153.798828125 35.1259765625 146.962890625 35.1259765625 c 0
 134.260438338 35.1259765625 127.136929942 24.9585356476 127.136929942 14.8349413796 c 0
 127.136929942 6.90897320476 131.503386326 -0.990118540616 140.977539062 -3.9619140625 c 0
 156.684901475 -8.88864143466 171.766208325 -11.1978778567 186.07700304 -11.1978778567 c 0
 267.826415761 -11.1978778567 324.43258728 64.1567930892 328.967773438 157.405273438 c 0
 333.7265625 255.263671875 363.247070312 353.3046875 461.954101562 375.448242188 c 0
 470.8828125 377.451171875 477.563476562 385.43359375 477.563476562 394.963867188 c 0
EndSplineSet
EndChar

StartChar: asciitilde
Encoding: 126 126 94
Width: 500
Flags: HW
LayerCount: 2
Fore
SplineSet
367.352539062 339.705078125 m 1
 353.458984375 353.202148438 343.3671875 412.12109375 301.4609375 412.12109375 c 0
 275.854492188 412.12109375 249.716796875 389.322265625 215.40625 340.943359375 c 0
 212.866508837 337.362122516 211.718478671 333.395570974 211.718478671 329.518067482 c 0
 211.718478671 319.136134898 219.948582486 309.392578125 231.731445312 309.392578125 c 0
 251.187751528 309.392578125 259.040696082 341.784731429 289.411132812 365.627929688 c 0
 297.196289062 371.739257812 301.184570312 372.12109375 301.4609375 372.12109375 c 0
 301.743812802 372.42461183 302.045329472 372.569912314 302.366627957 372.569912314 c 0
 309.594996529 372.569912314 326.835561553 299.02878512 367.074159631 299.02878512 c 0
 377.70293691 299.02878512 389.936332059 304.159893793 404.013671875 317.1328125 c 0
 418.368164062 330.360351562 433.84375 350.76953125 453.274414062 382.07421875 c 0
 455.342931897 385.407158685 456.283729283 388.997122042 456.283729283 392.503347249 c 0
 456.283729283 402.921629603 447.977407849 412.600585938 436.268554688 412.600585938 c 0
 429.090820312 412.600585938 422.791992188 408.811523438 419.262695312 403.126953125 c 0
 406.64453125 382.795898438 382.4921875 346.423828125 367.352539062 339.705078125 c 1
EndSplineSet
EndChar

StartChar: lessequal.ligature
Encoding: 256 -1 95
Width: 1000
VWidth: 0
GlyphClass: 3
Flags: HW
LayerCount: 2
Fore
SplineSet
306.35546875 252.508789062 m 0
 303.721621044 253.664160845 301.016017497 254.198960723 298.373630123 254.198960723 c 0
 287.854340965 254.198960723 278.336914062 245.723347792 278.336914062 234.18359375 c 0
 278.336914062 225.99609375 283.267578125 218.951171875 290.318359375 215.858398438 c 0
 424.40234375 157.043945312 616.763671875 87.4384765625 736.78515625 60.3310546875 c 0
 738.278063456 59.9938863309 739.763121264 59.8330081794 741.220855399 59.8330081794 c 0
 751.952409363 59.8330081794 761.203125 68.5519874974 761.203125 79.8408203125 c 0
 761.203125 89.361328125 754.537109375 97.3369140625 745.62109375 99.3505859375 c 0
 630.361328125 125.381835938 438.103515625 194.719726562 306.35546875 252.508789062 c 0
858.930664062 500.06640625 m 0
 866.686040265 503.791708291 870.186843121 510.795719488 870.186843121 517.788412942 c 0
 870.186843121 527.958911707 862.781193214 538.10546875 850.2890625 538.10546875 c 0
 847.1953125 538.10546875 844.263671875 537.401367188 841.647460938 536.14453125 c 0
 761.289114563 497.545487671 378.926045845 421.361525485 312.643554688 376.81640625 c 0
 306.851983841 372.924512546 303.780173761 366.590696154 303.780173761 360.177594544 c 0
 303.780173761 355.830045869 305.191888748 351.446060002 308.125 347.76171875 c 0
 346.89740516 299.064703179 674.305925954 233.829552015 762.950195312 180.970703125 c 0
 766.204564306 179.030178506 769.684805919 178.145869413 773.083309557 178.145869413 c 0
 783.512464566 178.145869413 793.171875 186.473603646 793.171875 198.161132812 c 0
 793.171875 205.465820312 789.247070312 211.861328125 783.393554688 215.3515625 c 0
 702.63671875 263.506835938 464.01171875 316.033203125 366.551757812 357.899414062 c 1
 485.236328125 402.649414062 779.713867188 462.015625 858.930664062 500.06640625 c 0
EndSplineSet
Ligature2: "ligatures-1" less equal
EndChar

StartChar: greaterequal.ligature
Encoding: 257 -1 96
Width: 1000
VWidth: 0
GlyphClass: 3
Flags: HW
LayerCount: 2
Fore
SplineSet
234.237304688 67.18359375 m 0
 234.237304688 55.8203911062 243.56939673 47.1732931713 254.229190783 47.1732931713 c 0
 256.021177672 47.1732931713 257.850685409 47.4176600858 259.6796875 47.9345703125 c 0
 312.26953125 62.7958984375 374.973632812 79.51171875 438.809570312 96.5283203125 c 0
 624.375 145.995117188 756.048828125 181.709960938 798.607421875 204.711914062 c 0
 805.803364129 208.601183621 809.036800353 215.316364618 809.036800353 222.005958347 c 0
 809.036800353 232.192311289 801.539545868 242.319335938 789.119140625 242.319335938 c 0
 777.9296875 242.319335938 784.50390625 235.526367188 668.075195312 201.047851562 c 0
 608.217255277 183.322305144 252.97773973 87.6146894169 248.794921875 86.4326171875 c 0
 240.397460938 84.0595703125 234.237304688 76.3359375 234.237304688 67.18359375 c 0
341.665039062 511.067382812 m 0
 341.665039062 453.540826372 647.572664461 425.965362515 785.712890625 364.708984375 c 1
 657.721679688 309.250976562 357.7421875 258.329101562 274.26171875 203.381835938 c 0
 268.060317885 199.299901191 265.288904411 193.103951157 265.288904411 186.958041617 c 0
 265.288904411 176.741918083 272.946655896 166.6640625 285.237304688 166.6640625 c 0
 298.3125 166.6640625 296.094726562 177.872070312 382.087890625 205.365234375 c 0
 528.0859375 252.041992188 762.54296875 296.616210938 839.380859375 347.669921875 c 0
 845.329673322 351.622134893 848.317908844 357.980769986 848.317908844 364.344079701 c 0
 848.317908844 370.564099739 845.462736895 376.788586243 839.7265625 380.774414062 c 0
 741.661308739 448.922839944 414.943820015 486.044266352 375.80859375 525.203125 c 0
 371.760429361 529.253493243 366.773687228 531.063637696 361.874301108 531.063637696 c 0
 351.576717719 531.063637696 341.665039063 523.06712679 341.665039062 511.067382812 c 0
EndSplineSet
Ligature2: "ligatures-1" greater equal
EndChar

StartChar: notequal.ligature
Encoding: 258 -1 97
Width: 1000
VWidth: 0
GlyphClass: 3
Flags: HW
LayerCount: 2
Fore
SplineSet
517.939699851 269.202682465 m 1
 520.166999302 269.163641451 522.651702529 269.14538147 525.37487132 269.14538147 c 0
 564.822710109 269.14538147 654.311203192 272.977135627 736.271847015 272.977135627 c 0
 765.890581428 272.977135627 794.526226049 272.476732621 819.461914062 271.114257812 c 0
 833.686679285 271.114257812 840.385518079 280.908519481 840.385518079 290.801078884 c 0
 840.385518079 300.546046684 833.885074249 310.386401 821.674804688 311.053710938 c 0
 816.675344268 311.326206555 782.495970536 312.856622075 723.113331131 312.856622075 c 0
 680.401212953 312.856622075 624.650222158 312.064863846 557.340121015 309.443771539 c 1
 590.911526817 343.639459791 624.79587716 378.097535941 657.608401581 412.750149082 c 1
 688.958389723 413.504918864 727.577767329 414.18586885 764.838616748 414.18586885 c 0
 796.205637928 414.18586885 826.609917579 413.703303353 850.904296875 412.375976562 c 0
 865.129062097 412.375976562 871.827900892 422.170238231 871.827900892 432.062797634 c 0
 871.827900892 441.807765434 865.327457061 451.64811975 853.1171875 452.315429688 c 0
 851.5473671 452.400992757 814.754056493 454.099766006 751.545638651 454.099766006 c 0
 734.742285989 454.099766006 716.072147809 453.979711778 695.700709348 453.677380283 c 1
 723.317256313 483.936179695 749.711802534 514.321940335 773.973632812 544.790039062 c 0
 776.977859996 548.562697499 778.329460282 552.867815469 778.329460282 557.081587907 c 0
 778.329460282 567.433637719 770.171927548 577.234375 758.3203125 577.234375 c 0
 751.984375 577.234375 746.333007812 574.282226562 742.666992188 569.678710938 c 0
 711.553544381 530.606491214 676.682316313 491.500900324 640.075062923 452.470507688 c 0
 639.334351587 452.449459463 579.549835043 450.298828125 566.005859375 450.298828125 c 0
 518.875 450.298828125 462.658203125 454.670898438 409.778320312 454.670898438 c 0
 380.1328125 454.670898438 351.295898438 453.337890625 324.978515625 448.859375 c 0
 315.544921875 447.25390625 308.352539062 439.032226562 308.352539062 429.143554688 c 0
 308.352539062 418.10546875 317.314453125 409.143554688 328.352539062 409.143554688 c 0
 329.168945312 409.143554688 357.5546875 414.670898438 409.778320312 414.670898438 c 0
 411.432318782 414.670898438 518.445513489 410.800485571 577.385398197 410.800485571 c 0
 586.486877243 410.800485571 594.442026947 410.892777278 600.685877223 411.105864006 c 1
 567.94487395 377.161259449 534.428789713 343.302860535 501.474410576 309.602453453 c 1
 462.277121433 310.784592658 419.305723431 313.409179688 378.336914062 313.409179688 c 1
 348.690429688 313.409179688 319.854492188 312.076171875 293.536132812 307.59765625 c 0
 284.102539062 305.9921875 276.91015625 297.770507812 276.91015625 287.881835938 c 0
 276.91015625 276.84375 285.872070312 267.881835938 296.91015625 267.881835938 c 0
 297.7265625 267.881835938 326.112304688 273.409179688 378.336914062 273.409179688 c 0
 405.798584409 273.409179688 435.129830275 272.134478478 463.940543992 270.962993123 c 1
 433.031950696 238.86820167 403.104718515 206.942957814 375.327148438 175.25 c 0
 371.902876998 171.34272731 370.367312683 166.752387495 370.367312683 162.253253805 c 0
 370.367312683 151.924875259 378.459659894 142.077148438 390.372070312 142.077148438 c 0
 396.3671875 142.077148438 401.75 144.720703125 405.416992188 148.904296875 c 0
 440.133843358 188.515173502 478.425919386 228.65307456 517.939699851 269.202682465 c 1
EndSplineSet
Ligature2: "ligatures-1" exclam equal
EndChar

StartChar: plusplus.ligature
Encoding: 259 -1 98
Width: 1000
VWidth: 0
GlyphClass: 3
Flags: HW
LayerCount: 2
Fore
SplineSet
289.948242188 356.84765625 m 0
 289.948242188 342.253530392 294.476331685 334.062923906 357.279174893 334.062923906 c 0
 370.357366179 334.062923906 385.962627082 334.418107437 404.580309412 335.144612542 c 1
 393.552631219 283.489367243 383.022737739 236.341940786 376.708007812 214.133789062 c 0
 376.185177452 212.294985363 375.938076122 210.455262567 375.938076122 208.653344277 c 0
 375.938076122 197.995471718 384.582696801 188.66015625 395.948242188 188.66015625 c 0
 405.088867188 188.66015625 412.805664062 194.805664062 415.188476562 203.186523438 c 0
 422.511690023 228.94136909 434.129283277 281.374143926 445.935395899 337.063231492 c 1
 481.582344671 338.881918349 546.167609087 340.916652902 546.401688319 340.916652902 c 0
 546.402113495 340.916652902 546.402326362 340.916646189 546.402326362 340.91663275 c 0
 546.402326362 340.91657073 546.397793179 340.916365463 546.388671875 340.916015625 c 1
 583.544921875 340.916015625 590.348632812 336.44921875 665.93359375 336.44921875 c 0
 678.135716935 336.44921875 691.378473 336.628721526 704.960585873 336.926739803 c 1
 693.795139665 284.57599552 683.095286526 236.597086215 676.708007812 214.133789062 c 0
 676.185177452 212.294985363 675.938076122 210.455262567 675.938076122 208.653344277 c 0
 675.938076122 197.995471718 684.582696801 188.66015625 695.948242188 188.66015625 c 0
 705.088867188 188.66015625 712.805664062 194.805664062 715.188476562 203.186523438 c 0
 722.557999832 229.10423502 734.276387367 282.038349084 746.159392438 338.120099555 c 1
 798.463621895 339.950537765 845.345997701 342.634234739 846.53515625 342.668945312 c 0
 857.302734375 342.979492188 865.948242188 351.818359375 865.948242188 362.66015625 c 0
 865.948242188 373.698242188 856.986328125 382.66015625 845.948242188 382.66015625 c 0
 844.688211132 382.66015625 805.338088449 380.127321914 754.608234683 378.341099029 c 1
 757.128715069 390.428769096 779.274971673 497.541537366 779.526367188 498.745117188 c 0
 779.816223977 500.133217642 779.95493829 501.512407231 779.95493829 502.867305282 c 0
 779.95493829 513.622861502 771.213683275 522.84765625 759.948242188 522.84765625 c 0
 750.31640625 522.84765625 742.264648438 516.0234375 740.370117188 506.950195312 c 0
 740.099156507 505.652712382 719.73956422 407.101446221 713.463207387 377.162543092 c 1
 692.215810098 376.704715874 675.038625316 376.515146249 660.88924653 376.515146249 c 0
 592.713830725 376.515146249 594.830898718 380.916128293 550.63781075 380.916128293 c 0
 531.052327215 380.916128293 502.371143375 380.051738768 454.444675502 377.556799777 c 1
 457.157529719 390.563907643 479.273333593 497.533694902 479.526367188 498.745117188 c 0
 479.816223977 500.133217642 479.95493829 501.512407231 479.95493829 502.867305282 c 0
 479.95493829 513.622861502 471.213683275 522.84765625 459.948242188 522.84765625 c 0
 450.31640625 522.84765625 442.264648438 516.0234375 440.370117188 506.950195312 c 0
 440.095731654 505.636312633 419.656291731 406.687147403 413.11936705 375.522847364 c 1
 394.117615988 374.693237882 375.614226226 374.106445313 358.55859375 374.106445312 c 0
 326.977539062 374.106445312 310.435546875 376.84765625 309.948242188 376.84765625 c 0
 298.91015625 376.84765625 289.948242188 367.885742188 289.948242188 356.84765625 c 0
EndSplineSet
Ligature2: "ligatures-1" plus plus
EndChar

StartChar: rightequal
Encoding: 260 -1 99
Width: 500
VWidth: 0
Flags: HW
LayerCount: 2
Fore
SplineSet
277.5859375 416.544921875 m 0
 371.05078125 416.544921875 450.265625 412.345703125 452.010742188 412.345703125 c 0
 463.048828125 412.345703125 472.010742188 421.307617188 472.010742188 432.345703125 c 0
 472.010742188 443.012695312 463.641601562 451.740234375 453.1171875 452.315429688 c 0
 439.632947366 453.052341873 358.668579283 456.584169076 276.960959262 456.584169076 c 0
 218.554704937 456.584169076 159.768672754 454.779518865 124.978515625 448.859375 c 0
 115.544921875 447.25390625 108.352539062 439.032226562 108.352539062 429.143554688 c 0
 108.352539062 418.10546875 117.314453125 409.143554688 128.352539062 409.143554688 c 0
 129.846679688 409.143554688 164.1328125 416.544921875 277.5859375 416.544921875 c 0
246.143554688 275.283203125 m 0
 339.608398438 275.283203125 418.823242188 271.083984375 420.568359375 271.083984375 c 0
 431.606445312 271.083984375 440.568359375 280.045898438 440.568359375 291.083984375 c 0
 440.568359375 301.750976562 432.19921875 310.478515625 421.674804688 311.053710938 c 0
 408.190564554 311.790623123 327.22619647 315.322450326 245.51857645 315.322450326 c 0
 187.112322124 315.322450326 128.326289942 313.517800115 93.5361328125 307.59765625 c 0
 84.1025390625 305.9921875 76.91015625 297.770507812 76.91015625 287.881835938 c 0
 76.91015625 276.84375 85.8720703125 267.881835938 96.91015625 267.881835938 c 0
 98.404296875 267.881835938 132.690429688 275.283203125 246.143554688 275.283203125 c 0
EndSplineSet
Substitution2: "longequal-1" longequal
EndChar

StartChar: lefthyphen
Encoding: 261 -1 100
Width: 500
VWidth: 0
Flags: HW
LayerCount: 2
Fore
SplineSet
345.630859375 348.052734375 m 0
 410.833007812 348.052734375 454.11328125 345.780273438 455.208984375 345.780273438 c 0
 466.247070312 345.780273438 475.208984375 354.7421875 475.208984375 365.780273438 c 0
 475.208984375 376.453125 466.831054688 385.18359375 456.298828125 385.750976562 c 0
 444.040974903 386.410620446 397.034682641 388.082153327 344.102965933 388.082153327 c 0
 291.167383932 388.082153327 232.305512055 386.410376313 196.346679688 380.3828125 c 0
 186.888671875 378.796875 179.671875 370.563476562 179.671875 360.658203125 c 0
 179.671875 349.620117188 188.633789062 340.658203125 199.671875 340.658203125 c 0
 203.1796875 340.658203125 235.077148438 348.052734375 345.630859375 348.052734375 c 0
EndSplineSet
Substitution2: "longhyphen-1" longhyphen
EndChar

StartChar: leftequal
Encoding: 262 -1 101
Width: 500
VWidth: 0
Flags: HW
LayerCount: 2
Fore
SplineSet
377.5859375 416.544921875 m 0
 471.05078125 416.544921875 550.265625 412.345703125 552.010742188 412.345703125 c 0
 563.048828125 412.345703125 572.010742188 421.307617188 572.010742188 432.345703125 c 0
 572.010742188 443.012695312 563.641601562 451.740234375 553.1171875 452.315429688 c 0
 539.632947366 453.052341873 458.668579283 456.584169076 376.960959262 456.584169076 c 0
 318.554704937 456.584169076 259.768672754 454.779518865 224.978515625 448.859375 c 0
 215.544921875 447.25390625 208.352539062 439.032226562 208.352539062 429.143554688 c 0
 208.352539062 418.10546875 217.314453125 409.143554688 228.352539062 409.143554688 c 0
 229.846679688 409.143554688 264.1328125 416.544921875 377.5859375 416.544921875 c 0
346.143554688 275.283203125 m 0
 439.608398438 275.283203125 518.823242188 271.083984375 520.568359375 271.083984375 c 0
 531.606445312 271.083984375 540.568359375 280.045898438 540.568359375 291.083984375 c 0
 540.568359375 301.750976562 532.19921875 310.478515625 521.674804688 311.053710938 c 0
 508.190564554 311.790623123 427.22619647 315.322450326 345.51857645 315.322450326 c 0
 287.112322124 315.322450326 228.326289942 313.517800115 193.536132812 307.59765625 c 0
 184.102539062 305.9921875 176.91015625 297.770507812 176.91015625 287.881835938 c 0
 176.91015625 276.84375 185.872070312 267.881835938 196.91015625 267.881835938 c 0
 198.404296875 267.881835938 232.690429688 275.283203125 346.143554688 275.283203125 c 0
EndSplineSet
Substitution2: "longequal-1" longequal
EndChar

StartChar: leftarrowhead
Encoding: 263 -1 102
Width: 500
VWidth: 0
Flags: HW
LayerCount: 2
Fore
SplineSet
413.171875 198.161132812 m 0
 413.171875 224.781010837 363.668942455 218.653563346 268.914957675 335.322968178 c 1
 308.378838016 331.666163365 361.048721472 328.030804606 414.520052766 328.030804606 c 0
 460.734604728 328.030804606 507.547831191 330.746385698 546.951171875 338.510742188 c 0
 556.133789062 340.3203125 563.068359375 348.423828125 563.068359375 358.133789062 c 0
 563.068359375 369.171875 554.106445312 378.133789062 543.068359375 378.133789062 c 0
 537.262695312 378.133789062 501.735351562 368.067382812 413.626953125 368.067382812 c 0
 364.106880373 368.067382812 315.361799638 371.337028363 279.660959234 374.482311219 c 1
 410.282615973 465.775558697 446.162800048 484.326456485 478.930664062 500.06640625 c 0
 486.686040265 503.791708291 490.186843121 510.795719488 490.186843121 517.788412942 c 0
 490.186843121 527.958911707 482.781193214 538.10546875 470.2890625 538.10546875 c 0
 446.205604849 538.10546875 308.056854339 443.134739569 261.049804688 410.272460938 c 0
 208.149600155 373.290001642 208.149600155 373.290001642 206.262179896 369.857973156 c 0
 204.680063007 366.995295723 203.779296875 363.704525497 203.779296875 360.205078125 c 1
 203.779296875 353.408017782 203.779296875 353.408017782 218.231445312 334.8984375 c 0
 250.134765625 294.046875 299.467773438 230.750976562 382.950195312 180.970703125 c 0
 386.204564306 179.030178506 389.684805919 178.145869413 393.083309557 178.145869413 c 0
 403.512464566 178.145869413 413.171875 186.473603646 413.171875 198.161132812 c 0
EndSplineSet
EndChar

StartChar: rightarrowhead
Encoding: 264 -1 103
Width: 500
VWidth: 0
Flags: HW
LayerCount: 2
Fore
SplineSet
186.479492188 379.88671875 m 0
 97.416272671 379.88671875 87.48046875 377.190858004 87.48046875 357.3515625 c 0
 87.48046875 346.313476562 96.4423828125 337.3515625 107.48046875 337.3515625 c 0
 108.270507812 337.3515625 127.888671875 339.88671875 186.479492188 339.88671875 c 0
 227.396484375 339.88671875 274.795898438 338.907226562 320.541015625 338.907226562 c 0
 339.405840918 338.907226562 357.993719453 339.063926093 375.809746153 339.533106559 c 1
 317.23275915 299.742288673 206.602024142 224.668783272 174.26171875 203.381835938 c 0
 168.060317885 199.299901191 165.288904411 193.103951157 165.288904411 186.958041617 c 0
 165.288904411 176.741918083 172.946655896 166.6640625 185.237304688 166.6640625 c 0
 193.06353992 166.6640625 205.134078407 174.903815927 333.698242188 262.666015625 c 0
 438.574399001 334.255915524 458.462496809 347.027775705 459.712506694 347.894857198 c 0
 461.976713507 349.462440217 468.333006436 354.719602733 468.333007812 364.33984375 c 0
 468.333007812 367.116563406 467.617626574 375.372539326 459.612582079 380.853627173 c 0
 364.530545767 446.931787575 320.869694461 480.115670712 275.80859375 525.203125 c 0
 271.760429361 529.253493243 266.773687228 531.063637696 261.874301108 531.063637696 c 0
 251.576717719 531.063637696 241.665039063 523.06712679 241.665039062 511.067382812 c 0
 241.665039062 505.549804688 243.903320312 500.551757812 247.521484375 496.931640625 c 0
 286.816621719 457.614421407 325.331234852 426.817458789 391.084922212 380.079152703 c 1
 373.549764729 379.395438809 350.625671824 378.907226562 320.541015625 378.907226562 c 1
 275.091796875 378.907226562 227.737304688 379.88671875 186.479492188 379.88671875 c 0
EndSplineSet
EndChar

StartChar: righthyphen
Encoding: 265 -1 104
Width: 500
VWidth: 0
Flags: HW
LayerCount: 2
Fore
SplineSet
307.946289062 348.052734375 m 0
 402.979492188 348.052734375 453.736328125 345.780273438 455.208984375 345.780273438 c 0
 466.247070312 345.780273438 475.208984375 354.7421875 475.208984375 365.780273438 c 0
 475.208984375 376.453125 466.831054688 385.18359375 456.298828125 385.750976562 c 0
 443.081234081 386.462491698 376.783638874 388.100687709 304.627580647 388.100687709 c 0
 231.499295511 388.100687709 152.353610527 386.418048355 116.346679688 380.3828125 c 0
 106.888671875 378.796875 99.671875 370.563476562 99.671875 360.658203125 c 0
 99.671875 349.620117188 108.633789062 340.658203125 119.671875 340.658203125 c 0
 120.92578125 340.658203125 155.776367188 348.052734375 307.946289062 348.052734375 c 0
EndSplineSet
Substitution2: "longhyphen-1" longhyphen
EndChar

StartChar: longequal
Encoding: 266 -1 105
Width: 500
VWidth: 0
Flags: HW
LayerCount: 2
Fore
SplineSet
317.629882812 416.544921875 m 0
 452.370117188 416.544921875 549.666992188 412.345703125 552.010742188 412.345703125 c 0
 563.048828125 412.345703125 572.010742188 421.307617188 572.010742188 432.345703125 c 0
 572.010742188 443.012695312 563.641601562 451.740234375 553.1171875 452.315429688 c 0
 535.628890802 453.271175637 423.700397953 456.605924998 316.164993655 456.605924998 c 0
 236.798650002 456.605924998 159.825290153 454.789435046 124.978515625 448.859375 c 0
 115.544921875 447.25390625 108.352539062 439.032226562 108.352539062 429.143554688 c 0
 108.352539062 418.10546875 117.314453125 409.143554688 128.352539062 409.143554688 c 0
 130.247070312 409.143554688 161.672851562 416.544921875 317.629882812 416.544921875 c 0
286.1875 275.283203125 m 0
 420.927734375 275.283203125 518.224609375 271.083984375 520.568359375 271.083984375 c 0
 531.606445312 271.083984375 540.568359375 280.045898438 540.568359375 291.083984375 c 0
 540.568359375 301.750976562 532.19921875 310.478515625 521.674804688 311.053710938 c 0
 504.18650799 312.009456887 392.25801514 315.344206248 284.722610842 315.344206248 c 0
 205.35626719 315.344206248 128.382907341 313.527716296 93.5361328125 307.59765625 c 0
 84.1025390625 305.9921875 76.91015625 297.770507812 76.91015625 287.881835938 c 0
 76.91015625 276.84375 85.8720703125 267.881835938 96.91015625 267.881835938 c 0
 98.8046875 267.881835938 130.23046875 275.283203125 286.1875 275.283203125 c 0
EndSplineSet
EndChar

StartChar: longhyphen
Encoding: 267 -1 106
Width: 500
VWidth: 0
Flags: HW
LayerCount: 2
Fore
SplineSet
350.26171875 348.052734375 m 0
 474.901367188 348.052734375 533.359375 345.780273438 535.208984375 345.780273438 c 0
 546.247070312 345.780273438 555.208984375 354.7421875 555.208984375 365.780273438 c 0
 555.208984375 376.453125 546.831054688 385.18359375 536.298828125 385.750976562 c 0
 534.040789212 385.872450011 435.270396875 388.132381344 332.29130858 388.132381344 c 0
 244.029970134 388.132381344 152.676980525 386.472266334 116.346679688 380.3828125 c 0
 106.888671875 378.796875 99.671875 370.563476562 99.671875 360.658203125 c 0
 99.671875 349.620117188 108.633789062 340.658203125 119.671875 340.658203125 c 0
 121.978515625 340.658203125 153.606445312 348.052734375 350.26171875 348.052734375 c 0
EndSplineSet
EndChar
